{"glyphs":{"0":{"ha":788,"x_min":0,"x_max":0,"o":"m 400 -14 b 90 483 142 -14 90 253 b 390 982 90 714 139 982 b 699 482 619 982 699 747 b 400 -14 699 217 621 -14 m 397 78 b 596 483 554 78 596 264 b 390 890 596 707 553 890 b 189 483 221 890 189 692 b 397 78 189 279 221 78 "},"1":{"ha":788,"x_min":0,"x_max":0,"o":"m 508 968 l 508 0 l 413 0 l 413 718 l 171 718 l 171 813 l 332 813 b 413 886 381 813 413 829 l 413 968 "},"2":{"ha":788,"x_min":0,"x_max":0,"o":"m 726 90 l 726 0 l 57 0 l 57 89 b 585 690 283 231 585 433 b 392 890 585 813 517 890 b 176 640 244 890 178 783 l 82 647 b 392 982 82 838 192 982 b 682 689 564 982 682 875 b 217 90 682 442 463 244 "},"3":{"ha":788,"x_min":0,"x_max":0,"o":"m 386 -14 b 46 289 193 -14 46 93 l 140 294 b 388 78 140 157 242 78 b 629 283 525 78 629 151 b 339 469 629 447 464 469 l 339 550 b 578 724 479 550 578 603 b 392 890 578 838 494 890 b 186 704 271 890 188 824 l 93 711 b 388 982 93 879 219 982 b 674 735 540 982 674 893 b 528 517 674 618 600 540 b 725 275 633 497 725 417 b 386 -14 725 92 575 -14 "},"4":{"ha":788,"x_min":0,"x_max":0,"o":"m 763 322 l 763 231 l 606 231 l 606 0 l 510 0 l 510 231 l 25 231 l 25 293 l 517 968 l 606 968 l 606 322 m 510 322 l 510 824 l 153 322 "},"5":{"ha":788,"x_min":0,"x_max":0,"o":"m 413 647 b 726 328 594 647 726 506 b 390 -11 726 144 583 -11 b 61 268 215 -11 89 113 l 156 283 b 390 81 176 167 264 81 b 625 328 533 81 625 196 b 401 558 625 456 542 558 b 189 442 308 558 238 513 l 92 468 l 179 968 l 681 968 l 681 876 l 258 876 l 203 563 b 413 647 268 624 342 647 "},"6":{"ha":788,"x_min":0,"x_max":0,"o":"m 463 621 b 724 311 608 594 724 467 b 394 -11 724 135 576 -11 b 65 310 214 -11 65 133 b 115 482 65 369 85 432 l 407 968 l 515 968 l 292 604 b 463 621 342 622 403 632 m 394 81 b 626 311 522 81 626 185 b 394 540 626 438 522 540 b 163 311 267 540 163 438 b 394 81 163 185 265 81 "},"7":{"ha":788,"x_min":0,"x_max":0,"o":"m 738 968 l 738 908 l 265 0 l 157 0 l 619 876 l 44 876 l 44 968 "},"8":{"ha":788,"x_min":0,"x_max":0,"o":"m 394 -11 b 67 274 229 -11 67 83 b 247 526 67 396 135 489 b 121 736 171 564 121 640 b 396 979 121 890 258 979 b 668 731 544 979 668 882 b 542 526 668 636 615 561 b 719 274 653 489 719 394 b 394 -11 719 83 560 -11 m 396 554 b 574 724 500 554 574 621 b 396 888 574 819 500 888 b 217 728 300 888 217 828 b 396 554 217 621 290 554 m 394 81 b 625 281 517 81 625 147 b 394 488 625 407 529 488 b 163 281 258 488 163 407 b 394 81 163 147 271 81 "},"9":{"ha":788,"x_min":0,"x_max":0,"o":"m 393 979 b 722 658 574 979 722 835 b 672 486 722 599 703 536 l 381 0 l 272 0 l 496 364 b 325 347 446 346 385 336 b 64 657 179 374 64 501 b 393 979 64 833 211 979 m 393 428 b 625 657 521 428 625 531 b 393 888 625 783 522 888 b 161 657 265 888 161 783 b 393 428 161 531 265 428 "}," ":{"ha":379,"x_min":0,"x_max":0,"o":""},"A":{"ha":906,"x_min":0,"x_max":0,"o":"m 654 260 l 251 260 l 158 0 l 50 0 l 411 968 l 493 968 l 856 0 l 746 0 m 624 344 l 453 828 l 281 344 "},"Á":{"ha":906,"x_min":0,"x_max":0,"o":"m 490 1056 l 417 1056 l 567 1251 l 669 1251 m 654 260 l 251 260 l 158 0 l 50 0 l 411 968 l 493 968 l 856 0 l 746 0 m 624 344 l 453 828 l 281 344 "},"Ă":{"ha":906,"x_min":0,"x_max":0,"o":"m 453 1069 b 243 1251 313 1069 243 1133 l 313 1251 b 453 1128 313 1169 368 1128 b 593 1251 540 1128 593 1172 l 663 1251 b 453 1069 663 1131 588 1069 m 654 260 l 251 260 l 158 0 l 50 0 l 411 968 l 493 968 l 856 0 l 746 0 m 624 344 l 453 828 l 281 344 "},"Ắ":{"ha":906,"x_min":0,"x_max":0,"o":"m 490 1339 l 417 1339 l 567 1535 l 669 1535 m 453 1069 b 243 1251 313 1069 243 1133 l 313 1251 b 453 1128 313 1169 368 1128 b 593 1251 540 1128 593 1172 l 663 1251 b 453 1069 663 1131 588 1069 m 654 260 l 251 260 l 158 0 l 50 0 l 411 968 l 493 968 l 856 0 l 746 0 m 624 344 l 453 828 l 281 344 "},"Ặ":{"ha":906,"x_min":0,"x_max":0,"o":"m 453 1069 b 243 1251 313 1069 243 1133 l 313 1251 b 453 1128 313 1169 368 1128 b 593 1251 540 1128 593 1172 l 663 1251 b 453 1069 663 1131 588 1069 m 746 0 l 654 260 l 251 260 l 158 0 l 50 0 l 411 968 l 493 968 l 856 0 m 624 344 l 453 828 l 281 344 m 397 -100 l 508 -100 l 508 -240 l 397 -240 "},"Ằ":{"ha":906,"x_min":0,"x_max":0,"o":"m 415 1339 l 243 1535 l 346 1535 l 490 1339 m 453 1069 b 243 1251 313 1069 243 1133 l 313 1251 b 453 1128 313 1169 368 1128 b 593 1251 540 1128 593 1172 l 663 1251 b 453 1069 663 1131 588 1069 m 654 260 l 251 260 l 158 0 l 50 0 l 411 968 l 493 968 l 856 0 l 746 0 m 624 344 l 453 828 l 281 344 "},"Ẳ":{"ha":906,"x_min":0,"x_max":0,"o":"m 539 1431 b 411 1508 539 1488 476 1508 l 390 1508 l 390 1564 l 411 1564 b 604 1428 522 1564 604 1517 b 444 1306 604 1335 513 1319 l 428 1360 b 539 1431 481 1368 539 1379 m 453 1069 b 243 1251 313 1069 243 1133 l 313 1251 b 453 1128 313 1169 368 1128 b 593 1251 540 1128 593 1172 l 663 1251 b 453 1069 663 1131 588 1069 m 654 260 l 251 260 l 158 0 l 50 0 l 411 968 l 493 968 l 856 0 l 746 0 m 624 344 l 453 828 l 281 344 "},"Ẵ":{"ha":906,"x_min":0,"x_max":0,"o":"m 358 1479 b 289 1371 315 1479 289 1439 l 232 1371 b 361 1540 232 1478 282 1540 b 549 1421 465 1540 474 1421 b 613 1535 585 1421 613 1464 l 672 1535 b 549 1358 672 1425 622 1358 b 358 1479 433 1358 432 1479 m 453 1128 b 593 1251 540 1128 593 1172 l 663 1251 b 453 1069 663 1131 588 1069 b 243 1251 313 1069 243 1133 l 313 1251 b 453 1128 313 1169 368 1128 m 654 260 l 251 260 l 158 0 l 50 0 l 411 968 l 493 968 l 856 0 l 746 0 m 624 344 l 453 828 l 281 344 "},"Ǎ":{"ha":906,"x_min":0,"x_max":0,"o":"m 453 1039 l 246 1251 l 325 1251 l 453 1119 l 581 1251 l 660 1251 m 654 260 l 251 260 l 158 0 l 50 0 l 411 968 l 493 968 l 856 0 l 746 0 m 624 344 l 453 828 l 281 344 "},"Â":{"ha":906,"x_min":0,"x_max":0,"o":"m 326 1044 l 246 1044 l 453 1265 l 660 1044 l 581 1044 l 453 1181 m 654 260 l 251 260 l 158 0 l 50 0 l 411 968 l 493 968 l 856 0 l 746 0 m 624 344 l 453 828 l 281 344 "},"Ấ":{"ha":906,"x_min":0,"x_max":0,"o":"m 490 1318 l 417 1318 l 567 1514 l 669 1514 m 326 1044 l 246 1044 l 453 1265 l 660 1044 l 581 1044 l 453 1181 m 654 260 l 251 260 l 158 0 l 50 0 l 411 968 l 493 968 l 856 0 l 746 0 m 624 344 l 453 828 l 281 344 "},"Ậ":{"ha":906,"x_min":0,"x_max":0,"o":"m 326 1044 l 246 1044 l 453 1265 l 660 1044 l 581 1044 l 453 1181 m 746 0 l 654 260 l 251 260 l 158 0 l 50 0 l 411 968 l 493 968 l 856 0 m 624 344 l 453 828 l 281 344 m 397 -100 l 508 -100 l 508 -240 l 397 -240 "},"Ầ":{"ha":906,"x_min":0,"x_max":0,"o":"m 415 1318 l 243 1514 l 346 1514 l 490 1318 m 453 1265 l 660 1044 l 581 1044 l 453 1181 l 326 1044 l 246 1044 m 654 260 l 251 260 l 158 0 l 50 0 l 411 968 l 493 968 l 856 0 l 746 0 m 624 344 l 453 828 l 281 344 "},"Ẩ":{"ha":906,"x_min":0,"x_max":0,"o":"m 539 1410 b 411 1488 539 1467 476 1488 l 390 1488 l 390 1543 l 411 1543 b 604 1407 522 1543 604 1496 b 444 1285 604 1314 513 1299 l 428 1339 b 539 1410 481 1347 539 1358 m 326 1044 l 246 1044 l 453 1265 l 660 1044 l 581 1044 l 453 1181 m 654 260 l 251 260 l 158 0 l 50 0 l 411 968 l 493 968 l 856 0 l 746 0 m 624 344 l 453 828 l 281 344 "},"Ẫ":{"ha":906,"x_min":0,"x_max":0,"o":"m 358 1458 b 289 1350 315 1458 289 1418 l 232 1350 b 361 1519 232 1457 282 1519 b 549 1400 465 1519 474 1400 b 613 1514 585 1400 613 1443 l 672 1514 b 549 1338 672 1404 622 1338 b 358 1458 433 1338 432 1458 m 453 1265 l 660 1044 l 581 1044 l 453 1181 l 326 1044 l 246 1044 m 654 260 l 251 260 l 158 0 l 50 0 l 411 968 l 493 968 l 856 0 l 746 0 m 624 344 l 453 828 l 281 344 "},"Ä":{"ha":906,"x_min":0,"x_max":0,"o":"m 383 1110 l 272 1110 l 272 1251 l 383 1251 m 633 1110 l 522 1110 l 522 1251 l 633 1251 m 654 260 l 251 260 l 158 0 l 50 0 l 411 968 l 493 968 l 856 0 l 746 0 m 624 344 l 453 828 l 281 344 "},"Ạ":{"ha":906,"x_min":0,"x_max":0,"o":"m 746 0 l 654 260 l 251 260 l 158 0 l 50 0 l 411 968 l 493 968 l 856 0 m 624 344 l 453 828 l 281 344 m 397 -100 l 508 -100 l 508 -240 l 397 -240 "},"À":{"ha":906,"x_min":0,"x_max":0,"o":"m 415 1056 l 243 1251 l 346 1251 l 490 1056 m 654 260 l 251 260 l 158 0 l 50 0 l 411 968 l 493 968 l 856 0 l 746 0 m 624 344 l 453 828 l 281 344 "},"Ả":{"ha":906,"x_min":0,"x_max":0,"o":"m 539 1147 b 411 1225 539 1204 476 1225 l 390 1225 l 390 1281 l 411 1281 b 604 1144 522 1281 604 1233 b 444 1022 604 1051 513 1036 l 428 1076 b 539 1147 481 1085 539 1096 m 654 260 l 251 260 l 158 0 l 50 0 l 411 968 l 493 968 l 856 0 l 746 0 m 624 344 l 453 828 l 281 344 "},"Ā":{"ha":906,"x_min":0,"x_max":0,"o":"m 639 1115 l 264 1115 l 264 1174 l 639 1174 m 654 260 l 251 260 l 158 0 l 50 0 l 411 968 l 493 968 l 856 0 l 746 0 m 624 344 l 453 828 l 281 344 "},"Ą":{"ha":906,"x_min":0,"x_max":0,"o":"m 911 -235 b 782 -297 878 -272 833 -297 b 656 -181 711 -297 656 -253 b 775 0 656 -100 718 -36 l 746 0 l 654 260 l 251 260 l 158 0 l 50 0 l 411 968 l 493 968 l 856 0 b 715 -172 807 -29 715 -87 b 779 -235 715 -218 746 -235 b 864 -197 811 -235 839 -221 m 624 344 l 453 828 l 281 344 "},"Å":{"ha":906,"x_min":0,"x_max":0,"o":"m 654 260 l 251 260 l 158 0 l 50 0 l 407 956 b 318 1082 354 975 318 1025 b 453 1217 318 1157 379 1217 b 588 1082 525 1217 588 1157 b 499 956 588 1024 550 974 l 856 0 l 746 0 m 372 1082 b 453 1001 372 1038 407 1001 b 533 1082 499 1001 533 1038 b 453 1163 533 1128 500 1163 b 372 1082 407 1163 372 1128 m 624 344 l 453 828 l 281 344 "},"Ã":{"ha":906,"x_min":0,"x_max":0,"o":"m 358 1196 b 289 1088 315 1196 289 1156 l 232 1088 b 361 1257 232 1194 282 1257 b 549 1138 465 1257 474 1138 b 613 1251 585 1138 613 1181 l 672 1251 b 549 1075 672 1142 622 1075 b 358 1196 433 1075 432 1196 m 654 260 l 251 260 l 158 0 l 50 0 l 411 968 l 493 968 l 856 0 l 746 0 m 624 344 l 453 828 l 281 344 "},"Æ":{"ha":1258,"x_min":0,"x_max":0,"o":"m 411 968 l 1176 968 l 1176 881 l 656 881 l 656 528 l 1108 528 l 1108 443 l 656 443 l 656 90 l 1176 90 l 1176 0 l 554 0 l 554 232 l 240 232 l 158 0 l 50 0 m 554 310 l 554 883 l 474 883 l 271 310 "},"B":{"ha":886,"x_min":0,"x_max":0,"o":"m 158 968 l 456 968 b 744 726 638 968 744 879 b 617 515 744 626 699 550 b 794 271 732 486 794 400 b 485 0 794 97 683 0 l 158 0 m 475 546 b 646 710 582 546 646 608 b 456 876 646 815 576 876 l 257 876 l 257 546 m 478 92 b 694 279 617 92 694 158 b 504 460 694 393 625 460 l 257 460 l 257 92 "},"C":{"ha":1013,"x_min":0,"x_max":0,"o":"m 535 -14 b 94 486 260 -14 94 174 b 542 982 94 797 263 982 b 940 717 736 982 872 893 l 849 682 b 542 888 797 821 694 888 b 193 486 319 888 193 743 b 535 81 193 228 318 81 b 849 290 686 81 794 151 l 943 256 b 535 -14 871 79 728 -14 "},"Ć":{"ha":1013,"x_min":0,"x_max":0,"o":"m 660 1251 l 763 1251 l 583 1056 l 510 1056 m 535 -14 b 94 486 260 -14 94 174 b 542 982 94 797 263 982 b 940 717 736 982 872 893 l 849 682 b 542 888 797 821 694 888 b 193 486 319 888 193 743 b 535 81 193 228 318 81 b 849 290 686 81 794 151 l 943 256 b 535 -14 871 79 728 -14 "},"Č":{"ha":1013,"x_min":0,"x_max":0,"o":"m 339 1251 l 418 1251 l 546 1119 l 674 1251 l 753 1251 l 546 1039 m 535 -14 b 94 486 260 -14 94 174 b 542 982 94 797 263 982 b 940 717 736 982 872 893 l 849 682 b 542 888 797 821 694 888 b 193 486 319 888 193 743 b 535 81 193 228 318 81 b 849 290 686 81 794 151 l 943 256 b 535 -14 871 79 728 -14 "},"Ç":{"ha":1013,"x_min":0,"x_max":0,"o":"m 943 256 b 567 -12 875 89 743 -3 l 519 -89 b 608 -111 556 -94 583 -100 b 681 -218 654 -132 681 -165 b 538 -354 681 -297 624 -354 b 414 -289 494 -354 444 -332 l 449 -243 b 540 -296 471 -279 507 -296 b 622 -219 592 -296 622 -268 b 546 -140 622 -174 589 -151 b 440 -131 518 -133 482 -131 l 508 -14 b 94 486 249 -1 94 183 b 542 982 94 797 263 982 b 940 717 736 982 872 893 l 849 682 b 542 888 797 821 694 888 b 193 486 319 888 193 743 b 535 81 193 228 318 81 b 849 290 686 81 794 151 l 943 256 "},"Ċ":{"ha":1013,"x_min":0,"x_max":0,"o":"m 490 1251 l 601 1251 l 601 1110 l 490 1110 m 535 -14 b 94 486 260 -14 94 174 b 542 982 94 797 263 982 b 940 717 736 982 872 893 l 849 682 b 542 888 797 821 694 888 b 193 486 319 888 193 743 b 535 81 193 228 318 81 b 849 290 686 81 794 151 l 943 256 b 535 -14 871 79 728 -14 "},"D":{"ha":1007,"x_min":0,"x_max":0,"o":"m 158 968 l 421 968 b 915 476 736 968 915 789 b 419 0 915 168 740 0 l 158 0 m 411 92 b 815 481 682 92 815 219 b 419 876 815 743 682 876 l 257 876 l 257 92 "},"Ð":{"ha":1007,"x_min":0,"x_max":0,"o":"m 421 968 b 915 476 736 968 915 789 b 419 0 915 168 740 0 l 158 0 l 158 451 l 56 451 l 56 517 l 158 517 l 158 968 l 421 968 m 411 92 b 815 481 682 92 815 219 b 419 876 815 743 682 876 l 257 876 l 257 517 l 431 517 l 431 451 l 257 451 l 257 92 l 411 92 "},"Ď":{"ha":1007,"x_min":0,"x_max":0,"o":"m 299 1251 l 378 1251 l 506 1119 l 633 1251 l 713 1251 l 506 1039 m 158 968 l 421 968 b 915 476 736 968 915 789 b 419 0 915 168 740 0 l 158 0 m 411 92 b 815 481 682 92 815 219 b 419 876 815 743 682 876 l 257 876 l 257 92 "},"Đ":{"ha":1007,"x_min":0,"x_max":0,"o":"m 421 968 b 915 476 736 968 915 789 b 419 0 915 168 740 0 l 158 0 l 158 451 l 56 451 l 56 517 l 158 517 l 158 968 l 421 968 m 411 92 b 815 481 682 92 815 219 b 419 876 815 743 682 876 l 257 876 l 257 517 l 431 517 l 431 451 l 257 451 l 257 92 l 411 92 "},"E":{"ha":878,"x_min":0,"x_max":0,"o":"m 158 968 l 793 968 l 793 876 l 257 876 l 257 539 l 739 539 l 739 447 l 257 447 l 257 92 l 793 92 l 793 0 l 158 0 "},"É":{"ha":878,"x_min":0,"x_max":0,"o":"m 589 1251 l 692 1251 l 513 1056 l 439 1056 m 158 968 l 793 968 l 793 876 l 257 876 l 257 539 l 739 539 l 739 447 l 257 447 l 257 92 l 793 92 l 793 0 l 158 0 "},"Ě":{"ha":878,"x_min":0,"x_max":0,"o":"m 268 1251 l 347 1251 l 475 1119 l 603 1251 l 682 1251 l 475 1039 m 158 968 l 793 968 l 793 876 l 257 876 l 257 539 l 739 539 l 739 447 l 257 447 l 257 92 l 793 92 l 793 0 l 158 0 "},"Ê":{"ha":878,"x_min":0,"x_max":0,"o":"m 475 1265 l 682 1044 l 603 1044 l 475 1181 l 349 1044 l 268 1044 m 158 968 l 793 968 l 793 876 l 257 876 l 257 539 l 739 539 l 739 447 l 257 447 l 257 92 l 793 92 l 793 0 l 158 0 "},"Ế":{"ha":878,"x_min":0,"x_max":0,"o":"m 589 1514 l 692 1514 l 513 1318 l 439 1318 m 475 1265 l 682 1044 l 603 1044 l 475 1181 l 349 1044 l 268 1044 m 158 968 l 793 968 l 793 876 l 257 876 l 257 539 l 739 539 l 739 447 l 257 447 l 257 92 l 793 92 l 793 0 l 158 0 "},"Ệ":{"ha":878,"x_min":0,"x_max":0,"o":"m 475 1265 l 682 1044 l 603 1044 l 475 1181 l 349 1044 l 268 1044 m 158 968 l 793 968 l 793 876 l 257 876 l 257 539 l 739 539 l 739 447 l 257 447 l 257 92 l 793 92 l 793 0 l 158 0 m 419 -100 l 531 -100 l 531 -240 l 419 -240 "},"Ề":{"ha":878,"x_min":0,"x_max":0,"o":"m 265 1514 l 368 1514 l 513 1318 l 438 1318 m 475 1265 l 682 1044 l 603 1044 l 475 1181 l 349 1044 l 268 1044 m 158 968 l 793 968 l 793 876 l 257 876 l 257 539 l 739 539 l 739 447 l 257 447 l 257 92 l 793 92 l 793 0 l 158 0 "},"Ể":{"ha":878,"x_min":0,"x_max":0,"o":"m 450 1339 b 561 1410 503 1347 561 1358 b 433 1488 561 1467 499 1488 l 413 1488 l 413 1543 l 433 1543 b 626 1407 544 1543 626 1496 b 467 1285 626 1314 535 1299 m 475 1265 l 682 1044 l 603 1044 l 475 1181 l 349 1044 l 268 1044 m 158 968 l 793 968 l 793 876 l 257 876 l 257 539 l 739 539 l 739 447 l 257 447 l 257 92 l 793 92 l 793 0 l 158 0 "},"Ễ":{"ha":878,"x_min":0,"x_max":0,"o":"m 571 1338 b 381 1458 456 1338 454 1458 b 311 1350 338 1458 311 1418 l 254 1350 b 383 1519 254 1457 304 1519 b 571 1400 488 1519 496 1400 b 635 1514 607 1400 635 1443 l 694 1514 b 571 1338 694 1404 644 1338 m 475 1265 l 682 1044 l 603 1044 l 475 1181 l 349 1044 l 268 1044 m 158 968 l 793 968 l 793 876 l 257 876 l 257 539 l 739 539 l 739 447 l 257 447 l 257 92 l 793 92 l 793 0 l 158 0 "},"Ë":{"ha":878,"x_min":0,"x_max":0,"o":"m 294 1251 l 406 1251 l 406 1110 l 294 1110 m 544 1251 l 656 1251 l 656 1110 l 544 1110 m 158 968 l 793 968 l 793 876 l 257 876 l 257 539 l 739 539 l 739 447 l 257 447 l 257 92 l 793 92 l 793 0 l 158 0 "},"Ė":{"ha":878,"x_min":0,"x_max":0,"o":"m 419 1251 l 531 1251 l 531 1110 l 419 1110 m 158 968 l 793 968 l 793 876 l 257 876 l 257 539 l 739 539 l 739 447 l 257 447 l 257 92 l 793 92 l 793 0 l 158 0 "},"Ẹ":{"ha":878,"x_min":0,"x_max":0,"o":"m 158 968 l 793 968 l 793 876 l 257 876 l 257 539 l 739 539 l 739 447 l 257 447 l 257 92 l 793 92 l 793 0 l 158 0 m 419 -100 l 531 -100 l 531 -240 l 419 -240 "},"È":{"ha":878,"x_min":0,"x_max":0,"o":"m 265 1251 l 368 1251 l 513 1056 l 438 1056 m 158 968 l 793 968 l 793 876 l 257 876 l 257 539 l 739 539 l 739 447 l 257 447 l 257 92 l 793 92 l 793 0 l 158 0 "},"Ẻ":{"ha":878,"x_min":0,"x_max":0,"o":"m 450 1076 b 561 1147 503 1085 561 1096 b 433 1225 561 1204 499 1225 l 413 1225 l 413 1281 l 433 1281 b 626 1144 544 1281 626 1233 b 467 1022 626 1051 535 1036 m 158 968 l 793 968 l 793 876 l 257 876 l 257 539 l 739 539 l 739 447 l 257 447 l 257 92 l 793 92 l 793 0 l 158 0 "},"Ē":{"ha":878,"x_min":0,"x_max":0,"o":"m 286 1174 l 661 1174 l 661 1115 l 286 1115 m 158 968 l 793 968 l 793 876 l 257 876 l 257 539 l 739 539 l 739 447 l 257 447 l 257 92 l 793 92 l 793 0 l 158 0 "},"Ę":{"ha":878,"x_min":0,"x_max":0,"o":"m 849 -235 b 719 -297 815 -272 771 -297 b 593 -181 649 -297 593 -253 b 713 0 593 -100 656 -36 l 158 0 l 158 968 l 793 968 l 793 876 l 257 876 l 257 539 l 739 539 l 739 447 l 257 447 l 257 92 l 793 92 l 793 0 b 653 -172 744 -29 653 -87 b 717 -235 653 -218 683 -235 b 801 -197 749 -235 776 -221 "},"Ẽ":{"ha":878,"x_min":0,"x_max":0,"o":"m 571 1075 b 381 1196 456 1075 454 1196 b 311 1088 338 1196 311 1156 l 254 1088 b 383 1257 254 1194 304 1257 b 571 1138 488 1257 496 1138 b 635 1251 607 1138 635 1181 l 694 1251 b 571 1075 694 1142 644 1075 m 158 968 l 793 968 l 793 876 l 257 876 l 257 539 l 739 539 l 739 447 l 257 447 l 257 92 l 793 92 l 793 0 l 158 0 "},"F":{"ha":872,"x_min":0,"x_max":0,"o":"m 158 968 l 815 968 l 815 876 l 257 876 l 257 539 l 746 539 l 746 447 l 257 447 l 257 0 l 158 0 "},"G":{"ha":1064,"x_min":0,"x_max":0,"o":"m 614 500 l 940 500 l 940 0 l 861 0 l 847 151 b 528 -14 794 44 676 -14 b 94 486 246 -14 94 197 b 542 982 94 774 244 982 b 940 717 746 982 876 883 l 849 682 b 542 888 800 814 703 888 b 193 490 308 888 193 729 b 535 81 193 260 294 81 b 847 389 701 81 847 168 l 847 419 l 614 419 "},"Ğ":{"ha":1064,"x_min":0,"x_max":0,"o":"m 535 1069 b 325 1251 394 1069 325 1133 l 394 1251 b 535 1128 394 1169 450 1128 b 675 1251 622 1128 675 1172 l 744 1251 b 535 1069 744 1131 669 1069 m 614 500 l 940 500 l 940 0 l 861 0 l 847 151 b 528 -14 794 44 676 -14 b 94 486 246 -14 94 197 b 542 982 94 774 244 982 b 940 717 746 982 876 883 l 849 682 b 542 888 800 814 703 888 b 193 490 308 888 193 729 b 535 81 193 260 294 81 b 847 389 701 81 847 168 l 847 419 l 614 419 "},"Ģ":{"ha":1064,"x_min":0,"x_max":0,"o":"m 614 500 l 940 500 l 940 0 l 861 0 l 847 151 b 528 -14 794 44 676 -14 b 94 486 246 -14 94 197 b 542 982 94 774 244 982 b 940 717 746 982 876 883 l 849 682 b 542 888 800 814 703 888 b 193 490 308 888 193 729 b 535 81 193 260 294 81 b 847 389 701 81 847 168 l 847 419 l 614 419 m 483 -78 l 585 -78 l 422 -307 l 361 -307 "},"Ġ":{"ha":1064,"x_min":0,"x_max":0,"o":"m 590 1110 l 479 1110 l 479 1251 l 590 1251 m 614 500 l 940 500 l 940 0 l 861 0 l 847 151 b 528 -14 794 44 676 -14 b 94 486 246 -14 94 197 b 542 982 94 774 244 982 b 940 717 746 982 876 883 l 849 682 b 542 888 800 814 703 888 b 193 490 308 888 193 729 b 535 81 193 260 294 81 b 847 389 701 81 847 168 l 847 419 l 614 419 "},"H":{"ha":1018,"x_min":0,"x_max":0,"o":"m 158 968 l 257 968 l 257 540 l 760 540 l 760 968 l 860 968 l 860 0 l 760 0 l 760 447 l 257 447 l 257 0 l 158 0 "},"Ħ":{"ha":1018,"x_min":0,"x_max":0,"o":"m 949 718 l 860 718 l 860 0 l 760 0 l 760 447 l 257 447 l 257 0 l 158 0 l 158 718 l 67 718 l 67 776 l 158 776 l 158 968 l 257 968 l 257 776 l 760 776 l 760 968 l 860 968 l 860 776 l 949 776 m 760 718 l 257 718 l 257 540 l 760 540 "},"I":{"ha":415,"x_min":0,"x_max":0,"o":"m 158 968 l 257 968 l 257 0 l 158 0 "},"Í":{"ha":415,"x_min":0,"x_max":0,"o":"m 322 1251 l 425 1251 l 246 1056 l 172 1056 m 158 968 l 257 968 l 257 0 l 158 0 "},"Ǐ":{"ha":415,"x_min":0,"x_max":0,"o":"m 1 1251 l 81 1251 l 208 1119 l 336 1251 l 415 1251 l 208 1039 m 158 968 l 257 968 l 257 0 l 158 0 "},"Î":{"ha":415,"x_min":0,"x_max":0,"o":"m 208 1265 l 415 1044 l 336 1044 l 208 1181 l 82 1044 l 1 1044 m 158 968 l 257 968 l 257 0 l 158 0 "},"Ï":{"ha":415,"x_min":0,"x_max":0,"o":"m 28 1251 l 139 1251 l 139 1110 l 28 1110 m 278 1251 l 389 1251 l 389 1110 l 278 1110 m 158 968 l 257 968 l 257 0 l 158 0 "},"İ":{"ha":415,"x_min":0,"x_max":0,"o":"m 153 1251 l 264 1251 l 264 1110 l 153 1110 m 158 968 l 257 968 l 257 0 l 158 0 "},"Ị":{"ha":415,"x_min":0,"x_max":0,"o":"m 158 968 l 257 968 l 257 0 l 158 0 m 153 -100 l 264 -100 l 264 -240 l 153 -240 "},"Ì":{"ha":415,"x_min":0,"x_max":0,"o":"m -1 1251 l 101 1251 l 246 1056 l 171 1056 m 158 968 l 257 968 l 257 0 l 158 0 "},"Ỉ":{"ha":415,"x_min":0,"x_max":0,"o":"m 183 1076 b 294 1147 236 1085 294 1096 b 167 1225 294 1204 232 1225 l 146 1225 l 146 1281 l 167 1281 b 360 1144 278 1281 360 1233 b 200 1022 360 1051 268 1036 m 158 968 l 257 968 l 257 0 l 158 0 "},"Ī":{"ha":415,"x_min":0,"x_max":0,"o":"m 19 1174 l 394 1174 l 394 1115 l 19 1115 m 158 968 l 257 968 l 257 0 l 158 0 "},"Į":{"ha":415,"x_min":0,"x_max":0,"o":"m 313 -235 b 183 -297 279 -272 235 -297 b 57 -181 113 -297 57 -253 b 176 0 57 -100 119 -36 l 158 0 l 158 968 l 257 968 l 257 0 b 117 -172 208 -29 117 -87 b 181 -235 117 -218 147 -235 b 265 -197 213 -235 240 -221 "},"Ĩ":{"ha":415,"x_min":0,"x_max":0,"o":"m 304 1075 b 114 1196 189 1075 188 1196 b 44 1088 71 1196 44 1156 l -12 1088 b 117 1257 -12 1194 38 1257 b 304 1138 221 1257 229 1138 b 368 1251 340 1138 368 1181 l 428 1251 b 304 1075 428 1142 378 1075 m 158 968 l 257 968 l 257 0 l 158 0 "},"J":{"ha":811,"x_min":0,"x_max":0,"o":"m 365 -14 b 56 283 186 -14 69 97 l 153 294 b 365 79 163 156 239 79 b 572 351 503 79 572 169 l 572 876 l 181 876 l 181 968 l 671 968 l 671 346 b 365 -14 671 115 560 -14 "},"K":{"ha":988,"x_min":0,"x_max":0,"o":"m 822 0 l 503 546 l 257 293 l 257 0 l 158 0 l 158 968 l 257 968 l 257 418 l 786 968 l 917 968 l 571 615 l 936 0 "},"Ķ":{"ha":988,"x_min":0,"x_max":0,"o":"m 936 0 l 822 0 l 503 546 l 257 293 l 257 0 l 158 0 l 158 968 l 257 968 l 257 418 l 786 968 l 917 968 l 571 615 m 443 -78 l 544 -78 l 382 -307 l 321 -307 "},"L":{"ha":746,"x_min":0,"x_max":0,"o":"m 158 968 l 257 968 l 257 92 l 699 92 l 699 0 l 158 0 "},"Ĺ":{"ha":746,"x_min":0,"x_max":0,"o":"m 322 1251 l 425 1251 l 246 1056 l 172 1056 m 158 968 l 257 968 l 257 92 l 699 92 l 699 0 l 158 0 "},"Ľ":{"ha":746,"x_min":0,"x_max":0,"o":"m 158 968 l 257 968 l 257 92 l 699 92 l 699 0 l 158 0 m 549 968 l 649 968 l 526 679 l 468 679 "},"Ļ":{"ha":746,"x_min":0,"x_max":0,"o":"m 158 968 l 257 968 l 257 92 l 699 92 l 699 0 l 158 0 m 378 -78 l 479 -78 l 317 -307 l 256 -307 "},"Ł":{"ha":746,"x_min":0,"x_max":0,"o":"m 699 92 l 699 0 l 158 0 l 158 344 l 86 288 l 86 388 l 158 444 l 158 968 l 257 968 l 257 522 l 494 710 l 494 611 l 257 422 l 257 92 "},"M":{"ha":1239,"x_min":0,"x_max":0,"o":"m 1081 968 l 1081 0 l 981 0 l 981 836 l 668 81 l 571 81 l 257 839 l 257 0 l 158 0 l 158 968 l 303 968 l 619 196 l 936 968 "},"N":{"ha":1000,"x_min":0,"x_max":0,"o":"m 842 968 l 842 0 l 733 0 l 257 800 l 257 0 l 158 0 l 158 968 l 265 968 l 743 172 l 743 968 "},"Ń":{"ha":1000,"x_min":0,"x_max":0,"o":"m 538 1056 l 464 1056 l 614 1251 l 717 1251 m 842 968 l 842 0 l 733 0 l 257 800 l 257 0 l 158 0 l 158 968 l 265 968 l 743 172 l 743 968 "},"Ň":{"ha":1000,"x_min":0,"x_max":0,"o":"m 500 1039 l 293 1251 l 372 1251 l 500 1119 l 628 1251 l 707 1251 m 842 968 l 842 0 l 733 0 l 257 800 l 257 0 l 158 0 l 158 968 l 265 968 l 743 172 l 743 968 "},"Ņ":{"ha":1000,"x_min":0,"x_max":0,"o":"m 842 968 l 842 0 l 733 0 l 257 800 l 257 0 l 158 0 l 158 968 l 265 968 l 743 172 l 743 968 m 449 -78 l 550 -78 l 388 -307 l 326 -307 "},"Ŋ":{"ha":1000,"x_min":0,"x_max":0,"o":"m 842 968 l 842 -18 b 639 -237 842 -139 785 -237 b 540 -222 611 -237 574 -232 l 543 -157 b 615 -169 568 -165 597 -169 b 747 -51 710 -169 747 -112 b 733 0 747 -33 742 -14 l 257 799 l 257 0 l 158 0 l 158 968 l 265 968 l 743 171 l 743 968 "},"Ñ":{"ha":1000,"x_min":0,"x_max":0,"o":"m 406 1196 b 336 1088 363 1196 336 1156 l 279 1088 b 408 1257 279 1194 329 1257 b 596 1138 513 1257 521 1138 b 660 1251 632 1138 660 1181 l 719 1251 b 596 1075 719 1142 669 1075 b 406 1196 481 1075 479 1196 m 842 968 l 842 0 l 733 0 l 257 800 l 257 0 l 158 0 l 158 968 l 265 968 l 743 172 l 743 968 "},"O":{"ha":1072,"x_min":0,"x_max":0,"o":"m 536 -14 b 93 483 271 -14 93 185 b 536 982 93 783 271 982 b 979 483 801 982 979 783 b 536 -14 979 185 801 -14 m 536 81 b 881 483 746 81 881 238 b 536 888 881 731 746 888 b 192 483 326 888 192 731 b 536 81 192 238 326 81 "},"Ó":{"ha":1072,"x_min":0,"x_max":0,"o":"m 650 1251 l 753 1251 l 574 1056 l 500 1056 m 536 -14 b 93 483 271 -14 93 185 b 536 982 93 783 271 982 b 979 483 801 982 979 783 b 536 -14 979 185 801 -14 m 536 81 b 881 483 746 81 881 238 b 536 888 881 731 746 888 b 192 483 326 888 192 731 b 536 81 192 238 326 81 "},"Ǒ":{"ha":1072,"x_min":0,"x_max":0,"o":"m 329 1251 l 408 1251 l 536 1119 l 664 1251 l 743 1251 l 536 1039 m 536 -14 b 93 483 271 -14 93 185 b 536 982 93 783 271 982 b 979 483 801 982 979 783 b 536 -14 979 185 801 -14 m 536 81 b 881 483 746 81 881 238 b 536 888 881 731 746 888 b 192 483 326 888 192 731 b 536 81 192 238 326 81 "},"Ô":{"ha":1072,"x_min":0,"x_max":0,"o":"m 536 1265 l 743 1044 l 664 1044 l 536 1181 l 410 1044 l 329 1044 m 536 -14 b 93 483 271 -14 93 185 b 536 982 93 783 271 982 b 979 483 801 982 979 783 b 536 -14 979 185 801 -14 m 536 81 b 881 483 746 81 881 238 b 536 888 881 731 746 888 b 192 483 326 888 192 731 b 536 81 192 238 326 81 "},"Ố":{"ha":1072,"x_min":0,"x_max":0,"o":"m 650 1514 l 753 1514 l 574 1318 l 500 1318 m 536 1265 l 743 1044 l 664 1044 l 536 1181 l 410 1044 l 329 1044 m 536 -14 b 93 483 271 -14 93 185 b 536 982 93 783 271 982 b 979 483 801 982 979 783 b 536 -14 979 185 801 -14 m 536 81 b 881 483 746 81 881 238 b 536 888 881 731 746 888 b 192 483 326 888 192 731 b 536 81 192 238 326 81 "},"Ộ":{"ha":1072,"x_min":0,"x_max":0,"o":"m 536 1265 l 743 1044 l 664 1044 l 536 1181 l 410 1044 l 329 1044 m 536 -14 b 93 483 271 -14 93 185 b 536 982 93 783 271 982 b 979 483 801 982 979 783 b 536 -14 979 185 801 -14 m 536 81 b 881 483 746 81 881 238 b 536 888 881 731 746 888 b 192 483 326 888 192 731 b 536 81 192 238 326 81 m 481 -100 l 592 -100 l 592 -240 l 481 -240 "},"Ồ":{"ha":1072,"x_min":0,"x_max":0,"o":"m 326 1514 l 429 1514 l 574 1318 l 499 1318 m 536 1265 l 743 1044 l 664 1044 l 536 1181 l 410 1044 l 329 1044 m 536 -14 b 93 483 271 -14 93 185 b 536 982 93 783 271 982 b 979 483 801 982 979 783 b 536 -14 979 185 801 -14 m 536 81 b 881 483 746 81 881 238 b 536 888 881 731 746 888 b 192 483 326 888 192 731 b 536 81 192 238 326 81 "},"Ổ":{"ha":1072,"x_min":0,"x_max":0,"o":"m 511 1339 b 622 1410 564 1347 622 1358 b 494 1488 622 1467 560 1488 l 474 1488 l 474 1543 l 494 1543 b 688 1407 606 1543 688 1496 b 528 1285 688 1314 596 1299 m 536 1265 l 743 1044 l 664 1044 l 536 1181 l 410 1044 l 329 1044 m 536 -14 b 93 483 271 -14 93 185 b 536 982 93 783 271 982 b 979 483 801 982 979 783 b 536 -14 979 185 801 -14 m 536 81 b 881 483 746 81 881 238 b 536 888 881 731 746 888 b 192 483 326 888 192 731 b 536 81 192 238 326 81 "},"Ỗ":{"ha":1072,"x_min":0,"x_max":0,"o":"m 632 1338 b 442 1458 517 1338 515 1458 b 372 1350 399 1458 372 1418 l 315 1350 b 444 1519 315 1457 365 1519 b 632 1400 549 1519 557 1400 b 696 1514 668 1400 696 1443 l 756 1514 b 632 1338 756 1404 706 1338 m 536 1265 l 743 1044 l 664 1044 l 536 1181 l 410 1044 l 329 1044 m 536 -14 b 93 483 271 -14 93 185 b 536 982 93 783 271 982 b 979 483 801 982 979 783 b 536 -14 979 185 801 -14 m 536 81 b 881 483 746 81 881 238 b 536 888 881 731 746 888 b 192 483 326 888 192 731 b 536 81 192 238 326 81 "},"Ö":{"ha":1072,"x_min":0,"x_max":0,"o":"m 356 1251 l 467 1251 l 467 1110 l 356 1110 m 606 1251 l 717 1251 l 717 1110 l 606 1110 m 536 -14 b 93 483 271 -14 93 185 b 536 982 93 783 271 982 b 979 483 801 982 979 783 b 536 -14 979 185 801 -14 m 536 81 b 881 483 746 81 881 238 b 536 888 881 731 746 888 b 192 483 326 888 192 731 b 536 81 192 238 326 81 "},"Ọ":{"ha":1072,"x_min":0,"x_max":0,"o":"m 536 -14 b 93 483 271 -14 93 185 b 536 982 93 783 271 982 b 979 483 801 982 979 783 b 536 -14 979 185 801 -14 m 536 81 b 881 483 746 81 881 238 b 536 888 881 731 746 888 b 192 483 326 888 192 731 b 536 81 192 238 326 81 m 481 -100 l 592 -100 l 592 -240 l 481 -240 "},"Ò":{"ha":1072,"x_min":0,"x_max":0,"o":"m 326 1251 l 429 1251 l 574 1056 l 499 1056 m 536 -14 b 93 483 271 -14 93 185 b 536 982 93 783 271 982 b 979 483 801 982 979 783 b 536 -14 979 185 801 -14 m 536 81 b 881 483 746 81 881 238 b 536 888 881 731 746 888 b 192 483 326 888 192 731 b 536 81 192 238 326 81 "},"Ỏ":{"ha":1072,"x_min":0,"x_max":0,"o":"m 511 1076 b 622 1147 564 1085 622 1096 b 494 1225 622 1204 560 1225 l 474 1225 l 474 1281 l 494 1281 b 688 1144 606 1281 688 1233 b 528 1022 688 1051 596 1036 m 536 -14 b 93 483 271 -14 93 185 b 536 982 93 783 271 982 b 979 483 801 982 979 783 b 536 -14 979 185 801 -14 m 536 81 b 881 483 746 81 881 238 b 536 888 881 731 746 888 b 192 483 326 888 192 731 b 536 81 192 238 326 81 "},"Ơ":{"ha":1072,"x_min":0,"x_max":0,"o":"m 1079 968 l 1079 901 b 944 696 1079 794 1039 718 b 979 483 967 633 979 561 b 536 -14 979 185 801 -14 b 93 483 271 -14 93 185 b 536 982 93 783 271 982 b 917 758 708 982 843 899 b 1006 894 982 771 1006 825 l 1006 968 m 536 81 b 881 483 746 81 881 238 b 536 888 881 731 746 888 b 192 483 326 888 192 731 b 536 81 192 238 326 81 "},"Ớ":{"ha":1072,"x_min":0,"x_max":0,"o":"m 574 1056 l 500 1056 l 650 1251 l 753 1251 m 1079 968 l 1079 901 b 944 696 1079 794 1039 718 b 979 483 967 633 979 561 b 536 -14 979 185 801 -14 b 93 483 271 -14 93 185 b 536 982 93 783 271 982 b 917 758 708 982 843 899 b 1006 894 982 771 1006 825 l 1006 968 m 536 81 b 881 483 746 81 881 238 b 536 888 881 731 746 888 b 192 483 326 888 192 731 b 536 81 192 238 326 81 "},"Ợ":{"ha":1072,"x_min":0,"x_max":0,"o":"m 1079 968 l 1079 901 b 944 696 1079 794 1039 718 b 979 483 967 633 979 561 b 536 -14 979 185 801 -14 b 93 483 271 -14 93 185 b 536 982 93 783 271 982 b 917 758 708 982 843 899 b 1006 894 982 771 1006 825 l 1006 968 m 536 81 b 881 483 746 81 881 238 b 536 888 881 731 746 888 b 192 483 326 888 192 731 b 536 81 192 238 326 81 m 481 -100 l 592 -100 l 592 -240 l 481 -240 "},"Ờ":{"ha":1072,"x_min":0,"x_max":0,"o":"m 499 1056 l 326 1251 l 429 1251 l 574 1056 m 1079 968 l 1079 901 b 944 696 1079 794 1039 718 b 979 483 967 633 979 561 b 536 -14 979 185 801 -14 b 93 483 271 -14 93 185 b 536 982 93 783 271 982 b 917 758 708 982 843 899 b 1006 894 982 771 1006 825 l 1006 968 m 536 81 b 881 483 746 81 881 238 b 536 888 881 731 746 888 b 192 483 326 888 192 731 b 536 81 192 238 326 81 "},"Ở":{"ha":1072,"x_min":0,"x_max":0,"o":"m 622 1147 b 494 1225 622 1204 560 1225 l 474 1225 l 474 1281 l 494 1281 b 688 1144 606 1281 688 1233 b 528 1022 688 1051 596 1036 l 511 1076 b 622 1147 564 1085 622 1096 m 1079 968 l 1079 901 b 944 696 1079 794 1039 718 b 979 483 967 633 979 561 b 536 -14 979 185 801 -14 b 93 483 271 -14 93 185 b 536 982 93 783 271 982 b 917 758 708 982 843 899 b 1006 894 982 771 1006 825 l 1006 968 m 536 81 b 881 483 746 81 881 238 b 536 888 881 731 746 888 b 192 483 326 888 192 731 b 536 81 192 238 326 81 "},"Ỡ":{"ha":1072,"x_min":0,"x_max":0,"o":"m 442 1196 b 372 1088 399 1196 372 1156 l 315 1088 b 444 1257 315 1194 365 1257 b 632 1138 549 1257 557 1138 b 696 1251 668 1138 696 1181 l 756 1251 b 632 1075 756 1142 706 1075 b 442 1196 517 1075 515 1196 m 1079 968 l 1079 901 b 944 696 1079 794 1039 718 b 979 483 967 633 979 561 b 536 -14 979 185 801 -14 b 93 483 271 -14 93 185 b 536 982 93 783 271 982 b 917 758 708 982 843 899 b 1006 894 982 771 1006 825 l 1006 968 m 536 81 b 881 483 746 81 881 238 b 536 888 881 731 746 888 b 192 483 326 888 192 731 b 536 81 192 238 326 81 "},"Ő":{"ha":1072,"x_min":0,"x_max":0,"o":"m 531 1251 l 618 1251 l 454 1040 l 381 1040 m 767 1251 l 869 1251 l 690 1040 l 617 1040 m 536 -14 b 93 483 271 -14 93 185 b 536 982 93 783 271 982 b 979 483 801 982 979 783 b 536 -14 979 185 801 -14 m 536 81 b 881 483 746 81 881 238 b 536 888 881 731 746 888 b 192 483 326 888 192 731 b 536 81 192 238 326 81 "},"Ō":{"ha":1072,"x_min":0,"x_max":0,"o":"m 347 1174 l 722 1174 l 722 1115 l 347 1115 m 536 -14 b 93 483 271 -14 93 185 b 536 982 93 783 271 982 b 979 483 801 982 979 783 b 536 -14 979 185 801 -14 m 536 81 b 881 483 746 81 881 238 b 536 888 881 731 746 888 b 192 483 326 888 192 731 b 536 81 192 238 326 81 "},"Ø":{"ha":1072,"x_min":0,"x_max":0,"o":"m 833 871 b 979 483 925 783 979 649 b 536 -14 979 185 801 -14 b 304 49 447 -14 369 8 l 272 0 l 176 0 l 239 97 b 93 483 147 185 93 319 b 536 982 93 783 271 982 b 768 919 625 982 703 960 l 800 968 l 896 968 l 833 871 m 192 483 b 293 181 192 356 228 251 l 717 839 b 536 888 667 871 606 888 b 192 483 326 888 192 731 m 536 81 b 881 483 746 81 881 238 b 779 788 881 613 844 717 l 356 129 b 536 81 406 97 467 81 "},"Õ":{"ha":1072,"x_min":0,"x_max":0,"o":"m 632 1075 b 442 1196 517 1075 515 1196 b 372 1088 399 1196 372 1156 l 315 1088 b 444 1257 315 1194 365 1257 b 632 1138 549 1257 557 1138 b 696 1251 668 1138 696 1181 l 756 1251 b 632 1075 756 1142 706 1075 m 536 -14 b 93 483 271 -14 93 185 b 536 982 93 783 271 982 b 979 483 801 982 979 783 b 536 -14 979 185 801 -14 m 536 81 b 881 483 746 81 881 238 b 536 888 881 731 746 888 b 192 483 326 888 192 731 b 536 81 192 238 326 81 "},"Œ":{"ha":1601,"x_min":0,"x_max":0,"o":"m 981 876 l 981 539 l 1463 539 l 1463 447 l 981 447 l 981 92 l 1517 92 l 1517 0 l 882 0 l 882 153 b 536 -14 804 47 683 -14 b 93 483 271 -14 93 185 b 536 982 93 783 271 982 b 882 814 683 982 804 921 l 882 968 l 1517 968 l 1517 876 m 536 81 b 881 483 746 81 881 238 b 536 888 881 731 746 888 b 192 483 326 888 192 731 b 536 81 192 238 326 81 "},"P":{"ha":824,"x_min":0,"x_max":0,"o":"m 158 968 l 435 968 b 754 697 640 968 754 871 b 435 422 754 521 639 422 l 257 422 l 257 0 l 158 0 m 425 514 b 654 696 576 514 654 576 b 425 876 654 815 576 876 l 257 876 l 257 514 "},"Þ":{"ha":815,"x_min":0,"x_max":0,"o":"m 158 968 l 249 968 l 249 829 l 443 829 b 746 561 633 829 746 729 b 424 285 746 388 626 285 l 249 285 l 249 0 l 158 0 m 424 368 b 654 557 574 368 654 435 b 424 750 654 681 571 750 l 249 750 l 249 368 "},"Q":{"ha":1089,"x_min":0,"x_max":0,"o":"m 932 -75 l 790 64 b 535 -14 719 14 633 -14 b 92 483 269 -14 92 185 b 535 982 92 783 269 982 b 978 483 800 982 978 783 b 856 122 978 333 933 210 l 996 -15 m 535 81 b 719 132 606 81 668 99 l 563 285 l 629 344 l 786 190 b 879 483 846 260 879 361 b 535 888 879 731 744 888 b 190 483 325 888 190 731 b 535 81 190 238 325 81 "},"R":{"ha":879,"x_min":0,"x_max":0,"o":"m 704 0 l 457 429 l 392 429 l 257 429 l 257 0 l 158 0 l 158 968 l 435 968 b 754 700 643 968 754 875 b 556 442 754 564 686 476 l 819 0 m 425 521 b 654 699 578 521 654 581 b 425 876 654 817 578 876 l 257 876 l 257 521 "},"Ŕ":{"ha":879,"x_min":0,"x_max":0,"o":"m 478 1056 l 404 1056 l 554 1251 l 657 1251 m 704 0 l 457 429 l 392 429 l 257 429 l 257 0 l 158 0 l 158 968 l 435 968 b 754 700 643 968 754 875 b 556 442 754 564 686 476 l 819 0 m 425 521 b 654 699 578 521 654 581 b 425 876 654 817 578 876 l 257 876 l 257 521 "},"Ř":{"ha":879,"x_min":0,"x_max":0,"o":"m 440 1039 l 233 1251 l 313 1251 l 440 1119 l 568 1251 l 647 1251 m 704 0 l 457 429 l 392 429 l 257 429 l 257 0 l 158 0 l 158 968 l 435 968 b 754 700 643 968 754 875 b 556 442 754 564 686 476 l 819 0 m 425 521 b 654 699 578 521 654 581 b 425 876 654 817 578 876 l 257 876 l 257 521 "},"Ŗ":{"ha":879,"x_min":0,"x_max":0,"o":"m 819 0 l 704 0 l 457 429 l 392 429 l 257 429 l 257 0 l 158 0 l 158 968 l 435 968 b 754 700 643 968 754 875 b 556 442 754 564 686 476 m 425 521 b 654 699 578 521 654 581 b 425 876 654 817 578 876 l 257 876 l 257 521 m 389 -78 l 490 -78 l 328 -307 l 267 -307 "},"S":{"ha":797,"x_min":0,"x_max":0,"o":"m 408 -14 b 68 256 229 -14 94 93 l 167 279 b 410 75 185 154 279 75 b 621 244 550 75 621 149 b 390 468 621 349 561 403 b 126 738 194 542 126 611 b 401 982 126 885 238 982 b 678 825 524 982 619 928 l 594 774 b 399 893 553 849 482 893 b 225 742 297 893 225 824 b 444 547 225 653 292 606 b 721 253 660 465 721 388 b 408 -14 721 90 608 -14 "},"Ś":{"ha":797,"x_min":0,"x_max":0,"o":"m 513 1251 l 615 1251 l 436 1056 l 363 1056 m 408 -14 b 68 256 229 -14 94 93 l 167 279 b 410 75 185 154 279 75 b 621 244 550 75 621 149 b 390 468 621 349 561 403 b 126 738 194 542 126 611 b 401 982 126 885 238 982 b 678 825 524 982 619 928 l 594 774 b 399 893 553 849 482 893 b 225 742 297 893 225 824 b 444 547 225 653 292 606 b 721 253 660 465 721 388 b 408 -14 721 90 608 -14 "},"Š":{"ha":797,"x_min":0,"x_max":0,"o":"m 192 1251 l 271 1251 l 399 1119 l 526 1251 l 606 1251 l 399 1039 m 408 -14 b 68 256 229 -14 94 93 l 167 279 b 410 75 185 154 279 75 b 621 244 550 75 621 149 b 390 468 621 349 561 403 b 126 738 194 542 126 611 b 401 982 126 885 238 982 b 678 825 524 982 619 928 l 594 774 b 399 893 553 849 482 893 b 225 742 297 893 225 824 b 444 547 225 653 292 606 b 721 253 660 465 721 388 b 408 -14 721 90 608 -14 "},"Ş":{"ha":797,"x_min":0,"x_max":0,"o":"m 721 253 b 419 -14 721 93 613 -10 l 372 -89 b 461 -111 408 -94 436 -100 b 533 -218 507 -132 533 -165 b 390 -354 533 -297 476 -354 b 267 -289 347 -354 297 -332 l 301 -243 b 393 -296 324 -279 360 -296 b 475 -219 444 -296 475 -268 b 399 -140 475 -174 442 -151 b 293 -131 371 -133 335 -131 l 361 -11 b 68 256 206 6 92 107 l 167 279 b 410 75 185 154 279 75 b 621 244 550 75 621 149 b 390 468 621 349 561 403 b 126 738 194 542 126 611 b 401 982 126 885 238 982 b 678 825 524 982 619 928 l 594 774 b 399 893 553 849 482 893 b 225 742 297 893 225 824 b 444 547 225 653 292 606 b 721 253 660 465 721 388 "},"Ș":{"ha":797,"x_min":0,"x_max":0,"o":"m 408 -14 b 68 256 229 -14 94 93 l 167 279 b 410 75 185 154 279 75 b 621 244 550 75 621 149 b 390 468 621 349 561 403 b 126 738 194 542 126 611 b 401 982 126 885 238 982 b 678 825 524 982 619 928 l 594 774 b 399 893 553 849 482 893 b 225 742 297 893 225 824 b 444 547 225 653 292 606 b 721 253 660 465 721 388 b 408 -14 721 90 608 -14 m 347 -78 l 449 -78 l 286 -307 l 225 -307 "},"ẞ":{"ha":964,"x_min":0,"x_max":0,"o":"m 646 -11 b 361 169 504 -11 396 67 l 446 214 b 649 82 476 139 546 82 b 789 192 736 82 789 124 b 403 504 789 374 403 271 b 474 651 403 578 440 614 l 671 872 l 457 872 b 238 613 296 872 238 786 l 238 0 l 139 0 l 139 613 b 457 968 139 758 164 968 l 821 968 l 821 911 l 542 593 b 503 511 522 571 503 546 b 896 197 503 354 896 454 b 646 -11 896 74 794 -11 "},"T":{"ha":865,"x_min":0,"x_max":0,"o":"m 382 876 l 47 876 l 47 968 l 818 968 l 818 876 l 482 876 l 482 0 l 382 0 "},"Ŧ":{"ha":865,"x_min":0,"x_max":0,"o":"m 482 876 l 482 517 l 619 517 l 619 451 l 482 451 l 482 0 l 382 0 l 382 451 l 244 451 l 244 517 l 382 517 l 382 876 l 47 876 l 47 968 l 818 968 l 818 876 "},"Ť":{"ha":865,"x_min":0,"x_max":0,"o":"m 225 1251 l 304 1251 l 432 1119 l 560 1251 l 639 1251 l 432 1039 m 382 876 l 47 876 l 47 968 l 818 968 l 818 876 l 482 876 l 482 0 l 382 0 "},"Ţ":{"ha":865,"x_min":0,"x_max":0,"o":"m 461 0 l 406 -89 b 494 -111 442 -94 469 -100 b 567 -218 540 -132 567 -165 b 424 -354 567 -297 510 -354 b 300 -289 381 -354 331 -332 l 335 -243 b 426 -296 357 -279 393 -296 b 508 -219 478 -296 508 -268 b 432 -140 508 -174 475 -151 b 326 -131 404 -133 368 -131 l 401 0 l 382 0 l 382 876 l 47 876 l 47 968 l 818 968 l 818 876 l 482 876 l 482 0 "},"Ț":{"ha":865,"x_min":0,"x_max":0,"o":"m 382 876 l 47 876 l 47 968 l 818 968 l 818 876 l 482 876 l 482 0 l 382 0 m 381 -78 l 482 -78 l 319 -307 l 258 -307 "},"U":{"ha":971,"x_min":0,"x_max":0,"o":"m 485 -14 b 138 350 260 -14 138 113 l 138 968 l 236 968 l 236 360 b 485 83 236 172 317 83 b 735 364 654 83 735 174 l 735 968 l 833 968 l 833 357 b 485 -14 833 114 711 -14 "},"Ú":{"ha":971,"x_min":0,"x_max":0,"o":"m 600 1251 l 703 1251 l 524 1056 l 450 1056 m 485 -14 b 138 350 260 -14 138 113 l 138 968 l 236 968 l 236 360 b 485 83 236 172 317 83 b 735 364 654 83 735 174 l 735 968 l 833 968 l 833 357 b 485 -14 833 114 711 -14 "},"Ǔ":{"ha":971,"x_min":0,"x_max":0,"o":"m 279 1251 l 358 1251 l 486 1119 l 614 1251 l 693 1251 l 486 1039 m 485 -14 b 138 350 260 -14 138 113 l 138 968 l 236 968 l 236 360 b 485 83 236 172 317 83 b 735 364 654 83 735 174 l 735 968 l 833 968 l 833 357 b 485 -14 833 114 711 -14 "},"Û":{"ha":971,"x_min":0,"x_max":0,"o":"m 486 1265 l 693 1044 l 614 1044 l 486 1181 l 360 1044 l 279 1044 m 485 -14 b 138 350 260 -14 138 113 l 138 968 l 236 968 l 236 360 b 485 83 236 172 317 83 b 735 364 654 83 735 174 l 735 968 l 833 968 l 833 357 b 485 -14 833 114 711 -14 "},"Ü":{"ha":971,"x_min":0,"x_max":0,"o":"m 306 1251 l 417 1251 l 417 1110 l 306 1110 m 556 1251 l 667 1251 l 667 1110 l 556 1110 m 485 -14 b 138 350 260 -14 138 113 l 138 968 l 236 968 l 236 360 b 485 83 236 172 317 83 b 735 364 654 83 735 174 l 735 968 l 833 968 l 833 357 b 485 -14 833 114 711 -14 "},"Ǘ":{"ha":971,"x_min":0,"x_max":0,"o":"m 600 1535 l 703 1535 l 524 1339 l 450 1339 m 306 1251 l 417 1251 l 417 1110 l 306 1110 m 556 1251 l 667 1251 l 667 1110 l 556 1110 m 485 -14 b 138 350 260 -14 138 113 l 138 968 l 236 968 l 236 360 b 485 83 236 172 317 83 b 735 364 654 83 735 174 l 735 968 l 833 968 l 833 357 b 485 -14 833 114 711 -14 "},"Ǚ":{"ha":971,"x_min":0,"x_max":0,"o":"m 279 1535 l 358 1535 l 486 1403 l 614 1535 l 693 1535 l 486 1322 m 306 1251 l 417 1251 l 417 1110 l 306 1110 m 556 1251 l 667 1251 l 667 1110 l 556 1110 m 485 -14 b 138 350 260 -14 138 113 l 138 968 l 236 968 l 236 360 b 485 83 236 172 317 83 b 735 364 654 83 735 174 l 735 968 l 833 968 l 833 357 b 485 -14 833 114 711 -14 "},"Ǜ":{"ha":971,"x_min":0,"x_max":0,"o":"m 276 1535 l 379 1535 l 524 1339 l 449 1339 m 306 1251 l 417 1251 l 417 1110 l 306 1110 m 556 1251 l 667 1251 l 667 1110 l 556 1110 m 485 -14 b 138 350 260 -14 138 113 l 138 968 l 236 968 l 236 360 b 485 83 236 172 317 83 b 735 364 654 83 735 174 l 735 968 l 833 968 l 833 357 b 485 -14 833 114 711 -14 "},"Ǖ":{"ha":971,"x_min":0,"x_max":0,"o":"m 297 1457 l 672 1457 l 672 1399 l 297 1399 m 306 1251 l 417 1251 l 417 1110 l 306 1110 m 556 1251 l 667 1251 l 667 1110 l 556 1110 m 485 -14 b 138 350 260 -14 138 113 l 138 968 l 236 968 l 236 360 b 485 83 236 172 317 83 b 735 364 654 83 735 174 l 735 968 l 833 968 l 833 357 b 485 -14 833 114 711 -14 "},"Ụ":{"ha":971,"x_min":0,"x_max":0,"o":"m 485 -14 b 138 350 260 -14 138 113 l 138 968 l 236 968 l 236 360 b 485 83 236 172 317 83 b 735 364 654 83 735 174 l 735 968 l 833 968 l 833 357 b 485 -14 833 114 711 -14 m 431 -100 l 542 -100 l 542 -240 l 431 -240 "},"Ù":{"ha":971,"x_min":0,"x_max":0,"o":"m 276 1251 l 379 1251 l 524 1056 l 449 1056 m 485 -14 b 138 350 260 -14 138 113 l 138 968 l 236 968 l 236 360 b 485 83 236 172 317 83 b 735 364 654 83 735 174 l 735 968 l 833 968 l 833 357 b 485 -14 833 114 711 -14 "},"Ủ":{"ha":971,"x_min":0,"x_max":0,"o":"m 461 1076 b 572 1147 514 1085 572 1096 b 444 1225 572 1204 510 1225 l 424 1225 l 424 1281 l 444 1281 b 638 1144 556 1281 638 1233 b 478 1022 638 1051 546 1036 m 485 -14 b 138 350 260 -14 138 113 l 138 968 l 236 968 l 236 360 b 485 83 236 172 317 83 b 735 364 654 83 735 174 l 735 968 l 833 968 l 833 357 b 485 -14 833 114 711 -14 "},"Ư":{"ha":971,"x_min":0,"x_max":0,"o":"m 1017 968 l 1017 901 b 833 690 1017 778 963 694 l 833 357 b 485 -14 833 114 711 -14 b 138 350 260 -14 138 113 l 138 968 l 236 968 l 236 360 b 485 83 236 172 317 83 b 735 364 654 83 735 174 l 735 968 l 833 968 l 833 756 b 943 894 914 760 943 818 l 943 968 "},"Ứ":{"ha":971,"x_min":0,"x_max":0,"o":"m 524 1056 l 450 1056 l 600 1251 l 703 1251 m 1017 968 l 1017 901 b 833 690 1017 778 963 694 l 833 357 b 485 -14 833 114 711 -14 b 138 350 260 -14 138 113 l 138 968 l 236 968 l 236 360 b 485 83 236 172 317 83 b 735 364 654 83 735 174 l 735 968 l 833 968 l 833 756 b 943 894 914 760 943 818 l 943 968 "},"Ự":{"ha":971,"x_min":0,"x_max":0,"o":"m 1017 968 l 1017 901 b 833 690 1017 778 963 694 l 833 357 b 485 -14 833 114 711 -14 b 138 350 260 -14 138 113 l 138 968 l 236 968 l 236 360 b 485 83 236 172 317 83 b 735 364 654 83 735 174 l 735 968 l 833 968 l 833 756 b 943 894 914 760 943 818 l 943 968 m 431 -100 l 542 -100 l 542 -240 l 431 -240 "},"Ừ":{"ha":971,"x_min":0,"x_max":0,"o":"m 449 1056 l 276 1251 l 379 1251 l 524 1056 m 1017 968 l 1017 901 b 833 690 1017 778 963 694 l 833 357 b 485 -14 833 114 711 -14 b 138 350 260 -14 138 113 l 138 968 l 236 968 l 236 360 b 485 83 236 172 317 83 b 735 364 654 83 735 174 l 735 968 l 833 968 l 833 756 b 943 894 914 760 943 818 l 943 968 "},"Ử":{"ha":971,"x_min":0,"x_max":0,"o":"m 572 1147 b 444 1225 572 1204 510 1225 l 424 1225 l 424 1281 l 444 1281 b 638 1144 556 1281 638 1233 b 478 1022 638 1051 546 1036 l 461 1076 b 572 1147 514 1085 572 1096 m 1017 968 l 1017 901 b 833 690 1017 778 963 694 l 833 357 b 485 -14 833 114 711 -14 b 138 350 260 -14 138 113 l 138 968 l 236 968 l 236 360 b 485 83 236 172 317 83 b 735 364 654 83 735 174 l 735 968 l 833 968 l 833 756 b 943 894 914 760 943 818 l 943 968 "},"Ữ":{"ha":971,"x_min":0,"x_max":0,"o":"m 392 1196 b 322 1088 349 1196 322 1156 l 265 1088 b 394 1257 265 1194 315 1257 b 582 1138 499 1257 507 1138 b 646 1251 618 1138 646 1181 l 706 1251 b 582 1075 706 1142 656 1075 b 392 1196 467 1075 465 1196 m 1017 968 l 1017 901 b 833 690 1017 778 963 694 l 833 357 b 485 -14 833 114 711 -14 b 138 350 260 -14 138 113 l 138 968 l 236 968 l 236 360 b 485 83 236 172 317 83 b 735 364 654 83 735 174 l 735 968 l 833 968 l 833 756 b 943 894 914 760 943 818 l 943 968 "},"Ű":{"ha":971,"x_min":0,"x_max":0,"o":"m 481 1251 l 568 1251 l 404 1040 l 331 1040 m 717 1251 l 819 1251 l 640 1040 l 567 1040 m 485 -14 b 138 350 260 -14 138 113 l 138 968 l 236 968 l 236 360 b 485 83 236 172 317 83 b 735 364 654 83 735 174 l 735 968 l 833 968 l 833 357 b 485 -14 833 114 711 -14 "},"Ū":{"ha":971,"x_min":0,"x_max":0,"o":"m 297 1174 l 672 1174 l 672 1115 l 297 1115 m 485 -14 b 138 350 260 -14 138 113 l 138 968 l 236 968 l 236 360 b 485 83 236 172 317 83 b 735 364 654 83 735 174 l 735 968 l 833 968 l 833 357 b 485 -14 833 114 711 -14 "},"Ų":{"ha":971,"x_min":0,"x_max":0,"o":"m 833 968 l 833 357 b 572 -7 833 147 743 24 b 443 -172 522 -37 443 -93 b 507 -235 443 -218 474 -235 b 592 -197 539 -235 567 -221 l 639 -235 b 510 -297 606 -272 561 -297 b 383 -181 439 -297 383 -253 b 482 -14 383 -110 432 -51 b 138 350 258 -12 138 114 l 138 968 l 236 968 l 236 360 b 485 83 236 172 317 83 b 735 364 654 83 735 174 l 735 968 "},"Ů":{"ha":971,"x_min":0,"x_max":0,"o":"m 486 947 b 351 1082 411 947 351 1008 b 486 1217 351 1157 413 1217 b 621 1082 558 1217 621 1157 b 486 947 621 1008 561 947 m 486 1001 b 567 1082 532 1001 567 1038 b 486 1163 567 1128 533 1163 b 406 1082 440 1163 406 1128 b 486 1001 406 1038 440 1001 m 485 -14 b 138 350 260 -14 138 113 l 138 968 l 236 968 l 236 360 b 485 83 236 172 317 83 b 735 364 654 83 735 174 l 735 968 l 833 968 l 833 357 b 485 -14 833 114 711 -14 "},"Ũ":{"ha":971,"x_min":0,"x_max":0,"o":"m 582 1075 b 392 1196 467 1075 465 1196 b 322 1088 349 1196 322 1156 l 265 1088 b 394 1257 265 1194 315 1257 b 582 1138 499 1257 507 1138 b 646 1251 618 1138 646 1181 l 706 1251 b 582 1075 706 1142 656 1075 m 485 -14 b 138 350 260 -14 138 113 l 138 968 l 236 968 l 236 360 b 485 83 236 172 317 83 b 735 364 654 83 735 174 l 735 968 l 833 968 l 833 357 b 485 -14 833 114 711 -14 "},"V":{"ha":946,"x_min":0,"x_max":0,"o":"m 896 968 l 514 0 l 433 0 l 50 968 l 160 968 l 474 154 l 788 968 "},"W":{"ha":1371,"x_min":0,"x_max":0,"o":"m 58 968 l 161 968 l 394 147 l 642 917 l 729 917 l 976 147 l 1208 968 l 1313 968 l 1032 0 l 932 0 l 686 760 l 439 0 l 339 0 "},"Ẃ":{"ha":1371,"x_min":0,"x_max":0,"o":"m 800 1251 l 903 1251 l 724 1056 l 650 1056 m 58 968 l 161 968 l 394 147 l 642 917 l 729 917 l 976 147 l 1208 968 l 1313 968 l 1032 0 l 932 0 l 686 760 l 439 0 l 339 0 "},"Ŵ":{"ha":1371,"x_min":0,"x_max":0,"o":"m 686 1265 l 893 1044 l 814 1044 l 686 1181 l 560 1044 l 479 1044 m 58 968 l 161 968 l 394 147 l 642 917 l 729 917 l 976 147 l 1208 968 l 1313 968 l 1032 0 l 932 0 l 686 760 l 439 0 l 339 0 "},"Ẅ":{"ha":1371,"x_min":0,"x_max":0,"o":"m 506 1251 l 617 1251 l 617 1110 l 506 1110 m 756 1251 l 867 1251 l 867 1110 l 756 1110 m 58 968 l 161 968 l 394 147 l 642 917 l 729 917 l 976 147 l 1208 968 l 1313 968 l 1032 0 l 932 0 l 686 760 l 439 0 l 339 0 "},"Ẁ":{"ha":1371,"x_min":0,"x_max":0,"o":"m 476 1251 l 579 1251 l 724 1056 l 649 1056 m 58 968 l 161 968 l 394 147 l 642 917 l 729 917 l 976 147 l 1208 968 l 1313 968 l 1032 0 l 932 0 l 686 760 l 439 0 l 339 0 "},"X":{"ha":919,"x_min":0,"x_max":0,"o":"m 392 488 l 61 968 l 181 968 l 460 557 l 740 968 l 858 968 l 528 488 l 865 0 l 746 0 l 458 415 l 175 0 l 56 0 "},"Y":{"ha":922,"x_min":0,"x_max":0,"o":"m 411 371 l 42 968 l 158 968 l 460 467 l 763 968 l 881 968 l 511 371 l 511 0 l 411 0 "},"Ý":{"ha":922,"x_min":0,"x_max":0,"o":"m 575 1251 l 678 1251 l 499 1056 l 425 1056 m 411 371 l 42 968 l 158 968 l 460 467 l 763 968 l 881 968 l 511 371 l 511 0 l 411 0 "},"Ŷ":{"ha":922,"x_min":0,"x_max":0,"o":"m 461 1265 l 668 1044 l 589 1044 l 461 1181 l 335 1044 l 254 1044 m 411 371 l 42 968 l 158 968 l 460 467 l 763 968 l 881 968 l 511 371 l 511 0 l 411 0 "},"Ÿ":{"ha":922,"x_min":0,"x_max":0,"o":"m 281 1251 l 392 1251 l 392 1110 l 281 1110 m 531 1251 l 642 1251 l 642 1110 l 531 1110 m 411 371 l 42 968 l 158 968 l 460 467 l 763 968 l 881 968 l 511 371 l 511 0 l 411 0 "},"Ỵ":{"ha":922,"x_min":0,"x_max":0,"o":"m 411 371 l 42 968 l 158 968 l 460 467 l 763 968 l 881 968 l 511 371 l 511 0 l 411 0 m 406 -100 l 517 -100 l 517 -240 l 406 -240 "},"Ỳ":{"ha":922,"x_min":0,"x_max":0,"o":"m 251 1251 l 354 1251 l 499 1056 l 424 1056 m 411 371 l 42 968 l 158 968 l 460 467 l 763 968 l 881 968 l 511 371 l 511 0 l 411 0 "},"Ỷ":{"ha":922,"x_min":0,"x_max":0,"o":"m 436 1076 b 547 1147 489 1085 547 1096 b 419 1225 547 1204 485 1225 l 399 1225 l 399 1281 l 419 1281 b 613 1144 531 1281 613 1233 b 453 1022 613 1051 521 1036 m 411 371 l 42 968 l 158 968 l 460 467 l 763 968 l 881 968 l 511 371 l 511 0 l 411 0 "},"Ỹ":{"ha":922,"x_min":0,"x_max":0,"o":"m 557 1075 b 367 1196 442 1075 440 1196 b 297 1088 324 1196 297 1156 l 240 1088 b 369 1257 240 1194 290 1257 b 557 1138 474 1257 482 1138 b 621 1251 593 1138 621 1181 l 681 1251 b 557 1075 681 1142 631 1075 m 411 371 l 42 968 l 158 968 l 460 467 l 763 968 l 881 968 l 511 371 l 511 0 l 411 0 "},"Z":{"ha":900,"x_min":0,"x_max":0,"o":"m 828 890 l 196 92 l 825 92 l 825 0 l 64 0 l 64 75 l 700 876 l 96 876 l 96 968 l 828 968 "},"Ź":{"ha":900,"x_min":0,"x_max":0,"o":"m 488 1056 l 414 1056 l 564 1251 l 667 1251 m 828 890 l 196 92 l 825 92 l 825 0 l 64 0 l 64 75 l 700 876 l 96 876 l 96 968 l 828 968 "},"Ž":{"ha":900,"x_min":0,"x_max":0,"o":"m 450 1039 l 243 1251 l 322 1251 l 450 1119 l 578 1251 l 657 1251 m 828 890 l 196 92 l 825 92 l 825 0 l 64 0 l 64 75 l 700 876 l 96 876 l 96 968 l 828 968 "},"Ż":{"ha":900,"x_min":0,"x_max":0,"o":"m 506 1110 l 394 1110 l 394 1251 l 506 1251 m 828 890 l 196 92 l 825 92 l 825 0 l 64 0 l 64 75 l 700 876 l 96 876 l 96 968 l 828 968 "},"a":{"ha":743,"x_min":0,"x_max":0,"o":"m 364 696 b 636 426 536 696 636 597 l 636 0 l 549 0 l 543 106 b 297 -11 489 29 406 -11 b 61 199 149 -11 61 67 b 139 351 61 268 89 321 b 400 394 192 382 265 394 l 540 394 l 540 426 b 363 611 540 546 478 611 b 154 497 276 611 210 574 l 85 556 b 364 696 158 651 247 696 m 325 68 b 540 307 457 68 540 161 l 540 317 l 408 317 b 194 282 282 317 228 308 b 157 193 169 263 157 232 b 325 68 157 117 222 68 "},"á":{"ha":743,"x_min":0,"x_max":0,"o":"m 404 772 l 331 772 l 481 968 l 583 968 m 364 696 b 636 426 536 696 636 597 l 636 0 l 549 0 l 543 106 b 297 -11 489 29 406 -11 b 61 199 149 -11 61 67 b 139 351 61 268 89 321 b 400 394 192 382 265 394 l 540 394 l 540 426 b 363 611 540 546 478 611 b 154 497 276 611 210 574 l 85 556 b 364 696 158 651 247 696 m 325 68 b 540 307 457 68 540 161 l 540 317 l 408 317 b 194 282 282 317 228 308 b 157 193 169 263 157 232 b 325 68 157 117 222 68 "},"ă":{"ha":743,"x_min":0,"x_max":0,"o":"m 367 786 b 157 968 226 786 157 850 l 226 968 b 367 844 226 886 282 844 b 507 968 454 844 507 889 l 576 968 b 367 786 576 847 501 786 m 364 696 b 636 426 536 696 636 597 l 636 0 l 549 0 l 543 106 b 297 -11 489 29 406 -11 b 61 199 149 -11 61 67 b 139 351 61 268 89 321 b 400 394 192 382 265 394 l 540 394 l 540 426 b 363 611 540 546 478 611 b 154 497 276 611 210 574 l 85 556 b 364 696 158 651 247 696 m 325 68 b 540 307 457 68 540 161 l 540 317 l 408 317 b 194 282 282 317 228 308 b 157 193 169 263 157 232 b 325 68 157 117 222 68 "},"ắ":{"ha":743,"x_min":0,"x_max":0,"o":"m 404 1056 l 331 1056 l 481 1251 l 583 1251 m 367 786 b 157 968 226 786 157 850 l 226 968 b 367 844 226 886 282 844 b 507 968 454 844 507 889 l 576 968 b 367 786 576 847 501 786 m 364 696 b 636 426 536 696 636 597 l 636 0 l 549 0 l 543 106 b 297 -11 489 29 406 -11 b 61 199 149 -11 61 67 b 139 351 61 268 89 321 b 400 394 192 382 265 394 l 540 394 l 540 426 b 363 611 540 546 478 611 b 154 497 276 611 210 574 l 85 556 b 364 696 158 651 247 696 m 325 68 b 540 307 457 68 540 161 l 540 317 l 408 317 b 194 282 282 317 228 308 b 157 193 169 263 157 232 b 325 68 157 117 222 68 "},"ặ":{"ha":743,"x_min":0,"x_max":0,"o":"m 367 786 b 157 968 226 786 157 850 l 226 968 b 367 844 226 886 282 844 b 507 968 454 844 507 889 l 576 968 b 367 786 576 847 501 786 m 364 696 b 636 426 536 696 636 597 l 636 0 l 549 0 l 543 106 b 297 -11 489 29 406 -11 b 61 199 149 -11 61 67 b 139 351 61 268 89 321 b 400 394 192 382 265 394 l 540 394 l 540 426 b 363 611 540 546 478 611 b 154 497 276 611 210 574 l 85 556 b 364 696 158 651 247 696 m 325 68 b 540 307 457 68 540 161 l 540 317 l 408 317 b 194 282 282 317 228 308 b 157 193 169 263 157 232 b 325 68 157 117 222 68 m 311 -100 l 422 -100 l 422 -240 l 311 -240 "},"ằ":{"ha":743,"x_min":0,"x_max":0,"o":"m 329 1056 l 157 1251 l 260 1251 l 404 1056 m 367 786 b 157 968 226 786 157 850 l 226 968 b 367 844 226 886 282 844 b 507 968 454 844 507 889 l 576 968 b 367 786 576 847 501 786 m 364 696 b 636 426 536 696 636 597 l 636 0 l 549 0 l 543 106 b 297 -11 489 29 406 -11 b 61 199 149 -11 61 67 b 139 351 61 268 89 321 b 400 394 192 382 265 394 l 540 394 l 540 426 b 363 611 540 546 478 611 b 154 497 276 611 210 574 l 85 556 b 364 696 158 651 247 696 m 325 68 b 540 307 457 68 540 161 l 540 317 l 408 317 b 194 282 282 317 228 308 b 157 193 169 263 157 232 b 325 68 157 117 222 68 "},"ẳ":{"ha":743,"x_min":0,"x_max":0,"o":"m 453 1147 b 325 1225 453 1204 390 1225 l 304 1225 l 304 1281 l 325 1281 b 518 1144 436 1281 518 1233 b 358 1022 518 1051 426 1036 l 342 1076 b 453 1147 394 1085 453 1096 m 367 786 b 157 968 226 786 157 850 l 226 968 b 367 844 226 886 282 844 b 507 968 454 844 507 889 l 576 968 b 367 786 576 847 501 786 m 364 696 b 636 426 536 696 636 597 l 636 0 l 549 0 l 543 106 b 297 -11 489 29 406 -11 b 61 199 149 -11 61 67 b 139 351 61 268 89 321 b 400 394 192 382 265 394 l 540 394 l 540 426 b 363 611 540 546 478 611 b 154 497 276 611 210 574 l 85 556 b 364 696 158 651 247 696 m 325 68 b 540 307 457 68 540 161 l 540 317 l 408 317 b 194 282 282 317 228 308 b 157 193 169 263 157 232 b 325 68 157 117 222 68 "},"ẵ":{"ha":743,"x_min":0,"x_max":0,"o":"m 272 1196 b 203 1088 229 1196 203 1156 l 146 1088 b 275 1257 146 1194 196 1257 b 463 1138 379 1257 388 1138 b 526 1251 499 1138 526 1181 l 586 1251 b 463 1075 586 1142 536 1075 b 272 1196 347 1075 346 1196 m 367 844 b 507 968 454 844 507 889 l 576 968 b 367 786 576 847 501 786 b 157 968 226 786 157 850 l 226 968 b 367 844 226 886 282 844 m 364 696 b 636 426 536 696 636 597 l 636 0 l 549 0 l 543 106 b 297 -11 489 29 406 -11 b 61 199 149 -11 61 67 b 139 351 61 268 89 321 b 400 394 192 382 265 394 l 540 394 l 540 426 b 363 611 540 546 478 611 b 154 497 276 611 210 574 l 85 556 b 364 696 158 651 247 696 m 325 68 b 540 307 457 68 540 161 l 540 317 l 408 317 b 194 282 282 317 228 308 b 157 193 169 263 157 232 b 325 68 157 117 222 68 "},"ǎ":{"ha":743,"x_min":0,"x_max":0,"o":"m 367 756 l 160 968 l 239 968 l 367 836 l 494 968 l 574 968 m 364 696 b 636 426 536 696 636 597 l 636 0 l 549 0 l 543 106 b 297 -11 489 29 406 -11 b 61 199 149 -11 61 67 b 139 351 61 268 89 321 b 400 394 192 382 265 394 l 540 394 l 540 426 b 363 611 540 546 478 611 b 154 497 276 611 210 574 l 85 556 b 364 696 158 651 247 696 m 325 68 b 540 307 457 68 540 161 l 540 317 l 408 317 b 194 282 282 317 228 308 b 157 193 169 263 157 232 b 325 68 157 117 222 68 "},"â":{"ha":743,"x_min":0,"x_max":0,"o":"m 240 761 l 160 761 l 367 982 l 574 761 l 494 761 l 367 897 m 364 696 b 636 426 536 696 636 597 l 636 0 l 549 0 l 543 106 b 297 -11 489 29 406 -11 b 61 199 149 -11 61 67 b 139 351 61 268 89 321 b 400 394 192 382 265 394 l 540 394 l 540 426 b 363 611 540 546 478 611 b 154 497 276 611 210 574 l 85 556 b 364 696 158 651 247 696 m 325 68 b 540 307 457 68 540 161 l 540 317 l 408 317 b 194 282 282 317 228 308 b 157 193 169 263 157 232 b 325 68 157 117 222 68 "},"ấ":{"ha":743,"x_min":0,"x_max":0,"o":"m 404 1035 l 331 1035 l 481 1231 l 583 1231 m 240 761 l 160 761 l 367 982 l 574 761 l 494 761 l 367 897 m 364 696 b 636 426 536 696 636 597 l 636 0 l 549 0 l 543 106 b 297 -11 489 29 406 -11 b 61 199 149 -11 61 67 b 139 351 61 268 89 321 b 400 394 192 382 265 394 l 540 394 l 540 426 b 363 611 540 546 478 611 b 154 497 276 611 210 574 l 85 556 b 364 696 158 651 247 696 m 325 68 b 540 307 457 68 540 161 l 540 317 l 408 317 b 194 282 282 317 228 308 b 157 193 169 263 157 232 b 325 68 157 117 222 68 "},"ậ":{"ha":743,"x_min":0,"x_max":0,"o":"m 240 761 l 160 761 l 367 982 l 574 761 l 494 761 l 367 897 m 364 696 b 636 426 536 696 636 597 l 636 0 l 549 0 l 543 106 b 297 -11 489 29 406 -11 b 61 199 149 -11 61 67 b 139 351 61 268 89 321 b 400 394 192 382 265 394 l 540 394 l 540 426 b 363 611 540 546 478 611 b 154 497 276 611 210 574 l 85 556 b 364 696 158 651 247 696 m 325 68 b 540 307 457 68 540 161 l 540 317 l 408 317 b 194 282 282 317 228 308 b 157 193 169 263 157 232 b 325 68 157 117 222 68 m 311 -100 l 422 -100 l 422 -240 l 311 -240 "},"ầ":{"ha":743,"x_min":0,"x_max":0,"o":"m 329 1035 l 157 1231 l 260 1231 l 404 1035 m 367 982 l 574 761 l 494 761 l 367 897 l 240 761 l 160 761 m 364 696 b 636 426 536 696 636 597 l 636 0 l 549 0 l 543 106 b 297 -11 489 29 406 -11 b 61 199 149 -11 61 67 b 139 351 61 268 89 321 b 400 394 192 382 265 394 l 540 394 l 540 426 b 363 611 540 546 478 611 b 154 497 276 611 210 574 l 85 556 b 364 696 158 651 247 696 m 325 68 b 540 307 457 68 540 161 l 540 317 l 408 317 b 194 282 282 317 228 308 b 157 193 169 263 157 232 b 325 68 157 117 222 68 "},"ẩ":{"ha":743,"x_min":0,"x_max":0,"o":"m 453 1126 b 325 1204 453 1183 390 1204 l 304 1204 l 304 1260 l 325 1260 b 518 1124 436 1260 518 1213 b 358 1001 518 1031 426 1015 l 342 1056 b 453 1126 394 1064 453 1075 m 240 761 l 160 761 l 367 982 l 574 761 l 494 761 l 367 897 m 364 696 b 636 426 536 696 636 597 l 636 0 l 549 0 l 543 106 b 297 -11 489 29 406 -11 b 61 199 149 -11 61 67 b 139 351 61 268 89 321 b 400 394 192 382 265 394 l 540 394 l 540 426 b 363 611 540 546 478 611 b 154 497 276 611 210 574 l 85 556 b 364 696 158 651 247 696 m 325 68 b 540 307 457 68 540 161 l 540 317 l 408 317 b 194 282 282 317 228 308 b 157 193 169 263 157 232 b 325 68 157 117 222 68 "},"ẫ":{"ha":743,"x_min":0,"x_max":0,"o":"m 272 1175 b 203 1067 229 1175 203 1135 l 146 1067 b 275 1236 146 1174 196 1236 b 463 1117 379 1236 388 1117 b 526 1231 499 1117 526 1160 l 586 1231 b 463 1054 586 1121 536 1054 b 272 1175 347 1054 346 1175 m 367 982 l 574 761 l 494 761 l 367 897 l 240 761 l 160 761 m 364 696 b 636 426 536 696 636 597 l 636 0 l 549 0 l 543 106 b 297 -11 489 29 406 -11 b 61 199 149 -11 61 67 b 139 351 61 268 89 321 b 400 394 192 382 265 394 l 540 394 l 540 426 b 363 611 540 546 478 611 b 154 497 276 611 210 574 l 85 556 b 364 696 158 651 247 696 m 325 68 b 540 307 457 68 540 161 l 540 317 l 408 317 b 194 282 282 317 228 308 b 157 193 169 263 157 232 b 325 68 157 117 222 68 "},"ä":{"ha":743,"x_min":0,"x_max":0,"o":"m 297 826 l 186 826 l 186 968 l 297 968 m 547 826 l 436 826 l 436 968 l 547 968 m 364 696 b 636 426 536 696 636 597 l 636 0 l 549 0 l 543 106 b 297 -11 489 29 406 -11 b 61 199 149 -11 61 67 b 139 351 61 268 89 321 b 400 394 192 382 265 394 l 540 394 l 540 426 b 363 611 540 546 478 611 b 154 497 276 611 210 574 l 85 556 b 364 696 158 651 247 696 m 325 68 b 540 307 457 68 540 161 l 540 317 l 408 317 b 194 282 282 317 228 308 b 157 193 169 263 157 232 b 325 68 157 117 222 68 "},"ạ":{"ha":743,"x_min":0,"x_max":0,"o":"m 364 696 b 636 426 536 696 636 597 l 636 0 l 549 0 l 543 106 b 297 -11 489 29 406 -11 b 61 199 149 -11 61 67 b 139 351 61 268 89 321 b 400 394 192 382 265 394 l 540 394 l 540 426 b 363 611 540 546 478 611 b 154 497 276 611 210 574 l 85 556 b 364 696 158 651 247 696 m 325 68 b 540 307 457 68 540 161 l 540 317 l 408 317 b 194 282 282 317 228 308 b 157 193 169 263 157 232 b 325 68 157 117 222 68 m 311 -100 l 422 -100 l 422 -240 l 311 -240 "},"à":{"ha":743,"x_min":0,"x_max":0,"o":"m 329 772 l 157 968 l 260 968 l 404 772 m 364 696 b 636 426 536 696 636 597 l 636 0 l 549 0 l 543 106 b 297 -11 489 29 406 -11 b 61 199 149 -11 61 67 b 139 351 61 268 89 321 b 400 394 192 382 265 394 l 540 394 l 540 426 b 363 611 540 546 478 611 b 154 497 276 611 210 574 l 85 556 b 364 696 158 651 247 696 m 325 68 b 540 307 457 68 540 161 l 540 317 l 408 317 b 194 282 282 317 228 308 b 157 193 169 263 157 232 b 325 68 157 117 222 68 "},"ả":{"ha":743,"x_min":0,"x_max":0,"o":"m 453 864 b 325 942 453 921 390 942 l 304 942 l 304 997 l 325 997 b 518 861 436 997 518 950 b 358 739 518 768 426 753 l 342 793 b 453 864 394 801 453 813 m 364 696 b 636 426 536 696 636 597 l 636 0 l 549 0 l 543 106 b 297 -11 489 29 406 -11 b 61 199 149 -11 61 67 b 139 351 61 268 89 321 b 400 394 192 382 265 394 l 540 394 l 540 426 b 363 611 540 546 478 611 b 154 497 276 611 210 574 l 85 556 b 364 696 158 651 247 696 m 325 68 b 540 307 457 68 540 161 l 540 317 l 408 317 b 194 282 282 317 228 308 b 157 193 169 263 157 232 b 325 68 157 117 222 68 "},"ā":{"ha":743,"x_min":0,"x_max":0,"o":"m 553 832 l 178 832 l 178 890 l 553 890 m 364 696 b 636 426 536 696 636 597 l 636 0 l 549 0 l 543 106 b 297 -11 489 29 406 -11 b 61 199 149 -11 61 67 b 139 351 61 268 89 321 b 400 394 192 382 265 394 l 540 394 l 540 426 b 363 611 540 546 478 611 b 154 497 276 611 210 574 l 85 556 b 364 696 158 651 247 696 m 325 68 b 540 307 457 68 540 161 l 540 317 l 408 317 b 194 282 282 317 228 308 b 157 193 169 263 157 232 b 325 68 157 117 222 68 "},"ą":{"ha":743,"x_min":0,"x_max":0,"o":"m 692 -235 b 563 -297 658 -272 614 -297 b 436 -181 492 -297 436 -253 b 556 0 436 -100 499 -36 l 549 0 l 543 106 b 297 -11 489 29 406 -11 b 61 199 149 -11 61 67 b 139 351 61 268 89 321 b 400 394 192 382 265 394 l 540 394 l 540 426 b 363 611 540 546 478 611 b 154 497 276 611 210 574 l 85 556 b 364 696 158 651 247 696 b 636 426 536 696 636 597 l 636 0 b 496 -172 588 -29 496 -87 b 560 -235 496 -218 526 -235 b 644 -197 592 -235 619 -221 m 325 68 b 540 307 457 68 540 161 l 540 317 l 408 317 b 194 282 282 317 228 308 b 157 193 169 263 157 232 b 325 68 157 117 222 68 "},"å":{"ha":743,"x_min":0,"x_max":0,"o":"m 367 749 b 232 883 292 749 232 810 b 367 1018 232 958 293 1018 b 501 883 439 1018 501 958 b 367 749 501 810 442 749 m 367 964 b 286 883 321 964 286 929 b 367 803 286 839 321 803 b 447 883 413 803 447 839 b 367 964 447 929 414 964 m 364 696 b 636 426 536 696 636 597 l 636 0 l 549 0 l 543 106 b 297 -11 489 29 406 -11 b 61 199 149 -11 61 67 b 139 351 61 268 89 321 b 400 394 192 382 265 394 l 540 394 l 540 426 b 363 611 540 546 478 611 b 154 497 276 611 210 574 l 85 556 b 364 696 158 651 247 696 m 325 68 b 540 307 457 68 540 161 l 540 317 l 408 317 b 194 282 282 317 228 308 b 157 193 169 263 157 232 b 325 68 157 117 222 68 "},"ã":{"ha":743,"x_min":0,"x_max":0,"o":"m 272 913 b 203 804 229 913 203 872 l 146 804 b 275 974 146 911 196 974 b 463 854 379 974 388 854 b 526 968 499 854 526 897 l 586 968 b 463 792 586 858 536 792 b 272 913 347 792 346 913 m 364 696 b 636 426 536 696 636 597 l 636 0 l 549 0 l 543 106 b 297 -11 489 29 406 -11 b 61 199 149 -11 61 67 b 139 351 61 268 89 321 b 400 394 192 382 265 394 l 540 394 l 540 426 b 363 611 540 546 478 611 b 154 497 276 611 210 574 l 85 556 b 364 696 158 651 247 696 m 325 68 b 540 307 457 68 540 161 l 540 317 l 408 317 b 194 282 282 317 228 308 b 157 193 169 263 157 232 b 325 68 157 117 222 68 "},"æ":{"ha":1196,"x_min":0,"x_max":0,"o":"m 301 -11 b 60 197 147 -11 60 75 b 368 396 60 365 228 396 l 542 396 l 542 426 b 364 611 542 546 478 611 b 156 497 274 611 208 571 l 85 556 b 369 696 157 649 247 696 b 604 535 493 696 578 639 b 842 692 646 626 722 692 b 1128 383 1050 692 1128 538 b 1124 317 1128 360 1126 335 l 631 317 b 843 78 636 167 708 78 b 1040 163 929 78 983 103 l 1108 104 b 843 -8 1028 22 951 -8 b 576 179 706 -8 613 64 l 565 179 b 301 -11 507 32 407 -11 m 1038 388 b 1031 450 1039 410 1033 433 b 836 611 1015 524 961 611 b 631 388 710 611 633 511 m 313 71 b 542 308 429 71 524 147 l 542 325 l 374 325 b 157 196 219 325 157 275 b 313 71 157 121 215 71 "},"b":{"ha":825,"x_min":0,"x_max":0,"o":"m 449 697 b 753 343 639 697 753 557 b 449 -11 753 139 649 -11 b 222 92 349 -11 272 28 l 222 0 l 126 0 l 126 968 l 222 968 l 222 593 b 449 697 274 660 351 697 m 435 74 b 657 343 581 74 657 188 b 435 613 657 506 574 613 b 214 343 297 613 214 506 b 435 74 214 188 290 74 "},"c":{"ha":706,"x_min":0,"x_max":0,"o":"m 379 -11 b 69 340 181 -11 69 150 b 378 696 69 521 171 696 b 656 507 500 696 601 635 l 564 471 b 378 611 532 558 464 611 b 167 340 232 611 167 481 b 379 74 167 200 232 74 b 560 213 465 74 533 125 l 649 179 b 379 -11 603 54 503 -11 "},"ć":{"ha":706,"x_min":0,"x_max":0,"o":"m 467 968 l 569 968 l 390 772 l 317 772 m 379 -11 b 69 340 181 -11 69 150 b 378 696 69 521 171 696 b 656 507 500 696 601 635 l 564 471 b 378 611 532 558 464 611 b 167 340 232 611 167 481 b 379 74 167 200 232 74 b 560 213 465 74 533 125 l 649 179 b 379 -11 603 54 503 -11 "},"č":{"ha":706,"x_min":0,"x_max":0,"o":"m 146 968 l 225 968 l 353 836 l 481 968 l 560 968 l 353 756 m 379 -11 b 69 340 181 -11 69 150 b 378 696 69 521 171 696 b 656 507 500 696 601 635 l 564 471 b 378 611 532 558 464 611 b 167 340 232 611 167 481 b 379 74 167 200 232 74 b 560 213 465 74 533 125 l 649 179 b 379 -11 603 54 503 -11 "},"ç":{"ha":706,"x_min":0,"x_max":0,"o":"m 379 74 b 560 213 465 74 533 125 l 649 179 b 379 -11 603 54 503 -11 l 375 -11 l 326 -89 b 415 -111 363 -94 390 -100 b 488 -218 461 -132 488 -165 b 344 -354 488 -297 431 -354 b 221 -289 301 -354 251 -332 l 256 -243 b 347 -296 278 -279 314 -296 b 429 -219 399 -296 429 -268 b 353 -140 429 -174 396 -151 b 247 -131 325 -133 289 -131 l 319 -6 b 69 340 158 24 69 171 b 378 696 69 521 171 696 b 656 507 500 696 601 635 l 564 471 b 378 611 532 558 464 611 b 167 340 232 611 167 481 b 379 74 167 200 232 74 "},"ċ":{"ha":706,"x_min":0,"x_max":0,"o":"m 297 968 l 408 968 l 408 826 l 297 826 m 379 -11 b 69 340 181 -11 69 150 b 378 696 69 521 171 696 b 656 507 500 696 601 635 l 564 471 b 378 611 532 558 464 611 b 167 340 232 611 167 481 b 379 74 167 200 232 74 b 560 213 465 74 533 125 l 649 179 b 379 -11 603 54 503 -11 "},"d":{"ha":825,"x_min":0,"x_max":0,"o":"m 699 968 l 699 0 l 603 0 l 603 92 b 376 -11 553 28 476 -11 b 72 343 176 -11 72 139 b 376 697 72 557 186 697 b 603 593 474 697 551 660 l 603 968 m 390 74 b 611 343 535 74 611 188 b 390 613 611 506 528 613 b 168 343 251 613 168 506 b 390 74 168 188 244 74 "},"ð":{"ha":844,"x_min":0,"x_max":0,"o":"m 649 851 b 764 471 735 754 764 618 b 367 -8 764 229 632 -8 b 67 300 182 -8 67 119 b 442 699 67 536 236 699 b 665 601 540 699 617 667 b 569 826 658 699 625 774 l 357 761 l 340 814 l 517 869 b 253 938 449 913 358 933 l 260 1003 b 601 896 414 996 525 957 l 761 946 l 779 892 m 660 347 b 453 619 674 464 618 619 b 156 301 267 619 156 474 b 372 75 156 158 250 75 b 660 347 549 75 644 217 "},"ď":{"ha":825,"x_min":0,"x_max":0,"o":"m 603 968 l 699 968 l 699 0 l 603 0 l 603 92 b 376 -11 553 28 476 -11 b 72 343 176 -11 72 139 b 376 697 72 557 186 697 b 603 593 474 697 551 660 m 942 968 l 819 679 l 761 679 l 842 968 m 390 74 b 611 343 535 74 611 188 b 390 613 611 506 528 613 b 168 343 251 613 168 506 b 390 74 168 188 244 74 "},"đ":{"ha":825,"x_min":0,"x_max":0,"o":"m 781 811 l 699 811 l 699 0 l 603 0 l 603 92 b 376 -11 553 28 476 -11 b 72 343 176 -11 72 139 b 376 697 72 557 186 697 b 603 593 474 697 551 660 l 603 811 l 406 811 l 406 876 l 603 876 l 603 968 l 699 968 l 699 876 l 781 876 m 390 74 b 611 343 535 74 611 188 b 390 613 611 506 528 613 b 168 343 251 613 168 506 b 390 74 168 188 244 74 "},"e":{"ha":739,"x_min":0,"x_max":0,"o":"m 672 376 b 668 317 672 357 671 333 l 167 317 b 388 76 169 167 253 76 b 585 163 463 76 522 96 l 651 104 b 386 -11 571 19 492 -11 b 71 339 178 -11 71 144 b 375 696 71 532 176 696 b 672 376 585 696 672 532 m 375 615 b 167 397 251 615 175 518 l 581 397 b 579 419 581 400 579 407 b 375 615 572 531 501 615 "},"é":{"ha":739,"x_min":0,"x_max":0,"o":"m 414 772 l 340 772 l 490 968 l 593 968 m 672 376 b 668 317 672 357 671 333 l 167 317 b 388 76 169 167 253 76 b 585 163 463 76 522 96 l 651 104 b 386 -11 571 19 492 -11 b 71 339 178 -11 71 144 b 375 696 71 532 176 696 b 672 376 585 696 672 532 m 375 615 b 167 397 251 615 175 518 l 581 397 b 579 419 581 400 579 407 b 375 615 572 531 501 615 "},"ě":{"ha":739,"x_min":0,"x_max":0,"o":"m 376 756 l 169 968 l 249 968 l 376 836 l 504 968 l 583 968 m 672 376 b 668 317 672 357 671 333 l 167 317 b 388 76 169 167 253 76 b 585 163 463 76 522 96 l 651 104 b 386 -11 571 19 492 -11 b 71 339 178 -11 71 144 b 375 696 71 532 176 696 b 672 376 585 696 672 532 m 375 615 b 167 397 251 615 175 518 l 581 397 b 579 419 581 400 579 407 b 375 615 572 531 501 615 "},"ê":{"ha":739,"x_min":0,"x_max":0,"o":"m 250 761 l 169 761 l 376 982 l 583 761 l 504 761 l 376 897 m 672 376 b 668 317 672 357 671 333 l 167 317 b 388 76 169 167 253 76 b 585 163 463 76 522 96 l 651 104 b 386 -11 571 19 492 -11 b 71 339 178 -11 71 144 b 375 696 71 532 176 696 b 672 376 585 696 672 532 m 375 615 b 167 397 251 615 175 518 l 581 397 b 579 419 581 400 579 407 b 375 615 572 531 501 615 "},"ế":{"ha":739,"x_min":0,"x_max":0,"o":"m 414 1035 l 340 1035 l 490 1231 l 593 1231 m 250 761 l 169 761 l 376 982 l 583 761 l 504 761 l 376 897 m 672 376 b 668 317 672 357 671 333 l 167 317 b 388 76 169 167 253 76 b 585 163 463 76 522 96 l 651 104 b 386 -11 571 19 492 -11 b 71 339 178 -11 71 144 b 375 696 71 532 176 696 b 672 376 585 696 672 532 m 375 615 b 167 397 251 615 175 518 l 581 397 b 579 419 581 400 579 407 b 375 615 572 531 501 615 "},"ệ":{"ha":739,"x_min":0,"x_max":0,"o":"m 250 761 l 169 761 l 376 982 l 583 761 l 504 761 l 376 897 m 672 376 b 668 317 672 357 671 333 l 167 317 b 388 76 169 167 253 76 b 585 163 463 76 522 96 l 651 104 b 386 -11 571 19 492 -11 b 71 339 178 -11 71 144 b 375 696 71 532 176 696 b 672 376 585 696 672 532 m 375 615 b 167 397 251 615 175 518 l 581 397 b 579 419 581 400 579 407 b 375 615 572 531 501 615 m 331 -100 l 442 -100 l 442 -240 l 331 -240 "},"ề":{"ha":739,"x_min":0,"x_max":0,"o":"m 339 1035 l 167 1231 l 269 1231 l 414 1035 m 376 982 l 583 761 l 504 761 l 376 897 l 250 761 l 169 761 m 672 376 b 668 317 672 357 671 333 l 167 317 b 388 76 169 167 253 76 b 585 163 463 76 522 96 l 651 104 b 386 -11 571 19 492 -11 b 71 339 178 -11 71 144 b 375 696 71 532 176 696 b 672 376 585 696 672 532 m 375 615 b 167 397 251 615 175 518 l 581 397 b 579 419 581 400 579 407 b 375 615 572 531 501 615 "},"ể":{"ha":739,"x_min":0,"x_max":0,"o":"m 463 1126 b 335 1204 463 1183 400 1204 l 314 1204 l 314 1260 l 335 1260 b 528 1124 446 1260 528 1213 b 368 1001 528 1031 436 1015 l 351 1056 b 463 1126 404 1064 463 1075 m 250 761 l 169 761 l 376 982 l 583 761 l 504 761 l 376 897 m 672 376 b 668 317 672 357 671 333 l 167 317 b 388 76 169 167 253 76 b 585 163 463 76 522 96 l 651 104 b 386 -11 571 19 492 -11 b 71 339 178 -11 71 144 b 375 696 71 532 176 696 b 672 376 585 696 672 532 m 375 615 b 167 397 251 615 175 518 l 581 397 b 579 419 581 400 579 407 b 375 615 572 531 501 615 "},"ễ":{"ha":739,"x_min":0,"x_max":0,"o":"m 282 1175 b 213 1067 239 1175 213 1135 l 156 1067 b 285 1236 156 1174 206 1236 b 472 1117 389 1236 397 1117 b 536 1231 508 1117 536 1160 l 596 1231 b 472 1054 596 1121 546 1054 b 282 1175 357 1054 356 1175 m 376 982 l 583 761 l 504 761 l 376 897 l 250 761 l 169 761 m 672 376 b 668 317 672 357 671 333 l 167 317 b 388 76 169 167 253 76 b 585 163 463 76 522 96 l 651 104 b 386 -11 571 19 492 -11 b 71 339 178 -11 71 144 b 375 696 71 532 176 696 b 672 376 585 696 672 532 m 375 615 b 167 397 251 615 175 518 l 581 397 b 579 419 581 400 579 407 b 375 615 572 531 501 615 "},"ë":{"ha":739,"x_min":0,"x_max":0,"o":"m 307 826 l 196 826 l 196 968 l 307 968 m 557 826 l 446 826 l 446 968 l 557 968 m 672 376 b 668 317 672 357 671 333 l 167 317 b 388 76 169 167 253 76 b 585 163 463 76 522 96 l 651 104 b 386 -11 571 19 492 -11 b 71 339 178 -11 71 144 b 375 696 71 532 176 696 b 672 376 585 696 672 532 m 375 615 b 167 397 251 615 175 518 l 581 397 b 579 419 581 400 579 407 b 375 615 572 531 501 615 "},"ė":{"ha":739,"x_min":0,"x_max":0,"o":"m 432 826 l 321 826 l 321 968 l 432 968 m 672 376 b 668 317 672 357 671 333 l 167 317 b 388 76 169 167 253 76 b 585 163 463 76 522 96 l 651 104 b 386 -11 571 19 492 -11 b 71 339 178 -11 71 144 b 375 696 71 532 176 696 b 672 376 585 696 672 532 m 375 615 b 167 397 251 615 175 518 l 581 397 b 579 419 581 400 579 407 b 375 615 572 531 501 615 "},"ẹ":{"ha":739,"x_min":0,"x_max":0,"o":"m 672 376 b 668 317 672 357 671 333 l 167 317 b 388 76 169 167 253 76 b 585 163 463 76 522 96 l 651 104 b 386 -11 571 19 492 -11 b 71 339 178 -11 71 144 b 375 696 71 532 176 696 b 672 376 585 696 672 532 m 375 615 b 167 397 251 615 175 518 l 581 397 b 579 419 581 400 579 407 b 375 615 572 531 501 615 m 331 -100 l 442 -100 l 442 -240 l 331 -240 "},"è":{"ha":739,"x_min":0,"x_max":0,"o":"m 339 772 l 167 968 l 269 968 l 414 772 m 672 376 b 668 317 672 357 671 333 l 167 317 b 388 76 169 167 253 76 b 585 163 463 76 522 96 l 651 104 b 386 -11 571 19 492 -11 b 71 339 178 -11 71 144 b 375 696 71 532 176 696 b 672 376 585 696 672 532 m 375 615 b 167 397 251 615 175 518 l 581 397 b 579 419 581 400 579 407 b 375 615 572 531 501 615 "},"ẻ":{"ha":739,"x_min":0,"x_max":0,"o":"m 463 864 b 335 942 463 921 400 942 l 314 942 l 314 997 l 335 997 b 528 861 446 997 528 950 b 368 739 528 768 436 753 l 351 793 b 463 864 404 801 463 813 m 672 376 b 668 317 672 357 671 333 l 167 317 b 388 76 169 167 253 76 b 585 163 463 76 522 96 l 651 104 b 386 -11 571 19 492 -11 b 71 339 178 -11 71 144 b 375 696 71 532 176 696 b 672 376 585 696 672 532 m 375 615 b 167 397 251 615 175 518 l 581 397 b 579 419 581 400 579 407 b 375 615 572 531 501 615 "},"ē":{"ha":739,"x_min":0,"x_max":0,"o":"m 563 832 l 188 832 l 188 890 l 563 890 m 672 376 b 668 317 672 357 671 333 l 167 317 b 388 76 169 167 253 76 b 585 163 463 76 522 96 l 651 104 b 386 -11 571 19 492 -11 b 71 339 178 -11 71 144 b 375 696 71 532 176 696 b 672 376 585 696 672 532 m 375 615 b 167 397 251 615 175 518 l 581 397 b 579 419 581 400 579 407 b 375 615 572 531 501 615 "},"ę":{"ha":739,"x_min":0,"x_max":0,"o":"m 672 376 b 668 317 672 357 671 333 l 167 317 b 388 76 169 167 253 76 b 585 163 463 76 522 96 l 651 104 b 513 8 607 57 561 26 b 376 -161 464 -21 376 -79 b 440 -224 376 -207 407 -224 b 525 -186 472 -224 500 -210 l 572 -224 b 443 -286 539 -261 494 -286 b 317 -169 372 -286 317 -242 b 406 -11 317 -104 358 -49 l 386 -11 b 71 339 178 -11 71 144 b 375 696 71 532 176 696 b 672 376 585 696 672 532 m 375 615 b 167 397 251 615 175 518 l 581 397 b 579 419 581 400 579 407 b 375 615 572 531 501 615 "},"ẽ":{"ha":739,"x_min":0,"x_max":0,"o":"m 282 913 b 213 804 239 913 213 872 l 156 804 b 285 974 156 911 206 974 b 472 854 389 974 397 854 b 536 968 508 854 536 897 l 596 968 b 472 792 596 858 546 792 b 282 913 357 792 356 913 m 672 376 b 668 317 672 357 671 333 l 167 317 b 388 76 169 167 253 76 b 585 163 463 76 522 96 l 651 104 b 386 -11 571 19 492 -11 b 71 339 178 -11 71 144 b 375 696 71 532 176 696 b 672 376 585 696 672 532 m 375 615 b 167 397 251 615 175 518 l 581 397 b 579 419 581 400 579 407 b 375 615 572 531 501 615 "},"f":{"ha":485,"x_min":0,"x_max":0,"o":"m 168 604 l 24 604 l 24 685 l 169 685 l 169 790 b 342 979 169 936 254 979 b 464 953 379 979 421 971 l 431 876 b 351 899 401 890 375 899 b 264 797 297 899 264 861 l 264 685 l 461 685 l 461 604 l 264 604 l 264 0 l 168 0 "},"g":{"ha":724,"x_min":0,"x_max":0,"o":"m 363 83 b 660 -106 499 63 660 43 b 367 -294 660 -235 539 -294 b 61 -83 176 -294 61 -219 b 64 -53 61 -69 63 -61 l 175 42 b 86 172 122 65 86 104 b 160 303 86 228 111 269 b 101 458 124 344 101 397 b 363 696 101 597 215 696 b 533 640 429 696 489 675 l 628 722 l 678 660 l 585 582 b 622 453 608 544 622 501 b 364 219 622 313 508 219 b 222 254 311 219 263 232 b 178 185 194 239 178 214 b 363 83 178 115 264 99 m 364 615 b 196 456 267 615 196 550 b 363 299 196 367 260 299 b 526 456 465 299 526 365 b 364 615 526 550 463 615 m 371 -214 b 564 -114 492 -214 564 -181 b 342 0 564 -31 456 -18 b 250 17 311 4 279 10 l 157 -74 b 156 -86 156 -81 156 -83 b 371 -214 156 -183 254 -214 "},"ğ":{"ha":724,"x_min":0,"x_max":0,"o":"m 361 786 b 151 968 221 786 151 850 l 221 968 b 361 844 221 886 276 844 b 501 968 449 844 501 889 l 571 968 b 361 786 571 847 496 786 m 363 83 b 660 -106 499 63 660 43 b 367 -294 660 -235 539 -294 b 61 -83 176 -294 61 -219 b 64 -53 61 -69 63 -61 l 175 42 b 86 172 122 65 86 104 b 160 303 86 228 111 269 b 101 458 124 344 101 397 b 363 696 101 597 215 696 b 533 640 429 696 489 675 l 628 722 l 678 660 l 585 582 b 622 453 608 544 622 501 b 364 219 622 313 508 219 b 222 254 311 219 263 232 b 178 185 194 239 178 214 b 363 83 178 115 264 99 m 364 615 b 196 456 267 615 196 550 b 363 299 196 367 260 299 b 526 456 465 299 526 365 b 364 615 526 550 463 615 m 371 -214 b 564 -114 492 -214 564 -181 b 342 0 564 -31 456 -18 b 250 17 311 4 279 10 l 157 -74 b 156 -86 156 -81 156 -83 b 371 -214 156 -183 254 -214 "},"ģ":{"ha":724,"x_min":0,"x_max":0,"o":"m 350 771 l 249 771 l 411 975 l 472 975 m 363 83 b 660 -106 499 63 660 43 b 367 -294 660 -235 539 -294 b 61 -83 176 -294 61 -219 b 64 -53 61 -69 63 -61 l 175 42 b 86 172 122 65 86 104 b 160 303 86 228 111 269 b 101 458 124 344 101 397 b 363 696 101 597 215 696 b 533 640 429 696 489 675 l 628 722 l 678 660 l 585 582 b 622 453 608 544 622 501 b 364 219 622 313 508 219 b 222 254 311 219 263 232 b 178 185 194 239 178 214 b 363 83 178 115 264 99 m 364 615 b 196 456 267 615 196 550 b 363 299 196 367 260 299 b 526 456 465 299 526 365 b 364 615 526 550 463 615 m 371 -214 b 564 -114 492 -214 564 -181 b 342 0 564 -31 456 -18 b 250 17 311 4 279 10 l 157 -74 b 156 -86 156 -81 156 -83 b 371 -214 156 -183 254 -214 "},"ġ":{"ha":724,"x_min":0,"x_max":0,"o":"m 417 826 l 306 826 l 306 968 l 417 968 m 363 83 b 660 -106 499 63 660 43 b 367 -294 660 -235 539 -294 b 61 -83 176 -294 61 -219 b 64 -53 61 -69 63 -61 l 175 42 b 86 172 122 65 86 104 b 160 303 86 228 111 269 b 101 458 124 344 101 397 b 363 696 101 597 215 696 b 533 640 429 696 489 675 l 628 722 l 678 660 l 585 582 b 622 453 608 544 622 501 b 364 219 622 313 508 219 b 222 254 311 219 263 232 b 178 185 194 239 178 214 b 363 83 178 115 264 99 m 364 615 b 196 456 267 615 196 550 b 363 299 196 367 260 299 b 526 456 465 299 526 365 b 364 615 526 550 463 615 m 371 -214 b 564 -114 492 -214 564 -181 b 342 0 564 -31 456 -18 b 250 17 311 4 279 10 l 157 -74 b 156 -86 156 -81 156 -83 b 371 -214 156 -183 254 -214 "},"h":{"ha":782,"x_min":0,"x_max":0,"o":"m 449 696 b 672 419 596 696 672 601 l 672 0 l 576 0 l 576 396 b 426 611 576 544 529 611 b 222 315 296 611 222 504 l 222 0 l 126 0 l 126 968 l 222 968 l 222 585 b 449 696 267 654 350 696 "},"ħ":{"ha":782,"x_min":0,"x_max":0,"o":"m 449 696 b 672 419 596 696 672 601 l 672 0 l 576 0 l 576 396 b 426 611 576 544 529 611 b 222 315 296 611 222 504 l 222 0 l 126 0 l 126 811 l 69 811 l 69 876 l 126 876 l 126 968 l 222 968 l 222 876 l 444 876 l 444 811 l 222 811 l 222 585 b 449 696 267 654 350 696 "},"i":{"ha":349,"x_min":0,"x_max":0,"o":"m 118 968 l 229 968 l 229 826 l 118 826 m 126 685 l 222 685 l 222 0 l 126 0 "},"ı":{"ha":349,"x_min":0,"x_max":0,"o":"m 126 685 l 222 685 l 222 0 l 126 0 "},"í":{"ha":349,"x_min":0,"x_max":0,"o":"m 288 968 l 390 968 l 211 772 l 138 772 m 126 685 l 222 685 l 222 0 l 126 0 "},"ǐ":{"ha":349,"x_min":0,"x_max":0,"o":"m -33 968 l 46 968 l 174 836 l 301 968 l 381 968 l 174 756 m 126 685 l 222 685 l 222 0 l 126 0 "},"î":{"ha":349,"x_min":0,"x_max":0,"o":"m 174 982 l 381 761 l 301 761 l 174 897 l 47 761 l -33 761 m 126 685 l 222 685 l 222 0 l 126 0 "},"ï":{"ha":349,"x_min":0,"x_max":0,"o":"m -7 968 l 104 968 l 104 826 l -7 826 m 243 968 l 354 968 l 354 826 l 243 826 m 126 685 l 222 685 l 222 0 l 126 0 "},"ị":{"ha":349,"x_min":0,"x_max":0,"o":"m 118 968 l 229 968 l 229 826 l 118 826 m 126 685 l 222 685 l 222 0 l 126 0 m 118 -100 l 229 -100 l 229 -240 l 118 -240 "},"ì":{"ha":349,"x_min":0,"x_max":0,"o":"m -36 968 l 67 968 l 211 772 l 136 772 m 126 685 l 222 685 l 222 0 l 126 0 "},"ỉ":{"ha":349,"x_min":0,"x_max":0,"o":"m 149 793 b 260 864 201 801 260 813 b 132 942 260 921 197 942 l 111 942 l 111 997 l 132 997 b 325 861 243 997 325 950 b 165 739 325 768 233 753 m 126 685 l 222 685 l 222 0 l 126 0 "},"ī":{"ha":349,"x_min":0,"x_max":0,"o":"m -15 890 l 360 890 l 360 832 l -15 832 m 126 685 l 222 685 l 222 0 l 126 0 "},"į":{"ha":349,"x_min":0,"x_max":0,"o":"m 229 826 l 118 826 l 118 968 l 229 968 m 278 -235 b 149 -297 244 -272 200 -297 b 22 -181 78 -297 22 -253 b 142 0 22 -100 85 -36 l 126 0 l 126 685 l 222 685 l 222 0 b 82 -172 174 -29 82 -87 b 146 -235 82 -218 113 -235 b 231 -197 178 -235 206 -221 "},"ĩ":{"ha":349,"x_min":0,"x_max":0,"o":"m 269 792 b 79 913 154 792 153 913 b 10 804 36 913 10 872 l -47 804 b 82 974 -47 911 3 974 b 269 854 186 974 194 854 b 333 968 306 854 333 897 l 393 968 b 269 792 393 858 343 792 m 126 685 l 222 685 l 222 0 l 126 0 "},"j":{"ha":347,"x_min":0,"x_max":0,"o":"m 118 968 l 229 968 l 229 826 l 118 826 m 90 -294 b -4 -276 63 -294 31 -287 l -3 -199 b 61 -210 21 -207 43 -210 b 126 -132 103 -210 126 -186 l 126 685 l 221 685 l 221 -137 b 90 -294 221 -246 169 -294 "},"ȷ":{"ha":347,"x_min":0,"x_max":0,"o":"m 90 -294 b -4 -276 63 -294 31 -287 l -3 -199 b 61 -210 21 -207 43 -210 b 126 -132 103 -210 126 -186 l 126 685 l 221 685 l 221 -137 b 90 -294 221 -246 169 -294 "},"k":{"ha":757,"x_min":0,"x_max":0,"o":"m 126 968 l 222 968 l 222 322 l 564 685 l 693 685 l 444 428 l 732 0 l 618 0 l 379 368 l 222 201 l 222 0 l 126 0 "},"ķ":{"ha":757,"x_min":0,"x_max":0,"o":"m 126 968 l 222 968 l 222 322 l 564 685 l 693 685 l 444 428 l 732 0 l 618 0 l 379 368 l 222 201 l 222 0 l 126 0 m 369 -78 l 471 -78 l 308 -307 l 247 -307 "},"ĸ":{"ha":757,"x_min":0,"x_max":0,"o":"m 126 685 l 222 685 l 222 318 l 568 685 l 693 685 l 444 428 l 732 0 l 618 0 l 379 368 l 222 201 l 222 0 l 126 0 "},"l":{"ha":375,"x_min":0,"x_max":0,"o":"m 251 -11 b 121 149 172 -11 121 42 l 121 968 l 217 968 l 217 154 b 279 76 217 107 233 76 b 344 89 300 76 324 82 l 346 7 b 251 -11 317 -3 282 -11 "},"ĺ":{"ha":375,"x_min":0,"x_max":0,"o":"m 282 1251 l 385 1251 l 206 1056 l 132 1056 m 251 -11 b 121 149 172 -11 121 42 l 121 968 l 217 968 l 217 154 b 279 76 217 107 233 76 b 344 89 300 76 324 82 l 346 7 b 251 -11 317 -3 282 -11 "},"ľ":{"ha":375,"x_min":0,"x_max":0,"o":"m 251 -11 b 121 149 172 -11 121 42 l 121 968 l 217 968 l 217 154 b 279 76 217 107 233 76 b 344 89 300 76 324 82 l 346 7 b 251 -11 317 -3 282 -11 m 369 968 l 469 968 l 347 679 l 289 679 "},"ļ":{"ha":375,"x_min":0,"x_max":0,"o":"m 251 -11 b 121 149 172 -11 121 42 l 121 968 l 217 968 l 217 154 b 279 76 217 107 233 76 b 344 89 300 76 324 82 l 346 7 b 251 -11 317 -3 282 -11 m 181 -78 l 282 -78 l 119 -307 l 58 -307 "},"ł":{"ha":375,"x_min":0,"x_max":0,"o":"m 346 7 b 251 -11 317 -3 282 -11 b 121 149 172 -11 121 42 l 121 429 l 36 361 l 36 461 l 121 528 l 121 968 l 217 968 l 217 604 l 339 700 l 339 603 l 217 506 l 217 154 b 279 76 217 107 233 76 b 344 89 300 76 324 82 "},"m":{"ha":1175,"x_min":0,"x_max":0,"o":"m 833 696 b 1065 428 997 696 1065 588 l 1065 0 l 969 0 l 969 401 b 819 611 969 460 969 611 b 643 329 681 611 643 483 l 643 0 l 547 0 l 547 396 b 393 611 547 510 513 611 b 222 329 260 611 222 485 l 222 0 l 126 0 l 125 685 l 218 685 l 218 601 b 407 696 261 669 331 696 b 608 564 503 696 574 654 b 833 696 653 651 729 696 "},"n":{"ha":782,"x_min":0,"x_max":0,"o":"m 449 696 b 672 419 596 696 672 601 l 672 0 l 576 0 l 576 396 b 426 611 576 543 529 611 b 222 307 297 611 222 500 l 222 0 l 126 0 l 126 685 l 222 685 l 222 585 b 449 696 267 654 350 696 "},"ń":{"ha":782,"x_min":0,"x_max":0,"o":"m 438 772 l 364 772 l 514 968 l 617 968 m 449 696 b 672 419 596 696 672 601 l 672 0 l 576 0 l 576 396 b 426 611 576 543 529 611 b 222 307 297 611 222 500 l 222 0 l 126 0 l 126 685 l 222 685 l 222 585 b 449 696 267 654 350 696 "},"ŉ":{"ha":947,"x_min":0,"x_max":0,"o":"m 174 968 l 283 968 l 100 574 l 35 574 m 622 696 b 846 419 769 696 846 601 l 846 0 l 750 0 l 750 396 b 600 611 750 543 703 611 b 396 307 471 611 396 500 l 396 0 l 300 0 l 300 685 l 396 685 l 396 585 b 622 696 440 654 524 696 "},"ň":{"ha":782,"x_min":0,"x_max":0,"o":"m 400 756 l 193 968 l 272 968 l 400 836 l 528 968 l 607 968 m 449 696 b 672 419 596 696 672 601 l 672 0 l 576 0 l 576 396 b 426 611 576 543 529 611 b 222 307 297 611 222 500 l 222 0 l 126 0 l 126 685 l 222 685 l 222 585 b 449 696 267 654 350 696 "},"ņ":{"ha":782,"x_min":0,"x_max":0,"o":"m 449 696 b 672 419 596 696 672 601 l 672 0 l 576 0 l 576 396 b 426 611 576 543 529 611 b 222 307 297 611 222 500 l 222 0 l 126 0 l 126 685 l 222 685 l 222 585 b 449 696 267 654 350 696 m 349 -78 l 450 -78 l 288 -307 l 226 -307 "},"ŋ":{"ha":783,"x_min":0,"x_max":0,"o":"m 449 696 b 672 419 604 696 672 589 l 672 -137 b 543 -294 672 -246 622 -294 b 447 -276 515 -294 482 -287 l 449 -199 b 513 -210 469 -206 494 -210 b 576 -132 558 -210 576 -182 l 576 396 b 426 611 576 507 557 611 b 222 315 290 611 222 493 l 222 0 l 126 0 l 126 685 l 222 685 l 222 586 b 449 696 271 660 358 696 "},"ñ":{"ha":782,"x_min":0,"x_max":0,"o":"m 306 913 b 236 804 263 913 236 872 l 179 804 b 308 974 179 911 229 974 b 496 854 413 974 421 854 b 560 968 532 854 560 897 l 619 968 b 496 792 619 858 569 792 b 306 913 381 792 379 913 m 449 696 b 672 419 596 696 672 601 l 672 0 l 576 0 l 576 396 b 426 611 576 543 529 611 b 222 307 297 611 222 500 l 222 0 l 126 0 l 126 685 l 222 685 l 222 585 b 449 696 267 654 350 696 "},"o":{"ha":790,"x_min":0,"x_max":0,"o":"m 394 -11 b 67 343 199 -11 67 140 b 394 696 67 546 199 696 b 724 343 589 696 724 546 b 394 -11 724 142 590 -11 m 394 74 b 628 343 542 74 628 190 b 394 611 628 499 540 611 b 163 343 247 611 163 497 b 394 74 163 188 249 74 "},"ó":{"ha":790,"x_min":0,"x_max":0,"o":"m 508 968 l 611 968 l 432 772 l 358 772 m 394 -11 b 67 343 199 -11 67 140 b 394 696 67 546 199 696 b 724 343 589 696 724 546 b 394 -11 724 142 590 -11 m 394 74 b 628 343 542 74 628 190 b 394 611 628 499 540 611 b 163 343 247 611 163 497 b 394 74 163 188 249 74 "},"ǒ":{"ha":790,"x_min":0,"x_max":0,"o":"m 188 968 l 267 968 l 394 836 l 522 968 l 601 968 l 394 756 m 394 -11 b 67 343 199 -11 67 140 b 394 696 67 546 199 696 b 724 343 589 696 724 546 b 394 -11 724 142 590 -11 m 394 74 b 628 343 542 74 628 190 b 394 611 628 499 540 611 b 163 343 247 611 163 497 b 394 74 163 188 249 74 "},"ô":{"ha":790,"x_min":0,"x_max":0,"o":"m 394 982 l 601 761 l 522 761 l 394 897 l 268 761 l 188 761 m 394 -11 b 67 343 199 -11 67 140 b 394 696 67 546 199 696 b 724 343 589 696 724 546 b 394 -11 724 142 590 -11 m 394 74 b 628 343 542 74 628 190 b 394 611 628 499 540 611 b 163 343 247 611 163 497 b 394 74 163 188 249 74 "},"ố":{"ha":790,"x_min":0,"x_max":0,"o":"m 508 1231 l 611 1231 l 432 1035 l 358 1035 m 394 982 l 601 761 l 522 761 l 394 897 l 268 761 l 188 761 m 394 -11 b 67 343 199 -11 67 140 b 394 696 67 546 199 696 b 724 343 589 696 724 546 b 394 -11 724 142 590 -11 m 394 74 b 628 343 542 74 628 190 b 394 611 628 499 540 611 b 163 343 247 611 163 497 b 394 74 163 188 249 74 "},"ộ":{"ha":790,"x_min":0,"x_max":0,"o":"m 394 982 l 601 761 l 522 761 l 394 897 l 268 761 l 188 761 m 394 -11 b 67 343 199 -11 67 140 b 394 696 67 546 199 696 b 724 343 589 696 724 546 b 394 -11 724 142 590 -11 m 394 74 b 628 343 542 74 628 190 b 394 611 628 499 540 611 b 163 343 247 611 163 497 b 394 74 163 188 249 74 m 339 -100 l 450 -100 l 450 -240 l 339 -240 "},"ồ":{"ha":790,"x_min":0,"x_max":0,"o":"m 185 1231 l 288 1231 l 432 1035 l 357 1035 m 394 982 l 601 761 l 522 761 l 394 897 l 268 761 l 188 761 m 394 -11 b 67 343 199 -11 67 140 b 394 696 67 546 199 696 b 724 343 589 696 724 546 b 394 -11 724 142 590 -11 m 394 74 b 628 343 542 74 628 190 b 394 611 628 499 540 611 b 163 343 247 611 163 497 b 394 74 163 188 249 74 "},"ổ":{"ha":790,"x_min":0,"x_max":0,"o":"m 369 1056 b 481 1126 422 1064 481 1075 b 353 1204 481 1183 418 1204 l 332 1204 l 332 1260 l 353 1260 b 546 1124 464 1260 546 1213 b 386 1001 546 1031 454 1015 m 394 982 l 601 761 l 522 761 l 394 897 l 268 761 l 188 761 m 394 -11 b 67 343 199 -11 67 140 b 394 696 67 546 199 696 b 724 343 589 696 724 546 b 394 -11 724 142 590 -11 m 394 74 b 628 343 542 74 628 190 b 394 611 628 499 540 611 b 163 343 247 611 163 497 b 394 74 163 188 249 74 "},"ỗ":{"ha":790,"x_min":0,"x_max":0,"o":"m 490 1054 b 300 1175 375 1054 374 1175 b 231 1067 257 1175 231 1135 l 174 1067 b 303 1236 174 1174 224 1236 b 490 1117 407 1236 415 1117 b 554 1231 526 1117 554 1160 l 614 1231 b 490 1054 614 1121 564 1054 m 394 982 l 601 761 l 522 761 l 394 897 l 268 761 l 188 761 m 394 -11 b 67 343 199 -11 67 140 b 394 696 67 546 199 696 b 724 343 589 696 724 546 b 394 -11 724 142 590 -11 m 394 74 b 628 343 542 74 628 190 b 394 611 628 499 540 611 b 163 343 247 611 163 497 b 394 74 163 188 249 74 "},"ö":{"ha":790,"x_min":0,"x_max":0,"o":"m 214 968 l 325 968 l 325 826 l 214 826 m 464 968 l 575 968 l 575 826 l 464 826 m 394 -11 b 67 343 199 -11 67 140 b 394 696 67 546 199 696 b 724 343 589 696 724 546 b 394 -11 724 142 590 -11 m 394 74 b 628 343 542 74 628 190 b 394 611 628 499 540 611 b 163 343 247 611 163 497 b 394 74 163 188 249 74 "},"ọ":{"ha":790,"x_min":0,"x_max":0,"o":"m 394 -11 b 67 343 199 -11 67 140 b 394 696 67 546 199 696 b 724 343 589 696 724 546 b 394 -11 724 142 590 -11 m 394 74 b 628 343 542 74 628 190 b 394 611 628 499 540 611 b 163 343 247 611 163 497 b 394 74 163 188 249 74 m 339 -100 l 450 -100 l 450 -240 l 339 -240 "},"ò":{"ha":790,"x_min":0,"x_max":0,"o":"m 185 968 l 288 968 l 432 772 l 357 772 m 394 -11 b 67 343 199 -11 67 140 b 394 696 67 546 199 696 b 724 343 589 696 724 546 b 394 -11 724 142 590 -11 m 394 74 b 628 343 542 74 628 190 b 394 611 628 499 540 611 b 163 343 247 611 163 497 b 394 74 163 188 249 74 "},"ỏ":{"ha":790,"x_min":0,"x_max":0,"o":"m 369 793 b 481 864 422 801 481 813 b 353 942 481 921 418 942 l 332 942 l 332 997 l 353 997 b 546 861 464 997 546 950 b 386 739 546 768 454 753 m 394 -11 b 67 343 199 -11 67 140 b 394 696 67 546 199 696 b 724 343 589 696 724 546 b 394 -11 724 142 590 -11 m 394 74 b 628 343 542 74 628 190 b 394 611 628 499 540 611 b 163 343 247 611 163 497 b 394 74 163 188 249 74 "},"ơ":{"ha":790,"x_min":0,"x_max":0,"o":"m 829 788 l 829 721 b 686 514 829 611 786 533 b 724 343 711 464 724 406 b 394 -11 724 142 590 -11 b 67 343 199 -11 67 140 b 394 696 67 546 199 696 b 649 575 501 696 590 650 b 756 714 728 581 756 639 l 756 788 m 394 74 b 628 343 542 74 628 190 b 394 611 628 499 540 611 b 163 343 247 611 163 497 b 394 74 163 188 249 74 "},"ớ":{"ha":790,"x_min":0,"x_max":0,"o":"m 432 772 l 358 772 l 508 968 l 611 968 m 829 788 l 829 721 b 686 514 829 611 786 533 b 724 343 711 464 724 406 b 394 -11 724 142 590 -11 b 67 343 199 -11 67 140 b 394 696 67 546 199 696 b 649 575 501 696 590 650 b 756 714 728 581 756 639 l 756 788 m 394 74 b 628 343 542 74 628 190 b 394 611 628 499 540 611 b 163 343 247 611 163 497 b 394 74 163 188 249 74 "},"ợ":{"ha":790,"x_min":0,"x_max":0,"o":"m 829 788 l 829 721 b 686 514 829 611 786 533 b 724 343 711 464 724 406 b 394 -11 724 142 590 -11 b 67 343 199 -11 67 140 b 394 696 67 546 199 696 b 649 575 501 696 590 650 b 756 714 728 581 756 639 l 756 788 m 394 74 b 628 343 542 74 628 190 b 394 611 628 499 540 611 b 163 343 247 611 163 497 b 394 74 163 188 249 74 m 339 -100 l 450 -100 l 450 -240 l 339 -240 "},"ờ":{"ha":790,"x_min":0,"x_max":0,"o":"m 357 772 l 185 968 l 288 968 l 432 772 m 829 788 l 829 721 b 686 514 829 611 786 533 b 724 343 711 464 724 406 b 394 -11 724 142 590 -11 b 67 343 199 -11 67 140 b 394 696 67 546 199 696 b 649 575 501 696 590 650 b 756 714 728 581 756 639 l 756 788 m 394 74 b 628 343 542 74 628 190 b 394 611 628 499 540 611 b 163 343 247 611 163 497 b 394 74 163 188 249 74 "},"ở":{"ha":790,"x_min":0,"x_max":0,"o":"m 481 864 b 353 942 481 921 418 942 l 332 942 l 332 997 l 353 997 b 546 861 464 997 546 950 b 386 739 546 768 454 753 l 369 793 b 481 864 422 801 481 813 m 829 788 l 829 721 b 686 514 829 611 786 533 b 724 343 711 464 724 406 b 394 -11 724 142 590 -11 b 67 343 199 -11 67 140 b 394 696 67 546 199 696 b 649 575 501 696 590 650 b 756 714 728 581 756 639 l 756 788 m 394 74 b 628 343 542 74 628 190 b 394 611 628 499 540 611 b 163 343 247 611 163 497 b 394 74 163 188 249 74 "},"ỡ":{"ha":790,"x_min":0,"x_max":0,"o":"m 300 913 b 231 804 257 913 231 872 l 174 804 b 303 974 174 911 224 974 b 490 854 407 974 415 854 b 554 968 526 854 554 897 l 614 968 b 490 792 614 858 564 792 b 300 913 375 792 374 913 m 829 788 l 829 721 b 686 514 829 611 786 533 b 724 343 711 464 724 406 b 394 -11 724 142 590 -11 b 67 343 199 -11 67 140 b 394 696 67 546 199 696 b 649 575 501 696 590 650 b 756 714 728 581 756 639 l 756 788 m 394 74 b 628 343 542 74 628 190 b 394 611 628 499 540 611 b 163 343 247 611 163 497 b 394 74 163 188 249 74 "},"ő":{"ha":790,"x_min":0,"x_max":0,"o":"m 389 968 l 476 968 l 313 757 l 239 757 m 625 968 l 728 968 l 549 757 l 475 757 m 394 -11 b 67 343 199 -11 67 140 b 394 696 67 546 199 696 b 724 343 589 696 724 546 b 394 -11 724 142 590 -11 m 394 74 b 628 343 542 74 628 190 b 394 611 628 499 540 611 b 163 343 247 611 163 497 b 394 74 163 188 249 74 "},"ō":{"ha":790,"x_min":0,"x_max":0,"o":"m 206 890 l 581 890 l 581 832 l 206 832 m 394 -11 b 67 343 199 -11 67 140 b 394 696 67 546 199 696 b 724 343 589 696 724 546 b 394 -11 724 142 590 -11 m 394 74 b 628 343 542 74 628 190 b 394 611 628 499 540 611 b 163 343 247 611 163 497 b 394 74 163 188 249 74 "},"ø":{"ha":790,"x_min":0,"x_max":0,"o":"m 604 622 b 724 343 679 560 724 460 b 394 -11 724 142 590 -11 b 235 28 335 -11 281 3 l 175 -68 l 101 -68 l 183 64 b 67 343 110 128 67 226 b 394 696 67 546 199 696 b 551 657 453 696 507 682 l 611 753 l 685 753 l 604 622 m 163 343 b 232 142 163 261 186 190 l 507 585 b 394 611 475 601 438 611 b 163 343 247 611 163 497 m 394 74 b 628 343 542 74 628 190 b 557 546 628 426 603 499 l 281 101 b 394 74 313 83 351 74 "},"õ":{"ha":790,"x_min":0,"x_max":0,"o":"m 490 792 b 300 913 375 792 374 913 b 231 804 257 913 231 872 l 174 804 b 303 974 174 911 224 974 b 490 854 407 974 415 854 b 554 968 526 854 554 897 l 614 968 b 490 792 614 858 564 792 m 394 -11 b 67 343 199 -11 67 140 b 394 696 67 546 199 696 b 724 343 589 696 724 546 b 394 -11 724 142 590 -11 m 394 74 b 628 343 542 74 628 190 b 394 611 628 499 540 611 b 163 343 247 611 163 497 b 394 74 163 188 249 74 "},"œ":{"ha":1300,"x_min":0,"x_max":0,"o":"m 1233 376 b 1229 317 1233 357 1232 333 l 728 317 b 949 76 731 167 814 76 b 1146 163 1024 76 1083 96 l 1213 104 b 947 -11 1132 19 1053 -11 b 674 147 815 -11 724 51 b 394 -11 618 51 519 -11 b 67 343 199 -11 67 140 b 394 696 67 546 199 696 b 675 536 519 696 619 633 b 936 696 724 632 811 696 b 1233 376 1146 696 1233 532 m 936 615 b 728 397 813 615 736 518 l 1142 397 b 1140 419 1142 400 1140 407 b 936 615 1133 531 1063 615 m 394 74 b 628 343 542 74 628 190 b 394 611 628 499 540 611 b 163 343 247 611 163 497 b 394 74 163 188 249 74 "},"p":{"ha":825,"x_min":0,"x_max":0,"o":"m 449 697 b 753 343 639 697 753 557 b 449 -11 753 139 649 -11 b 222 92 349 -11 272 28 l 222 -283 l 126 -283 l 126 685 l 222 685 l 222 593 b 449 697 274 660 351 697 m 435 74 b 657 343 581 74 657 188 b 435 613 657 506 574 613 b 214 343 297 613 214 506 b 435 74 214 188 290 74 "},"þ":{"ha":826,"x_min":0,"x_max":0,"o":"m 450 697 b 754 343 640 697 754 557 b 450 -11 754 139 650 -11 b 224 92 350 -11 274 28 l 224 -283 l 128 -283 l 128 968 l 224 968 l 224 593 b 450 697 275 660 353 697 m 436 74 b 658 343 582 74 658 188 b 436 613 658 506 575 613 b 215 343 299 613 215 506 b 436 74 215 188 292 74 "},"q":{"ha":825,"x_min":0,"x_max":0,"o":"m 699 685 l 699 -283 l 603 -283 l 603 92 b 376 -11 553 28 476 -11 b 72 343 176 -11 72 139 b 376 697 72 557 186 697 b 603 593 474 697 551 660 l 603 685 m 390 74 b 611 343 535 74 611 188 b 390 613 611 506 528 613 b 168 343 251 613 168 506 b 390 74 168 188 244 74 "},"r":{"ha":558,"x_min":0,"x_max":0,"o":"m 425 696 b 543 667 467 696 506 688 l 496 589 b 406 610 464 603 435 610 b 222 382 300 610 222 531 l 222 0 l 126 0 l 126 685 l 222 685 l 222 582 b 425 696 272 672 356 696 "},"ŕ":{"ha":558,"x_min":0,"x_max":0,"o":"m 318 772 l 244 772 l 394 968 l 497 968 m 425 696 b 543 667 467 696 506 688 l 496 589 b 406 610 464 603 435 610 b 222 382 300 610 222 531 l 222 0 l 126 0 l 126 685 l 222 685 l 222 582 b 425 696 272 672 356 696 "},"ř":{"ha":558,"x_min":0,"x_max":0,"o":"m 281 756 l 74 968 l 153 968 l 281 836 l 408 968 l 488 968 m 425 696 b 543 667 467 696 506 688 l 496 589 b 406 610 464 603 435 610 b 222 382 300 610 222 531 l 222 0 l 126 0 l 126 685 l 222 685 l 222 582 b 425 696 272 672 356 696 "},"ŗ":{"ha":558,"x_min":0,"x_max":0,"o":"m 425 696 b 543 667 467 696 506 688 l 496 589 b 406 610 464 603 435 610 b 222 382 300 610 222 531 l 222 0 l 126 0 l 126 685 l 222 685 l 222 582 b 425 696 272 672 356 696 m 229 -78 l 331 -78 l 168 -307 l 107 -307 "},"s":{"ha":647,"x_min":0,"x_max":0,"o":"m 333 -11 b 53 168 199 -11 89 58 l 133 204 b 332 74 158 133 225 74 b 485 192 425 74 485 119 b 90 503 485 374 90 260 b 325 696 90 622 188 696 b 571 553 435 696 524 650 l 494 511 b 322 611 461 572 407 611 b 183 517 238 611 183 576 b 579 197 183 354 579 457 b 333 -11 579 58 465 -11 "},"ś":{"ha":647,"x_min":0,"x_max":0,"o":"m 440 968 l 543 968 l 364 772 l 290 772 m 333 -11 b 53 168 199 -11 89 58 l 133 204 b 332 74 158 133 225 74 b 485 192 425 74 485 119 b 90 503 485 374 90 260 b 325 696 90 622 188 696 b 571 553 435 696 524 650 l 494 511 b 322 611 461 572 407 611 b 183 517 238 611 183 576 b 579 197 183 354 579 457 b 333 -11 579 58 465 -11 "},"š":{"ha":647,"x_min":0,"x_max":0,"o":"m 119 968 l 199 968 l 326 836 l 454 968 l 533 968 l 326 756 m 333 -11 b 53 168 199 -11 89 58 l 133 204 b 332 74 158 133 225 74 b 485 192 425 74 485 119 b 90 503 485 374 90 260 b 325 696 90 622 188 696 b 571 553 435 696 524 650 l 494 511 b 322 611 461 572 407 611 b 183 517 238 611 183 576 b 579 197 183 354 579 457 b 333 -11 579 58 465 -11 "},"ş":{"ha":647,"x_min":0,"x_max":0,"o":"m 579 197 b 349 -11 579 64 474 -6 l 300 -89 b 389 -111 336 -94 364 -100 b 461 -218 435 -132 461 -165 b 318 -354 461 -297 404 -354 b 194 -289 275 -354 225 -332 l 229 -243 b 321 -296 251 -279 288 -296 b 403 -219 372 -296 403 -268 b 326 -140 403 -174 369 -151 b 221 -131 299 -133 263 -131 l 290 -8 b 53 168 176 4 85 69 l 133 204 b 332 74 158 133 225 74 b 485 192 425 74 485 119 b 90 503 485 374 90 260 b 325 696 90 622 188 696 b 571 553 435 696 524 650 l 494 511 b 322 611 461 572 407 611 b 183 517 238 611 183 576 b 579 197 183 354 579 457 "},"ș":{"ha":647,"x_min":0,"x_max":0,"o":"m 333 -11 b 53 168 199 -11 89 58 l 133 204 b 332 74 158 133 225 74 b 485 192 425 74 485 119 b 90 503 485 374 90 260 b 325 696 90 622 188 696 b 571 553 435 696 524 650 l 494 511 b 322 611 461 572 407 611 b 183 517 238 611 183 576 b 579 197 183 354 579 457 b 333 -11 579 58 465 -11 m 275 -78 l 376 -78 l 214 -307 l 153 -307 "},"ß":{"ha":879,"x_min":0,"x_max":0,"o":"m 589 -11 b 311 169 454 -11 346 67 l 389 204 b 585 69 414 133 481 69 b 740 192 686 69 740 124 b 346 510 740 375 346 263 b 640 782 346 732 640 654 b 449 893 640 847 553 893 b 225 624 232 893 225 729 l 225 0 l 126 0 l 126 624 b 446 982 126 728 132 982 b 735 788 615 982 735 903 b 440 511 735 586 440 654 b 835 197 440 351 835 458 b 589 -11 835 58 722 -11 "},"t":{"ha":467,"x_min":0,"x_max":0,"o":"m 411 7 b 307 -11 375 -4 339 -11 b 149 161 215 -11 149 40 l 149 604 l 35 604 l 35 685 l 149 685 l 149 876 l 244 949 l 244 685 l 410 685 l 410 604 l 244 604 l 244 174 b 329 76 244 107 275 76 b 410 92 353 76 379 82 "},"ŧ":{"ha":467,"x_min":0,"x_max":0,"o":"m 411 7 b 307 -11 375 -4 339 -11 b 149 161 215 -11 149 40 l 149 310 l 32 310 l 32 375 l 149 375 l 149 604 l 35 604 l 35 685 l 149 685 l 149 876 l 244 949 l 244 685 l 410 685 l 410 604 l 244 604 l 244 375 l 407 375 l 407 310 l 244 310 l 244 174 b 329 76 244 107 275 76 b 410 92 353 76 379 82 "},"ť":{"ha":467,"x_min":0,"x_max":0,"o":"m 403 800 l 344 800 l 425 1089 l 525 1089 m 329 76 b 410 92 353 76 379 82 l 411 7 b 307 -11 375 -4 339 -11 b 149 161 215 -11 149 40 l 149 604 l 35 604 l 35 685 l 149 685 l 149 876 l 244 949 l 244 685 l 410 685 l 410 604 l 244 604 l 244 174 b 329 76 244 107 275 76 "},"ţ":{"ha":467,"x_min":0,"x_max":0,"o":"m 339 -111 b 411 -218 385 -132 411 -165 b 268 -354 411 -297 354 -354 b 144 -289 225 -354 175 -332 l 179 -243 b 271 -296 201 -279 238 -296 b 353 -219 322 -296 353 -268 b 276 -140 353 -174 319 -151 b 171 -131 249 -133 213 -131 l 244 -1 b 149 161 186 18 149 69 l 149 604 l 35 604 l 35 685 l 149 685 l 149 876 l 244 949 l 244 685 l 410 685 l 410 604 l 244 604 l 244 174 b 329 76 244 107 275 76 b 410 92 353 76 379 82 l 411 7 b 307 -11 375 -4 339 -11 l 299 -11 l 250 -89 b 339 -111 286 -94 314 -100 "},"ț":{"ha":467,"x_min":0,"x_max":0,"o":"m 149 604 l 35 604 l 35 685 l 149 685 l 149 876 l 244 949 l 244 685 l 410 685 l 410 604 l 244 604 l 244 174 b 329 76 244 107 275 76 b 410 92 353 76 379 82 l 411 7 b 307 -11 375 -4 339 -11 b 149 161 215 -11 149 40 m 225 -78 l 326 -78 l 164 -307 l 103 -307 "},"u":{"ha":782,"x_min":0,"x_max":0,"o":"m 656 685 l 656 0 l 560 0 l 560 99 b 333 -11 511 25 424 -11 b 110 265 178 -11 110 96 l 110 685 l 206 685 l 206 289 b 356 74 206 178 225 74 b 560 369 492 74 560 192 l 560 685 "},"ú":{"ha":782,"x_min":0,"x_max":0,"o":"m 419 772 l 346 772 l 496 968 l 599 968 m 656 685 l 656 0 l 560 0 l 560 99 b 333 -11 511 25 424 -11 b 110 265 178 -11 110 96 l 110 685 l 206 685 l 206 289 b 356 74 206 178 225 74 b 560 369 492 74 560 192 l 560 685 "},"ǔ":{"ha":782,"x_min":0,"x_max":0,"o":"m 382 756 l 175 968 l 254 968 l 382 836 l 510 968 l 589 968 m 656 685 l 656 0 l 560 0 l 560 99 b 333 -11 511 25 424 -11 b 110 265 178 -11 110 96 l 110 685 l 206 685 l 206 289 b 356 74 206 178 225 74 b 560 369 492 74 560 192 l 560 685 "},"û":{"ha":782,"x_min":0,"x_max":0,"o":"m 256 761 l 175 761 l 382 982 l 589 761 l 510 761 l 382 897 m 656 685 l 656 0 l 560 0 l 560 99 b 333 -11 511 25 424 -11 b 110 265 178 -11 110 96 l 110 685 l 206 685 l 206 289 b 356 74 206 178 225 74 b 560 369 492 74 560 192 l 560 685 "},"ü":{"ha":782,"x_min":0,"x_max":0,"o":"m 313 826 l 201 826 l 201 968 l 313 968 m 563 826 l 451 826 l 451 968 l 563 968 m 656 685 l 656 0 l 560 0 l 560 99 b 333 -11 511 25 424 -11 b 110 265 178 -11 110 96 l 110 685 l 206 685 l 206 289 b 356 74 206 178 225 74 b 560 369 492 74 560 192 l 560 685 "},"ǘ":{"ha":782,"x_min":0,"x_max":0,"o":"m 419 1056 l 346 1056 l 496 1251 l 599 1251 m 313 826 l 201 826 l 201 968 l 313 968 m 451 826 l 451 968 l 563 968 l 563 826 m 656 685 l 656 0 l 560 0 l 560 99 b 333 -11 511 25 424 -11 b 110 265 178 -11 110 96 l 110 685 l 206 685 l 206 289 b 356 74 206 178 225 74 b 560 369 492 74 560 192 l 560 685 "},"ǚ":{"ha":782,"x_min":0,"x_max":0,"o":"m 382 1039 l 175 1251 l 254 1251 l 382 1119 l 510 1251 l 589 1251 m 201 826 l 201 968 l 313 968 l 313 826 m 451 826 l 451 968 l 563 968 l 563 826 m 656 685 l 656 0 l 560 0 l 560 99 b 333 -11 511 25 424 -11 b 110 265 178 -11 110 96 l 110 685 l 206 685 l 206 289 b 356 74 206 178 225 74 b 560 369 492 74 560 192 l 560 685 "},"ǜ":{"ha":782,"x_min":0,"x_max":0,"o":"m 344 1056 l 172 1251 l 275 1251 l 419 1056 m 201 826 l 201 968 l 313 968 l 313 826 m 563 826 l 451 826 l 451 968 l 563 968 m 656 685 l 656 0 l 560 0 l 560 99 b 333 -11 511 25 424 -11 b 110 265 178 -11 110 96 l 110 685 l 206 685 l 206 289 b 356 74 206 178 225 74 b 560 369 492 74 560 192 l 560 685 "},"ǖ":{"ha":782,"x_min":0,"x_max":0,"o":"m 568 1115 l 193 1115 l 193 1174 l 568 1174 m 201 826 l 201 968 l 313 968 l 313 826 m 451 826 l 451 968 l 563 968 l 563 826 m 656 685 l 656 0 l 560 0 l 560 99 b 333 -11 511 25 424 -11 b 110 265 178 -11 110 96 l 110 685 l 206 685 l 206 289 b 356 74 206 178 225 74 b 560 369 492 74 560 192 l 560 685 "},"ụ":{"ha":782,"x_min":0,"x_max":0,"o":"m 656 685 l 656 0 l 560 0 l 560 99 b 333 -11 511 25 424 -11 b 110 265 178 -11 110 96 l 110 685 l 206 685 l 206 289 b 356 74 206 178 225 74 b 560 369 492 74 560 192 l 560 685 m 335 -100 l 446 -100 l 446 -240 l 335 -240 "},"ù":{"ha":782,"x_min":0,"x_max":0,"o":"m 344 772 l 172 968 l 275 968 l 419 772 m 656 685 l 656 0 l 560 0 l 560 99 b 333 -11 511 25 424 -11 b 110 265 178 -11 110 96 l 110 685 l 206 685 l 206 289 b 356 74 206 178 225 74 b 560 369 492 74 560 192 l 560 685 "},"ủ":{"ha":782,"x_min":0,"x_max":0,"o":"m 468 864 b 340 942 468 921 406 942 l 319 942 l 319 997 l 340 997 b 533 861 451 997 533 950 b 374 739 533 768 442 753 l 357 793 b 468 864 410 801 468 813 m 656 685 l 656 0 l 560 0 l 560 99 b 333 -11 511 25 424 -11 b 110 265 178 -11 110 96 l 110 685 l 206 685 l 206 289 b 356 74 206 178 225 74 b 560 369 492 74 560 192 l 560 685 "},"ư":{"ha":782,"x_min":0,"x_max":0,"o":"m 782 897 l 782 831 b 656 628 782 726 743 651 l 656 0 l 560 0 l 560 99 b 333 -11 511 25 424 -11 b 110 265 178 -11 110 96 l 110 685 l 206 685 l 206 289 b 356 74 206 178 225 74 b 560 369 492 74 560 192 l 560 685 l 590 685 b 708 824 678 685 708 744 l 708 897 "},"ứ":{"ha":782,"x_min":0,"x_max":0,"o":"m 419 772 l 346 772 l 496 968 l 599 968 m 782 897 l 782 831 b 656 628 782 726 743 651 l 656 0 l 560 0 l 560 99 b 333 -11 511 25 424 -11 b 110 265 178 -11 110 96 l 110 685 l 206 685 l 206 289 b 356 74 206 178 225 74 b 560 369 492 74 560 192 l 560 685 l 590 685 b 708 824 678 685 708 744 l 708 897 "},"ự":{"ha":782,"x_min":0,"x_max":0,"o":"m 782 897 l 782 831 b 656 628 782 726 743 651 l 656 0 l 560 0 l 560 99 b 333 -11 511 25 424 -11 b 110 265 178 -11 110 96 l 110 685 l 206 685 l 206 289 b 356 74 206 178 225 74 b 560 369 492 74 560 192 l 560 685 l 590 685 b 708 824 678 685 708 744 l 708 897 m 335 -100 l 446 -100 l 446 -240 l 335 -240 "},"ừ":{"ha":782,"x_min":0,"x_max":0,"o":"m 344 772 l 172 968 l 275 968 l 419 772 m 782 897 l 782 831 b 656 628 782 726 743 651 l 656 0 l 560 0 l 560 99 b 333 -11 511 25 424 -11 b 110 265 178 -11 110 96 l 110 685 l 206 685 l 206 289 b 356 74 206 178 225 74 b 560 369 492 74 560 192 l 560 685 l 590 685 b 708 824 678 685 708 744 l 708 897 "},"ử":{"ha":782,"x_min":0,"x_max":0,"o":"m 468 864 b 340 942 468 921 406 942 l 319 942 l 319 997 l 340 997 b 533 861 451 997 533 950 b 374 739 533 768 442 753 l 357 793 b 468 864 410 801 468 813 m 782 897 l 782 831 b 656 628 782 726 743 651 l 656 0 l 560 0 l 560 99 b 333 -11 511 25 424 -11 b 110 265 178 -11 110 96 l 110 685 l 206 685 l 206 289 b 356 74 206 178 225 74 b 560 369 492 74 560 192 l 560 685 l 590 685 b 708 824 678 685 708 744 l 708 897 "},"ữ":{"ha":782,"x_min":0,"x_max":0,"o":"m 288 913 b 218 804 244 913 218 872 l 161 804 b 290 974 161 911 211 974 b 478 854 394 974 403 854 b 542 968 514 854 542 897 l 601 968 b 478 792 601 858 551 792 b 288 913 363 792 361 913 m 782 897 l 782 831 b 656 628 782 726 743 651 l 656 0 l 560 0 l 560 99 b 333 -11 511 25 424 -11 b 110 265 178 -11 110 96 l 110 685 l 206 685 l 206 289 b 356 74 206 178 225 74 b 560 369 492 74 560 192 l 560 685 l 590 685 b 708 824 678 685 708 744 l 708 897 "},"ű":{"ha":782,"x_min":0,"x_max":0,"o":"m 300 757 l 226 757 l 376 968 l 464 968 m 463 757 l 613 968 l 715 968 l 536 757 m 560 685 l 656 685 l 656 0 l 560 0 l 560 99 b 333 -11 511 25 424 -11 b 110 265 178 -11 110 96 l 110 685 l 206 685 l 206 289 b 356 74 206 178 225 74 b 560 369 492 74 560 192 "},"ū":{"ha":782,"x_min":0,"x_max":0,"o":"m 568 832 l 193 832 l 193 890 l 568 890 m 656 685 l 656 0 l 560 0 l 560 99 b 333 -11 511 25 424 -11 b 110 265 178 -11 110 96 l 110 685 l 206 685 l 206 289 b 356 74 206 178 225 74 b 560 369 492 74 560 192 l 560 685 "},"ų":{"ha":782,"x_min":0,"x_max":0,"o":"m 711 -235 b 582 -297 678 -272 633 -297 b 456 -181 511 -297 456 -253 b 575 0 456 -100 518 -36 l 560 0 l 560 99 b 333 -11 511 25 424 -11 b 110 265 178 -11 110 96 l 110 685 l 206 685 l 206 289 b 356 74 206 178 225 74 b 560 369 492 74 560 192 l 560 685 l 656 685 l 656 0 b 515 -172 607 -29 515 -87 b 579 -235 515 -218 546 -235 b 664 -197 611 -235 639 -221 "},"ů":{"ha":782,"x_min":0,"x_max":0,"o":"m 382 749 b 247 883 307 749 247 810 b 382 1018 247 958 308 1018 b 517 883 454 1018 517 958 b 382 749 517 810 457 749 m 382 964 b 301 883 336 964 301 929 b 382 803 301 839 336 803 b 463 883 428 803 463 839 b 382 964 463 929 429 964 m 656 685 l 656 0 l 560 0 l 560 99 b 333 -11 511 25 424 -11 b 110 265 178 -11 110 96 l 110 685 l 206 685 l 206 289 b 356 74 206 178 225 74 b 560 369 492 74 560 192 l 560 685 "},"ũ":{"ha":782,"x_min":0,"x_max":0,"o":"m 288 913 b 218 804 244 913 218 872 l 161 804 b 290 974 161 911 211 974 b 478 854 394 974 403 854 b 542 968 514 854 542 897 l 601 968 b 478 792 601 858 551 792 b 288 913 363 792 361 913 m 656 685 l 656 0 l 560 0 l 560 99 b 333 -11 511 25 424 -11 b 110 265 178 -11 110 96 l 110 685 l 206 685 l 206 289 b 356 74 206 178 225 74 b 560 369 492 74 560 192 l 560 685 "},"v":{"ha":697,"x_min":0,"x_max":0,"o":"m 28 685 l 132 685 l 347 122 l 564 685 l 669 685 l 389 0 l 307 0 "},"w":{"ha":1026,"x_min":0,"x_max":0,"o":"m 39 685 l 142 685 l 289 144 l 469 685 l 557 685 l 736 144 l 885 685 l 986 685 l 786 0 l 696 0 l 514 553 l 329 0 l 240 0 "},"ẃ":{"ha":1026,"x_min":0,"x_max":0,"o":"m 626 968 l 729 968 l 550 772 l 476 772 m 39 685 l 142 685 l 289 144 l 469 685 l 557 685 l 736 144 l 885 685 l 986 685 l 786 0 l 696 0 l 514 553 l 329 0 l 240 0 "},"ŵ":{"ha":1026,"x_min":0,"x_max":0,"o":"m 513 982 l 719 761 l 640 761 l 513 897 l 386 761 l 306 761 m 39 685 l 142 685 l 289 144 l 469 685 l 557 685 l 736 144 l 885 685 l 986 685 l 786 0 l 696 0 l 514 553 l 329 0 l 240 0 "},"ẅ":{"ha":1026,"x_min":0,"x_max":0,"o":"m 332 968 l 443 968 l 443 826 l 332 826 m 582 968 l 693 968 l 693 826 l 582 826 m 39 685 l 142 685 l 289 144 l 469 685 l 557 685 l 736 144 l 885 685 l 986 685 l 786 0 l 696 0 l 514 553 l 329 0 l 240 0 "},"ẁ":{"ha":1026,"x_min":0,"x_max":0,"o":"m 303 968 l 406 968 l 550 772 l 475 772 m 39 685 l 142 685 l 289 144 l 469 685 l 557 685 l 736 144 l 885 685 l 986 685 l 786 0 l 696 0 l 514 553 l 329 0 l 240 0 "},"x":{"ha":699,"x_min":0,"x_max":0,"o":"m 286 343 l 36 685 l 153 685 l 350 410 l 546 685 l 663 685 l 413 343 l 664 0 l 546 0 l 350 278 l 154 0 l 36 0 "},"y":{"ha":708,"x_min":0,"x_max":0,"o":"m 315 8 l 25 685 l 131 685 l 367 121 l 574 685 l 679 685 l 304 -283 l 201 -283 "},"ý":{"ha":708,"x_min":0,"x_max":0,"o":"m 468 968 l 571 968 l 392 772 l 318 772 m 315 8 l 25 685 l 131 685 l 367 121 l 574 685 l 679 685 l 304 -283 l 201 -283 "},"ŷ":{"ha":708,"x_min":0,"x_max":0,"o":"m 354 982 l 561 761 l 482 761 l 354 897 l 228 761 l 147 761 m 315 8 l 25 685 l 131 685 l 367 121 l 574 685 l 679 685 l 304 -283 l 201 -283 "},"ÿ":{"ha":708,"x_min":0,"x_max":0,"o":"m 174 968 l 285 968 l 285 826 l 174 826 m 424 968 l 535 968 l 535 826 l 424 826 m 315 8 l 25 685 l 131 685 l 367 121 l 574 685 l 679 685 l 304 -283 l 201 -283 "},"ỵ":{"ha":708,"x_min":0,"x_max":0,"o":"m 315 8 l 25 685 l 131 685 l 367 121 l 574 685 l 679 685 l 304 -283 l 201 -283 m 511 -143 l 622 -143 l 622 -283 l 511 -283 "},"ỳ":{"ha":708,"x_min":0,"x_max":0,"o":"m 144 968 l 247 968 l 392 772 l 317 772 m 315 8 l 25 685 l 131 685 l 367 121 l 574 685 l 679 685 l 304 -283 l 201 -283 "},"ỷ":{"ha":708,"x_min":0,"x_max":0,"o":"m 329 793 b 440 864 382 801 440 813 b 313 942 440 921 378 942 l 292 942 l 292 997 l 313 997 b 506 861 424 997 506 950 b 346 739 506 768 414 753 m 315 8 l 25 685 l 131 685 l 367 121 l 574 685 l 679 685 l 304 -283 l 201 -283 "},"ỹ":{"ha":708,"x_min":0,"x_max":0,"o":"m 450 792 b 260 913 335 792 333 913 b 190 804 217 913 190 872 l 133 804 b 263 974 133 911 183 974 b 450 854 367 974 375 854 b 514 968 486 854 514 897 l 574 968 b 450 792 574 858 524 792 m 315 8 l 25 685 l 131 685 l 367 121 l 574 685 l 679 685 l 304 -283 l 201 -283 "},"z":{"ha":676,"x_min":0,"x_max":0,"o":"m 621 608 l 175 82 l 618 82 l 618 0 l 49 0 l 49 69 l 504 603 l 72 603 l 72 685 l 621 685 "},"ź":{"ha":676,"x_min":0,"x_max":0,"o":"m 376 772 l 303 772 l 453 968 l 556 968 m 621 608 l 175 82 l 618 82 l 618 0 l 49 0 l 49 69 l 504 603 l 72 603 l 72 685 l 621 685 "},"ž":{"ha":676,"x_min":0,"x_max":0,"o":"m 339 756 l 132 968 l 211 968 l 339 836 l 467 968 l 546 968 m 621 608 l 175 82 l 618 82 l 618 0 l 49 0 l 49 69 l 504 603 l 72 603 l 72 685 l 621 685 "},"ż":{"ha":676,"x_min":0,"x_max":0,"o":"m 394 826 l 283 826 l 283 968 l 394 968 m 621 608 l 175 82 l 618 82 l 618 0 l 49 0 l 49 69 l 504 603 l 72 603 l 72 685 l 621 685 "},"ﬁ":{"ha":718,"x_min":0,"x_max":0,"o":"m 599 0 l 503 0 l 503 604 l 238 604 l 238 0 l 142 0 l 142 604 l 24 604 l 24 685 l 142 685 l 142 740 b 386 979 142 903 251 979 b 599 914 469 979 536 957 l 553 847 b 390 900 507 881 457 900 b 238 739 292 900 238 851 l 238 685 l 599 685 "},"ﬂ":{"ha":758,"x_min":0,"x_max":0,"o":"m 635 -11 b 504 158 558 -11 504 32 l 504 864 b 378 900 468 888 426 900 b 233 739 285 900 233 851 l 233 685 l 385 685 l 383 604 l 233 604 l 233 0 l 138 0 l 138 604 l 24 604 l 24 685 l 138 685 l 138 740 b 374 979 138 903 243 979 b 599 913 460 979 514 963 l 599 156 b 664 76 599 89 624 76 b 729 89 681 76 704 81 l 729 7 b 635 -11 696 -3 664 -11 "},"ª":{"ha":646,"x_min":0,"x_max":0,"o":"m 271 482 b 107 626 179 482 107 539 b 308 771 107 726 186 771 l 449 771 b 446 804 449 783 447 788 b 314 925 439 888 394 925 b 171 844 247 925 206 893 l 122 876 b 315 979 174 946 226 979 b 506 786 436 979 506 907 l 506 490 l 451 490 l 450 581 b 271 482 407 515 346 482 m 281 539 b 440 646 353 539 408 578 b 449 718 444 672 447 694 l 313 718 b 169 626 219 718 169 686 b 281 539 169 574 219 539 "},"º":{"ha":678,"x_min":0,"x_max":0,"o":"m 339 490 b 104 735 203 490 104 599 b 339 979 104 869 203 979 b 574 735 475 979 574 869 b 339 490 574 599 475 490 m 339 550 b 506 735 444 550 506 631 b 339 919 506 839 444 919 b 172 735 233 919 172 839 b 339 550 172 631 233 550 "},"Δ":{"ha":889,"x_min":0,"x_max":0,"o":"m 444 968 l 471 968 l 851 0 l 63 0 m 733 82 l 457 803 l 181 82 "},"Ω":{"ha":1088,"x_min":0,"x_max":0,"o":"m 96 78 l 382 78 l 364 96 b 135 501 229 172 135 333 b 558 933 135 746 307 933 b 978 500 808 933 978 746 b 749 94 978 328 885 163 l 731 78 l 1017 78 l 1017 0 l 644 0 l 644 114 b 893 499 794 169 893 304 b 557 851 893 707 763 851 b 221 501 350 851 221 704 b 468 113 221 314 317 181 l 468 0 l 96 0 "},"μ":{"ha":799,"x_min":0,"x_max":0,"o":"m 126 685 l 221 685 l 221 274 b 389 78 221 151 279 78 b 578 282 504 78 578 150 l 578 685 l 674 685 l 674 0 l 578 0 l 578 114 b 364 -11 533 29 450 -11 b 204 69 290 -11 235 17 l 204 -237 l 126 -237 "},"π":{"ha":735,"x_min":0,"x_max":0,"o":"m 622 -11 b 469 172 490 -11 469 81 l 469 603 l 222 603 l 222 0 l 140 0 l 140 603 l 69 603 l 69 685 l 643 685 l 643 603 l 550 603 l 550 185 b 631 61 550 101 572 61 b 678 72 643 61 663 65 l 704 8 b 622 -11 679 -4 653 -11 "},"⁄":{"ha":197,"x_min":0,"x_max":0,"o":"m 336 968 l 406 968 l -140 0 l -210 0 "},".":{"ha":472,"x_min":0,"x_max":0,"o":"m 174 153 l 299 153 l 299 0 l 174 0 "},",":{"ha":458,"x_min":0,"x_max":0,"o":"m 239 179 l 363 179 l 179 -215 l 114 -215 "},":":{"ha":476,"x_min":0,"x_max":0,"o":"m 176 654 l 300 654 l 300 501 l 176 501 m 176 153 l 300 153 l 300 0 l 176 0 "},";":{"ha":469,"x_min":0,"x_max":0,"o":"m 210 654 l 335 654 l 335 501 l 210 501 m 207 179 l 331 179 l 147 -215 l 82 -215 "},"…":{"ha":1039,"x_min":0,"x_max":0,"o":"m 174 153 l 299 153 l 299 0 l 174 0 m 457 153 l 582 153 l 582 0 l 457 0 m 740 153 l 865 153 l 865 0 l 740 0 "},"!":{"ha":449,"x_min":0,"x_max":0,"o":"m 176 968 l 272 968 l 261 274 l 188 274 m 163 153 l 286 153 l 286 0 l 163 0 "},"¡":{"ha":447,"x_min":0,"x_max":0,"o":"m 285 532 l 161 532 l 161 685 l 285 685 m 271 -283 l 175 -283 l 186 411 l 260 411 "},"?":{"ha":735,"x_min":0,"x_max":0,"o":"m 321 385 b 564 724 321 593 564 535 b 358 899 564 839 485 899 b 158 707 231 899 160 826 l 74 707 b 356 979 74 876 188 979 b 649 722 525 979 649 888 b 403 383 649 479 403 515 l 403 271 l 321 271 m 300 153 l 425 153 l 425 0 l 300 0 "},"¿":{"ha":733,"x_min":0,"x_max":0,"o":"m 433 532 l 308 532 l 308 685 l 433 685 m 413 300 b 169 -39 413 92 169 150 b 375 -214 169 -154 249 -214 b 575 -22 503 -214 574 -142 l 660 -22 b 378 -294 660 -192 546 -294 b 85 -37 208 -294 85 -203 b 331 301 85 206 331 169 l 331 414 l 413 414 "},"·":{"ha":479,"x_min":0,"x_max":0,"o":"m 239 410 b 147 503 189 410 147 451 b 239 594 147 554 188 594 b 331 503 290 594 331 554 b 239 410 331 451 290 410 "},"•":{"ha":594,"x_min":0,"x_max":0,"o":"m 297 167 b 135 329 207 167 135 240 b 297 493 135 419 207 493 b 460 329 388 493 460 419 b 297 167 460 240 388 167 "},"*":{"ha":638,"x_min":0,"x_max":0,"o":"m 160 633 l 275 760 l 111 785 l 142 876 l 292 810 l 269 968 l 365 968 l 343 810 l 493 876 l 524 785 l 358 760 l 474 633 l 394 578 l 317 736 l 238 578 "},"#":{"ha":979,"x_min":0,"x_max":0,"o":"m 251 293 l 82 293 l 82 363 l 267 363 l 321 622 l 140 622 l 140 694 l 335 694 l 396 968 l 472 968 l 414 692 l 651 692 l 710 968 l 786 968 l 726 692 l 899 692 l 899 622 l 711 622 l 657 363 l 842 363 l 842 293 l 643 293 l 581 0 l 504 0 l 565 293 l 326 293 l 267 0 l 190 0 m 582 363 l 635 622 l 397 622 l 343 363 "},"/":{"ha":613,"x_min":0,"x_max":0,"o":"m 508 968 l 600 968 l 103 -293 l 13 -293 "},"\\":{"ha":613,"x_min":0,"x_max":0,"o":"m 510 -293 l 13 968 l 104 968 l 600 -293 "},"‣":{"ha":626,"x_min":0,"x_max":0,"o":"m 176 560 l 544 347 l 176 136 "},"‥":{"ha":728,"x_min":0,"x_max":0,"o":"m 174 153 l 271 153 l 271 0 l 174 0 m 457 153 l 554 153 l 554 0 l 457 0 "},"(":{"ha":400,"x_min":0,"x_max":0,"o":"m 263 -46 b 100 483 160 69 100 307 b 261 1013 100 694 157 889 l 350 1013 b 176 481 225 858 176 664 b 349 -46 176 279 236 94 l 263 -46 "},")":{"ha":400,"x_min":0,"x_max":0,"o":"m 51 -46 b 224 481 164 94 224 279 b 50 1013 224 664 175 858 l 139 1013 b 300 483 243 889 300 694 b 138 -46 300 307 240 69 "},"{":{"ha":432,"x_min":0,"x_max":0,"o":"m 297 -96 b 156 78 206 -96 156 -28 l 156 319 b 72 417 156 375 124 400 l 72 488 b 156 597 125 503 156 529 l 156 856 b 304 1026 156 965 206 1026 l 379 1026 l 379 963 l 335 963 b 238 854 272 963 238 932 l 238 596 b 150 456 238 531 218 481 l 150 449 b 238 321 213 424 238 381 l 238 81 b 328 -31 238 13 268 -31 l 379 -31 l 379 -96 l 297 -96 "},"}":{"ha":432,"x_min":0,"x_max":0,"o":"m 53 -31 l 104 -31 b 194 81 164 -31 194 13 l 194 321 b 282 449 194 389 228 426 l 282 456 b 194 596 222 478 194 519 l 194 854 b 97 963 194 913 176 963 l 53 963 l 53 1026 l 128 1026 b 276 856 226 1026 276 967 l 276 597 b 360 488 276 524 313 501 l 360 417 b 276 319 315 401 276 381 l 276 78 b 135 -96 276 -26 228 -96 l 53 -96 "},"[":{"ha":463,"x_min":0,"x_max":0,"o":"m 151 1053 l 410 1053 l 410 988 l 229 988 l 229 -21 l 410 -21 l 410 -87 l 151 -87 "},"]":{"ha":463,"x_min":0,"x_max":0,"o":"m 53 -21 l 233 -21 l 233 988 l 53 988 l 53 1053 l 311 1053 l 311 -87 l 53 -87 "},"-":{"ha":610,"x_min":0,"x_max":0,"o":"m 119 463 l 490 463 l 490 389 l 119 389 "},"­":{"ha":708,"x_min":0,"x_max":0,"o":"m 119 463 l 589 463 l 589 389 l 119 389 "},"–":{"ha":736,"x_min":0,"x_max":0,"o":"m 119 463 l 617 463 l 617 389 l 119 389 "},"—":{"ha":1403,"x_min":0,"x_max":0,"o":"m 0 463 l 1403 463 l 1403 389 l 0 389 "},"―":{"ha":1074,"x_min":0,"x_max":0,"o":"m 119 463 l 954 463 l 954 389 l 119 389 "},"_":{"ha":793,"x_min":0,"x_max":0,"o":"m 119 0 l 674 0 l 674 -74 l 119 -74 "},"‚":{"ha":403,"x_min":0,"x_max":0,"o":"m 222 179 l 332 179 l 149 -215 l 83 -215 "},"„":{"ha":644,"x_min":0,"x_max":0,"o":"m 222 179 l 332 179 l 149 -215 l 83 -215 m 464 179 l 574 179 l 390 -215 l 325 -215 "},"“":{"ha":636,"x_min":0,"x_max":0,"o":"m 253 968 l 318 968 l 179 572 l 69 572 m 486 968 l 553 968 l 413 572 l 303 572 "},"”":{"ha":638,"x_min":0,"x_max":0,"o":"m 222 968 l 332 968 l 149 574 l 83 574 m 456 968 l 567 968 l 382 574 l 317 574 "},"‘":{"ha":401,"x_min":0,"x_max":0,"o":"m 253 968 l 318 968 l 179 572 l 69 572 "},"’":{"ha":403,"x_min":0,"x_max":0,"o":"m 222 968 l 332 968 l 149 574 l 83 574 "},"«":{"ha":693,"x_min":0,"x_max":0,"o":"m 51 350 l 324 583 l 324 499 l 151 350 l 324 201 l 324 117 m 311 350 l 583 583 l 583 499 l 411 350 l 583 201 l 583 117 "},"»":{"ha":692,"x_min":0,"x_max":0,"o":"m 107 201 l 279 350 l 107 499 l 107 583 l 379 350 l 107 117 m 367 201 l 539 350 l 367 499 l 367 583 l 639 350 l 367 117 "},"‹":{"ha":433,"x_min":0,"x_max":0,"o":"m 51 350 l 324 583 l 324 499 l 151 350 l 324 201 l 324 117 "},"›":{"ha":432,"x_min":0,"x_max":0,"o":"m 107 201 l 279 350 l 107 499 l 107 583 l 379 350 l 107 117 "},"\"":{"ha":601,"x_min":0,"x_max":0,"o":"m 150 968 l 232 968 l 232 640 l 150 640 m 369 968 l 451 968 l 451 640 l 369 640 "},"'":{"ha":382,"x_min":0,"x_max":0,"o":"m 150 968 l 232 968 l 232 660 l 150 660 "}," ":{"ha":386,"x_min":0,"x_max":0,"o":""},"₳":{"ha":1117,"x_min":0,"x_max":0,"o":"m 233 210 l 132 210 l 132 296 l 267 296 l 317 432 l 132 432 l 132 518 l 351 518 l 518 968 l 600 968 l 767 518 l 985 518 l 985 432 l 800 432 l 850 296 l 985 296 l 985 210 l 885 210 l 961 0 l 853 0 l 781 210 l 339 210 l 265 0 l 156 0 m 668 518 l 560 828 l 451 518 m 749 296 l 700 432 l 419 432 l 371 296 "},"¢":{"ha":819,"x_min":0,"x_max":0,"o":"m 433 74 b 614 213 519 74 588 125 l 703 179 b 468 -10 661 67 575 1 l 468 -156 l 381 -157 l 381 -7 b 124 340 215 19 124 168 b 381 692 124 506 208 665 l 381 835 l 468 835 l 468 694 b 710 507 574 683 661 622 l 618 471 b 432 611 586 558 518 611 b 221 340 286 611 221 481 b 433 74 221 200 286 74 "},"¤":{"ha":981,"x_min":0,"x_max":0,"o":"m 175 171 l 243 240 b 243 628 151 353 153 517 l 176 696 l 228 750 l 296 681 b 685 681 407 771 572 774 l 753 749 l 806 697 l 736 629 b 736 240 829 517 828 350 l 806 171 l 754 118 l 685 188 b 296 188 572 96 406 97 l 226 118 m 318 264 b 660 264 415 167 567 169 b 661 604 756 360 757 508 b 318 604 567 699 413 699 b 318 264 226 511 225 357 "},"$":{"ha":865,"x_min":0,"x_max":0,"o":"m 756 253 b 486 -12 756 103 660 1 l 486 -158 l 399 -160 l 399 -11 b 103 256 242 4 126 107 l 201 279 b 444 75 219 154 314 75 b 656 244 585 75 656 149 b 425 468 656 349 596 403 b 161 738 229 542 161 611 b 394 979 161 872 254 965 l 394 1122 l 482 1122 l 482 979 b 713 825 582 967 661 914 l 629 774 b 433 893 588 849 517 893 b 260 742 332 893 260 824 b 479 547 260 653 326 606 b 756 253 694 465 756 388 "},"€":{"ha":1022,"x_min":0,"x_max":0,"o":"m 915 81 b 635 -11 843 21 751 -11 b 206 353 394 -11 249 136 l 114 353 l 115 419 l 196 419 b 193 493 194 443 193 468 b 197 568 193 518 194 543 l 115 568 l 115 633 l 208 633 b 640 979 254 839 404 979 b 910 899 747 979 839 954 l 857 817 b 640 885 803 860 733 885 b 308 633 463 885 350 783 l 758 633 l 757 568 l 296 568 b 290 492 292 543 290 518 b 294 419 290 467 292 443 l 757 419 l 756 353 l 306 353 b 635 83 343 192 454 83 b 863 161 732 83 807 113 "},"ƒ":{"ha":710,"x_min":0,"x_max":0,"o":"m 89 -236 b 288 -33 249 -236 288 -164 l 288 611 l 169 611 l 169 685 l 288 685 l 288 774 b 471 983 288 899 365 983 b 621 924 524 983 574 964 l 569 861 b 471 903 535 890 506 903 b 369 774 413 903 369 858 l 369 685 l 553 685 l 553 611 l 369 611 l 369 -40 b 89 -310 369 -226 272 -310 "},"₴":{"ha":1026,"x_min":0,"x_max":0,"o":"m 899 625 l 899 556 l 124 556 l 124 625 l 638 625 b 694 735 672 653 694 688 b 522 890 694 825 621 890 b 325 771 436 890 369 851 l 243 822 b 526 979 303 929 406 979 b 788 751 676 979 788 879 b 740 625 788 703 769 661 m 124 444 l 899 444 l 899 376 l 360 376 b 300 253 319 340 300 297 b 511 79 300 154 383 79 b 750 263 632 79 725 143 l 846 233 b 513 -10 807 74 668 -10 b 206 244 331 -10 206 101 b 246 376 206 290 218 335 l 124 376 "},"₱":{"ha":976,"x_min":0,"x_max":0,"o":"m 882 661 l 811 661 b 493 422 796 514 682 422 l 315 422 l 315 0 l 217 0 l 217 661 l 126 661 l 126 729 l 217 729 l 217 968 l 493 968 b 811 729 696 968 797 875 l 882 729 m 315 729 l 711 729 b 493 875 697 822 626 875 l 315 875 m 493 515 b 711 661 629 515 699 568 l 315 661 l 315 515 l 493 515 "},"₽":{"ha":956,"x_min":0,"x_max":0,"o":"m 249 218 l 124 218 l 124 286 l 249 286 l 249 429 l 124 429 l 124 515 l 249 515 l 249 968 l 517 968 b 843 693 711 968 843 867 b 517 429 843 519 713 429 l 347 429 l 347 286 l 568 286 l 568 218 l 347 218 l 347 0 l 249 0 m 517 515 b 744 693 668 515 744 578 b 517 875 744 807 665 875 l 347 875 l 347 515 "},"£":{"ha":881,"x_min":0,"x_max":0,"o":"m 390 296 b 253 82 390 178 315 114 l 763 82 l 763 0 l 124 0 l 124 93 b 311 297 229 124 311 206 b 265 461 311 350 285 407 l 128 461 l 128 542 l 244 542 b 218 697 231 579 218 642 b 496 981 218 857 328 981 b 769 776 629 981 732 903 l 693 747 b 497 899 664 851 588 899 b 300 694 381 899 300 821 b 329 542 300 642 313 583 l 622 542 l 622 461 l 349 461 b 390 296 367 408 390 357 "},"₸":{"ha":1008,"x_min":0,"x_max":0,"o":"m 119 968 l 889 968 l 889 885 l 119 885 m 456 667 l 119 667 l 119 750 l 889 750 l 889 667 l 554 667 l 554 0 l 456 0 "},"¥":{"ha":1017,"x_min":0,"x_max":0,"o":"m 457 153 l 211 153 l 211 231 l 457 231 l 457 365 l 211 365 l 211 443 l 413 443 l 89 968 l 210 968 l 508 467 l 807 968 l 928 968 l 606 443 l 806 443 l 806 365 l 560 365 l 560 231 l 806 231 l 806 153 l 560 153 l 560 0 l 457 0 "},"+":{"ha":888,"x_min":0,"x_max":0,"o":"m 404 389 l 93 389 l 93 469 l 404 469 l 404 781 l 485 781 l 485 469 l 794 469 l 794 389 l 485 389 l 485 78 l 404 78 "},"−":{"ha":861,"x_min":0,"x_max":0,"o":"m 183 472 l 678 472 l 678 392 l 183 392 "},"×":{"ha":775,"x_min":0,"x_max":0,"o":"m 111 211 l 332 432 l 111 653 l 168 710 l 388 489 l 608 708 l 664 653 l 444 432 l 664 211 l 608 156 l 388 375 l 168 156 "},"÷":{"ha":694,"x_min":0,"x_max":0,"o":"m 294 758 l 399 758 l 399 606 l 294 606 m 94 472 l 599 472 l 599 392 l 94 392 m 294 250 l 399 250 l 399 99 l 294 99 "},"=":{"ha":914,"x_min":0,"x_max":0,"o":"m 188 636 l 726 636 l 726 556 l 188 556 m 188 367 l 726 367 l 726 285 l 188 285 "},"≠":{"ha":833,"x_min":0,"x_max":0,"o":"m 267 285 l 146 285 l 146 367 l 314 367 l 421 556 l 146 556 l 146 636 l 469 636 l 654 968 l 724 968 l 539 636 l 686 636 l 686 556 l 490 556 l 383 367 l 686 367 l 686 285 l 336 285 l 176 0 l 107 0 "},">":{"ha":896,"x_min":0,"x_max":0,"o":"m 100 93 l 669 418 l 100 744 l 136 808 l 819 418 l 136 29 "},"<":{"ha":896,"x_min":0,"x_max":0,"o":"m 76 418 l 760 808 l 796 744 l 225 418 l 796 93 l 760 29 "},"≥":{"ha":936,"x_min":0,"x_max":0,"o":"m 131 219 l 700 544 l 131 871 l 167 935 l 849 544 l 167 156 m 107 0 l 807 0 l 807 -74 l 107 -74 "},"≤":{"ha":938,"x_min":0,"x_max":0,"o":"m 88 544 l 771 935 l 807 871 l 236 544 l 807 219 l 771 156 m 129 0 l 829 0 l 829 -74 l 129 -74 "},"±":{"ha":936,"x_min":0,"x_max":0,"o":"m 432 447 l 107 447 l 107 522 l 432 522 l 432 839 l 506 839 l 506 522 l 831 522 l 831 447 l 506 447 l 506 129 l 432 129 m 107 0 l 824 0 l 824 -74 l 107 -74 "},"≈":{"ha":875,"x_min":0,"x_max":0,"o":"m 557 488 b 313 658 411 488 418 658 b 225 521 258 658 225 604 l 151 521 b 313 724 151 644 215 724 b 557 554 464 724 458 554 b 647 707 611 554 647 615 l 722 707 b 557 488 722 578 657 488 m 557 182 b 313 353 411 182 418 353 b 225 215 258 353 225 300 l 151 215 b 313 419 151 339 215 419 b 557 249 464 419 458 249 b 647 401 611 249 647 310 l 722 401 b 557 182 722 271 657 182 "},"~":{"ha":875,"x_min":0,"x_max":0,"o":"m 558 254 b 314 424 413 254 419 424 b 226 286 260 424 226 371 l 153 286 b 314 490 153 410 217 490 b 558 319 465 490 460 319 b 649 472 613 319 649 382 l 724 472 b 558 254 724 343 658 254 "},"¬":{"ha":925,"x_min":0,"x_max":0,"o":"m 644 460 l 115 460 l 115 546 l 736 546 l 736 199 l 644 199 "},"^":{"ha":814,"x_min":0,"x_max":0,"o":"m 406 1004 l 728 311 l 626 311 l 406 819 l 189 311 l 86 311 "},"∞":{"ha":1403,"x_min":0,"x_max":0,"o":"m 397 244 b 135 501 240 244 135 356 b 397 756 135 646 240 756 b 697 567 513 756 619 676 b 1006 756 785 681 894 756 b 1268 501 1161 756 1268 646 b 1006 244 1268 356 1161 244 b 697 433 893 244 785 321 b 397 244 615 318 507 244 m 408 322 b 654 501 488 322 581 381 b 408 678 579 621 488 678 b 221 501 300 678 221 604 b 408 322 221 397 300 322 m 993 322 b 1182 501 1101 322 1182 397 b 993 678 1182 604 1101 678 b 740 501 906 678 814 607 b 993 322 815 393 904 322 "},"∫":{"ha":701,"x_min":0,"x_max":0,"o":"m 71 -243 b 292 -42 250 -243 292 -167 l 292 776 b 488 983 292 894 378 983 b 633 928 538 983 589 965 l 582 865 b 488 903 550 892 514 903 b 374 774 425 903 374 853 l 374 -43 b 71 -324 374 -231 264 -324 "},"Ω":{"ha":1154,"x_min":0,"x_max":0,"o":"m 117 78 l 403 78 l 385 96 b 156 501 250 172 156 333 b 579 933 156 746 328 933 b 999 500 829 933 999 746 b 769 94 999 328 906 163 l 751 78 l 1038 78 l 1038 0 l 665 0 l 665 114 b 914 499 815 169 914 304 b 578 851 914 707 783 851 b 242 501 371 851 242 704 b 489 113 242 314 338 181 l 489 0 l 117 0 "},"∆":{"ha":950,"x_min":0,"x_max":0,"o":"m 463 968 l 489 968 l 869 0 l 81 0 m 751 82 l 475 803 l 199 82 "},"∏":{"ha":938,"x_min":0,"x_max":0,"o":"m 200 886 l 128 886 l 128 968 l 810 968 l 810 886 l 738 886 l 738 0 l 657 0 l 657 886 l 281 886 l 281 0 l 200 0 "},"∑":{"ha":921,"x_min":0,"x_max":0,"o":"m 818 878 l 242 878 l 619 483 l 242 90 l 818 90 l 818 0 l 97 0 l 97 63 l 489 483 l 97 906 l 97 968 l 818 968 "},"√":{"ha":886,"x_min":0,"x_max":0,"o":"m 183 382 l 81 382 l 81 463 l 242 463 l 372 113 l 721 968 l 808 968 l 368 -97 "},"µ":{"ha":899,"x_min":0,"x_max":0,"o":"m 190 685 l 285 685 l 285 274 b 453 78 285 151 343 78 b 642 282 568 78 642 150 l 642 685 l 738 685 l 738 0 l 642 0 l 642 114 b 428 -11 597 29 514 -11 b 268 69 353 -11 299 17 l 268 -237 l 190 -237 "},"∂":{"ha":942,"x_min":0,"x_max":0,"o":"m 413 -8 b 113 300 228 -8 113 119 b 488 699 113 536 282 699 b 711 524 613 699 679 606 b 708 622 714 551 711 592 b 475 906 692 817 606 906 b 268 771 390 906 306 869 l 196 794 b 483 978 242 911 346 978 b 810 513 708 978 810 796 b 413 -8 810 229 678 -8 m 418 75 b 707 351 590 75 688 210 b 499 619 718 467 660 619 b 201 301 313 619 201 474 b 418 75 201 158 296 75 "},"%":{"ha":1051,"x_min":0,"x_max":0,"o":"m 282 542 b 97 760 160 542 97 650 b 278 979 97 869 158 979 b 461 758 385 979 461 885 b 282 542 461 635 386 542 m 764 968 l 833 968 l 288 0 l 217 0 m 282 608 b 394 758 347 608 394 671 b 278 913 394 842 353 913 b 164 760 197 913 164 835 b 282 608 164 685 199 608 m 775 -11 b 590 208 651 -11 590 100 b 771 426 590 317 651 426 b 954 207 878 426 954 332 b 775 -11 954 82 879 -11 m 775 56 b 888 207 842 56 888 119 b 771 360 888 289 847 360 b 657 208 692 360 657 283 b 775 56 657 133 692 56 "},"‱":{"ha":1910,"x_min":0,"x_max":0,"o":"m 282 542 b 97 760 160 542 97 650 b 278 979 97 869 158 979 b 461 758 385 979 461 885 b 282 542 461 635 386 542 m 764 968 l 833 968 l 288 0 l 217 0 m 282 608 b 394 758 347 608 394 671 b 278 913 394 842 353 913 b 164 760 197 913 164 835 b 282 608 164 685 199 608 m 775 -11 b 590 208 651 -11 590 100 b 771 426 590 317 651 426 b 954 207 878 426 954 332 b 775 -11 954 82 879 -11 m 1204 -11 b 1019 208 1082 -11 1019 99 b 1200 426 1019 317 1081 426 b 1383 207 1307 426 1383 332 b 1204 -11 1383 83 1308 -11 m 1633 -11 b 1449 208 1511 -11 1449 99 b 1629 426 1449 317 1510 426 b 1813 207 1735 426 1813 333 b 1633 -11 1813 82 1736 -11 m 775 56 b 888 207 842 56 888 119 b 771 360 888 289 847 360 b 657 208 692 360 657 283 b 775 56 657 133 692 56 m 1204 56 b 1317 207 1269 56 1317 119 b 1200 360 1317 289 1276 360 b 1086 208 1119 360 1086 282 b 1204 56 1086 132 1121 56 m 1633 56 b 1746 207 1699 56 1746 119 b 1629 360 1746 288 1706 360 b 1515 208 1549 360 1515 282 b 1633 56 1515 132 1550 56 "},"‰":{"ha":1481,"x_min":0,"x_max":0,"o":"m 282 542 b 97 760 160 542 97 650 b 278 979 97 869 158 979 b 461 758 385 979 461 885 b 282 542 461 635 386 542 m 764 968 l 833 968 l 286 0 l 217 0 m 282 608 b 394 758 347 608 394 671 b 278 913 394 842 353 913 b 164 760 197 913 164 835 b 282 608 164 685 199 608 m 775 -11 b 590 208 651 -11 590 100 b 771 426 590 317 651 426 b 954 207 878 426 954 332 b 775 -11 954 82 879 -11 m 1204 -11 b 1019 208 1082 -11 1019 99 b 1200 426 1019 317 1081 426 b 1383 207 1307 426 1383 332 b 1204 -11 1383 83 1308 -11 m 775 56 b 888 207 842 56 888 119 b 771 360 888 289 847 360 b 657 208 692 360 657 283 b 775 56 657 133 692 56 m 1204 56 b 1317 207 1269 56 1317 119 b 1200 360 1317 289 1276 360 b 1086 208 1119 360 1086 282 b 1204 56 1086 132 1121 56 "},"→":{"ha":1503,"x_min":0,"x_max":0,"o":"m 713 111 l 1210 390 l 0 389 l 0 463 l 1210 463 l 713 739 l 744 804 l 1425 426 l 744 47 "},"←":{"ha":1590,"x_min":0,"x_max":0,"o":"m 78 438 l 758 814 l 790 749 l 296 475 l 1503 474 l 1503 400 l 294 401 l 790 124 l 758 58 "},"◊":{"ha":831,"x_min":0,"x_max":0,"o":"m 89 483 l 346 968 l 485 968 l 742 483 l 485 0 l 346 0 m 425 53 l 646 483 l 425 915 l 404 915 l 185 483 l 404 53 "},"":{"ha":1236,"x_min":0,"x_max":0,"o":"m 618 -14 b 93 511 328 -14 93 222 b 618 1036 93 800 328 1036 b 1143 511 908 1036 1143 800 b 618 -14 1143 222 908 -14 m 618 36 b 1093 511 881 36 1093 250 b 618 986 1093 772 881 986 b 143 511 356 986 143 772 b 618 36 143 250 356 36 m 318 301 b 293 326 304 301 293 313 l 293 694 b 318 719 293 708 304 719 b 343 694 332 719 343 708 l 343 326 b 318 301 343 313 332 301 m 618 301 b 593 326 604 301 593 313 l 593 694 b 618 719 593 708 604 719 b 643 694 632 719 643 708 l 643 326 b 618 301 643 313 632 301 m 921 301 b 903 308 914 301 907 304 l 701 494 b 694 511 696 499 694 506 b 701 528 694 517 697 524 l 900 710 b 919 719 907 717 913 719 b 943 696 928 719 943 713 b 936 679 943 690 942 685 l 753 511 l 936 342 b 943 325 940 338 943 332 b 921 301 943 314 933 301 m 418 486 b 393 511 404 486 393 497 b 418 536 393 525 404 536 l 518 536 b 543 511 532 536 543 525 b 518 486 543 497 532 486 l 418 486 "},"@":{"ha":1457,"x_min":0,"x_max":0,"o":"m 722 -242 b 113 356 389 -242 113 -15 b 736 983 113 711 367 983 b 1346 379 1104 983 1346 714 b 1032 -46 1346 169 1249 -46 b 879 101 943 -46 886 1 b 878 188 876 138 876 147 b 631 36 822 100 736 36 b 417 288 489 36 417 144 b 756 719 417 471 535 719 b 942 571 858 719 922 665 l 965 685 l 1044 683 b 942 161 1017 540 951 300 b 1029 33 936 83 954 33 b 1271 381 1201 33 1271 213 b 736 910 1271 675 1058 910 b 189 357 411 910 189 671 b 724 -164 189 26 433 -164 b 907 -133 792 -164 850 -153 l 933 -206 b 722 -242 865 -231 799 -242 m 638 114 b 911 474 818 114 911 321 b 765 642 911 579 865 642 b 490 285 583 642 490 438 b 638 114 490 178 539 114 "},"&":{"ha":982,"x_min":0,"x_max":0,"o":"m 822 -44 l 693 107 b 394 -11 615 32 514 -11 b 97 222 222 -11 97 75 b 338 514 97 374 215 450 b 207 756 297 558 207 654 b 458 978 207 890 325 978 b 696 757 590 978 696 881 b 475 493 696 626 590 556 l 690 246 b 751 471 725 308 747 386 l 844 461 b 750 175 836 350 804 253 l 890 14 m 300 754 b 414 554 300 681 381 593 b 607 756 518 608 607 661 b 458 901 607 835 549 901 b 300 754 368 901 300 843 m 392 71 b 636 172 493 71 575 108 l 397 451 b 190 221 288 393 190 331 b 392 71 190 126 269 71 "},"¶":{"ha":881,"x_min":0,"x_max":0,"o":"m 403 426 b 92 697 242 426 92 526 b 403 968 92 868 242 968 l 469 968 l 469 -168 l 403 -168 m 621 968 l 690 968 l 690 -168 l 621 -168 "},"§":{"ha":865,"x_min":0,"x_max":0,"o":"m 429 -268 b 153 -111 311 -268 215 -221 l 235 -60 b 432 -179 279 -140 344 -179 b 606 -24 531 -179 606 -114 b 386 164 606 81 500 121 b 110 443 256 214 110 269 b 183 629 110 517 138 582 b 161 731 169 657 161 690 b 436 979 161 882 285 979 b 713 822 549 979 647 936 l 629 771 b 433 890 585 853 518 890 b 260 735 335 890 260 825 b 478 547 260 629 365 590 b 756 267 611 496 756 440 b 681 82 756 192 728 129 b 704 -19 696 54 704 19 b 429 -268 704 -171 581 -268 m 615 147 b 656 258 640 175 656 215 b 425 468 656 379 544 422 b 250 563 360 493 292 519 b 208 451 224 533 208 494 b 439 243 208 331 322 288 b 615 147 511 215 574 190 "},"©":{"ha":1236,"x_min":0,"x_max":0,"o":"m 618 -14 b 115 483 340 -14 115 208 b 618 982 115 758 340 982 b 1121 483 896 982 1121 758 b 618 -14 1121 208 896 -14 m 618 49 b 1058 483 861 49 1058 244 b 618 919 1058 724 861 919 b 178 483 374 919 178 724 b 618 49 178 244 374 49 m 632 164 b 354 482 456 164 354 308 b 631 803 354 644 446 803 b 881 633 744 803 835 744 l 804 604 b 631 731 775 681 711 731 b 436 482 499 731 436 610 b 632 238 436 356 497 238 b 801 363 714 238 776 286 l 874 335 b 632 164 836 226 746 164 "},"®":{"ha":1236,"x_min":0,"x_max":0,"o":"m 618 -14 b 115 483 340 -14 115 208 b 618 982 115 758 340 982 b 1121 483 896 982 1121 758 b 618 -14 1121 208 896 -14 m 618 49 b 1058 483 861 49 1058 244 b 618 919 1058 724 861 919 b 178 483 374 919 178 724 b 618 49 178 244 374 49 m 461 783 l 629 783 b 831 614 751 783 831 717 b 707 461 831 538 785 482 l 871 185 l 796 185 l 643 453 b 606 451 631 453 618 451 l 526 451 l 526 185 l 461 185 m 635 507 b 765 614 719 507 765 547 b 631 724 765 683 715 724 l 526 724 l 526 507 "},"™":{"ha":1035,"x_min":0,"x_max":0,"o":"m 225 911 l 118 911 l 118 968 l 392 968 l 392 911 l 288 911 l 288 600 l 225 600 m 474 968 l 574 968 l 661 714 l 749 968 l 846 968 l 846 600 l 785 600 l 785 901 l 681 624 l 642 624 l 535 904 l 535 600 l 474 600 "},"°":{"ha":675,"x_min":0,"x_max":0,"o":"m 338 583 b 140 782 229 583 140 674 b 338 979 140 889 229 979 b 535 782 446 979 535 889 b 338 583 535 674 446 583 m 338 650 b 469 782 410 650 469 708 b 338 913 469 854 410 913 b 207 782 265 913 207 853 b 338 650 207 710 265 650 "},"|":{"ha":453,"x_min":0,"x_max":0,"o":"m 190 1036 l 263 1036 l 263 -353 l 190 -353 "},"¦":{"ha":460,"x_min":0,"x_max":0,"o":"m 190 1036 l 269 1036 l 269 458 l 190 458 m 190 215 l 269 215 l 269 -353 l 190 -353 "},"†":{"ha":585,"x_min":0,"x_max":0,"o":"m 249 604 l 79 604 l 79 692 l 249 692 l 249 968 l 336 968 l 336 692 l 506 692 l 506 604 l 336 604 l 336 -140 l 249 -140 "},"‡":{"ha":638,"x_min":0,"x_max":0,"o":"m 275 136 l 106 136 l 106 224 l 275 224 l 275 604 l 106 604 l 106 692 l 275 692 l 275 968 l 363 968 l 363 692 l 532 692 l 532 604 l 363 604 l 363 224 l 532 224 l 532 136 l 363 136 l 363 -140 l 275 -140 "},"№":{"ha":1694,"x_min":0,"x_max":0,"o":"m 771 968 l 867 968 l 867 0 l 763 0 l 286 808 l 286 0 l 190 0 l 190 968 l 294 968 l 771 161 m 1296 217 b 1017 515 1132 217 1017 349 b 1296 811 1017 679 1132 811 b 1576 515 1458 811 1576 679 b 1296 217 1576 351 1460 217 m 1296 742 b 1099 515 1171 742 1099 639 b 1296 286 1099 388 1172 286 b 1493 515 1419 286 1493 389 b 1296 742 1493 639 1419 742 m 1029 74 l 1544 74 l 1544 0 l 1029 0 "},"˶":{"ha":775,"x_min":0,"x_max":0,"o":"m 272 685 l 376 685 l 190 476 l 117 476 m 561 685 l 665 685 l 482 476 l 408 476 "},"˵":{"ha":774,"x_min":0,"x_max":0,"o":"m 110 685 l 213 685 l 365 476 l 292 476 m 399 685 l 501 685 l 658 476 l 585 476 "},"̈":{"ha":0,"x_min":0,"x_max":0,"o":"m -483 968 l -372 968 l -372 826 l -483 826 m -233 968 l -122 968 l -122 826 l -233 826 "},"̇":{"ha":0,"x_min":0,"x_max":0,"o":"m -233 968 l -122 968 l -122 826 l -233 826 "},"̀":{"ha":0,"x_min":0,"x_max":0,"o":"m -301 968 l -199 968 l -54 772 l -129 772 "},"́":{"ha":0,"x_min":0,"x_max":0,"o":"m -150 968 l -47 968 l -226 772 l -300 772 "},"̋":{"ha":0,"x_min":0,"x_max":0,"o":"m -386 968 l -299 968 l -462 757 l -536 757 m -150 968 l -47 968 l -226 757 l -300 757 "},"̂":{"ha":0,"x_min":0,"x_max":0,"o":"m -247 982 l -40 761 l -119 761 l -247 897 l -374 761 l -454 761 "},"̌":{"ha":0,"x_min":0,"x_max":0,"o":"m -457 968 l -378 968 l -250 836 l -122 968 l -43 968 l -250 756 "},"̆":{"ha":0,"x_min":0,"x_max":0,"o":"m -297 786 b -507 968 -437 786 -507 850 l -437 968 b -297 844 -437 886 -382 844 b -157 968 -210 844 -157 889 l -87 968 b -297 786 -87 847 -162 786 "},"̊":{"ha":0,"x_min":0,"x_max":0,"o":"m -224 749 b -358 883 -299 749 -358 810 b -224 1018 -358 958 -297 1018 b -89 883 -151 1018 -89 958 b -224 749 -89 810 -149 749 m -224 803 b -143 883 -178 803 -143 839 b -224 964 -143 929 -176 964 b -304 883 -269 964 -304 929 b -224 803 -304 839 -269 803 "},"̃":{"ha":0,"x_min":0,"x_max":0,"o":"m -219 792 b -410 913 -335 792 -336 913 b -479 804 -453 913 -479 872 l -536 804 b -407 974 -536 911 -486 974 b -219 854 -303 974 -294 854 b -156 968 -183 854 -156 897 l -96 968 b -219 792 -96 858 -146 792 "},"̄":{"ha":0,"x_min":0,"x_max":0,"o":"m -493 890 l -118 890 l -118 832 l -493 832 "},"̉":{"ha":0,"x_min":0,"x_max":0,"o":"m -262 793 b -151 864 -210 801 -151 813 b -279 942 -151 921 -214 942 l -300 942 l -300 997 l -279 997 b -86 861 -168 997 -86 950 b -246 739 -86 768 -178 753 "},"̏":{"ha":0,"x_min":0,"x_max":0,"o":"m -542 968 l -439 968 l -289 757 l -362 757 m -290 968 l -203 968 l -53 757 l -126 757 "},"̒":{"ha":0,"x_min":0,"x_max":0,"o":"m -126 975 l -65 975 l -187 771 l -289 771 "},"̛":{"ha":0,"x_min":0,"x_max":0,"o":"m -289 756 b -171 894 -201 756 -171 815 l -171 968 l -97 968 l -97 901 b -289 690 -97 775 -154 690 "},"̣":{"ha":0,"x_min":0,"x_max":0,"o":"m -233 -100 l -122 -100 l -122 -240 l -233 -240 "},"̦":{"ha":0,"x_min":0,"x_max":0,"o":"m -151 -78 l -50 -78 l -212 -307 l -274 -307 "},"̧":{"ha":0,"x_min":0,"x_max":0,"o":"m -215 -354 b -339 -289 -258 -354 -308 -332 l -304 -243 b -212 -296 -282 -279 -246 -296 b -131 -219 -161 -296 -131 -268 b -207 -140 -131 -174 -164 -151 b -312 -131 -235 -133 -271 -131 l -237 0 l -178 0 l -233 -89 b -144 -111 -197 -94 -169 -100 b -72 -218 -99 -132 -72 -165 b -215 -354 -72 -297 -129 -354 "},"̨":{"ha":0,"x_min":0,"x_max":0,"o":"m -182 -297 b -308 -181 -253 -297 -308 -253 b -185 3 -308 -99 -243 -33 l -108 0 b -249 -172 -157 -29 -249 -87 b -185 -235 -249 -218 -218 -235 b -100 -197 -153 -235 -125 -221 l -53 -235 b -182 -297 -86 -272 -131 -297 "},"̵":{"ha":0,"x_min":0,"x_max":0,"o":"m -494 435 l -119 435 l -119 369 l -494 369 "},"̶":{"ha":0,"x_min":0,"x_max":0,"o":"m -1000 419 l -118 419 l -118 361 l -1000 361 "},"̷":{"ha":0,"x_min":0,"x_max":0,"o":"m -360 460 l -57 699 l -57 601 l -360 360 "},"̸":{"ha":0,"x_min":0,"x_max":0,"o":"m -86 821 l -12 821 l -522 0 l -596 0 "},"´":{"ha":353,"x_min":0,"x_max":0,"o":"m 203 968 l 306 968 l 126 772 l 53 772 "},"˘":{"ha":594,"x_min":0,"x_max":0,"o":"m 297 786 b 88 968 157 786 88 850 l 157 968 b 297 844 157 886 213 844 b 438 968 385 844 438 889 l 507 968 b 297 786 507 847 432 786 "},"ˇ":{"ha":500,"x_min":0,"x_max":0,"o":"m 43 968 l 122 968 l 250 836 l 378 968 l 457 968 l 250 756 "},"¸":{"ha":414,"x_min":0,"x_max":0,"o":"m 199 -354 b 67 -265 142 -354 88 -317 l 122 -242 b 201 -296 135 -274 165 -296 b 283 -221 251 -296 283 -268 b 160 -132 283 -171 238 -137 b 101 -131 143 -132 124 -131 l 176 -1 l 236 -1 l 181 -89 b 224 -96 201 -92 210 -93 b 342 -218 301 -111 342 -154 b 199 -354 342 -297 285 -354 "},"ˆ":{"ha":494,"x_min":0,"x_max":0,"o":"m 247 982 l 454 761 l 375 761 l 247 897 l 121 761 l 40 761 "},"¨":{"ha":606,"x_min":0,"x_max":0,"o":"m 122 968 l 233 968 l 233 826 l 122 826 m 372 968 l 483 968 l 483 826 l 372 826 "},"˙":{"ha":356,"x_min":0,"x_max":0,"o":"m 122 968 l 233 968 l 233 826 l 122 826 "},"`":{"ha":350,"x_min":0,"x_max":0,"o":"m 49 968 l 151 968 l 296 772 l 221 772 "},"˝":{"ha":589,"x_min":0,"x_max":0,"o":"m 203 968 l 290 968 l 126 757 l 53 757 m 439 968 l 542 968 l 363 757 l 289 757 "},"¯":{"ha":611,"x_min":0,"x_max":0,"o":"m 118 890 l 493 890 l 493 832 l 118 832 "},"˛":{"ha":425,"x_min":0,"x_max":0,"o":"m 225 -311 b 81 -181 138 -311 81 -261 b 236 3 81 -79 182 -10 l 313 0 b 140 -169 238 -21 140 -85 b 222 -250 140 -226 172 -250 b 321 -196 264 -250 294 -233 l 372 -231 b 225 -311 336 -282 290 -311 "},"˚":{"ha":447,"x_min":0,"x_max":0,"o":"m 224 749 b 89 883 149 749 89 810 b 224 1018 89 958 150 1018 b 358 883 296 1018 358 958 b 224 749 358 810 299 749 m 224 803 b 304 883 269 803 304 839 b 224 964 304 929 271 964 b 143 883 178 964 143 929 b 224 803 143 839 178 803 "},"˜":{"ha":631,"x_min":0,"x_max":0,"o":"m 411 792 b 221 913 296 792 294 913 b 151 804 178 913 151 872 l 94 804 b 224 974 94 911 144 974 b 411 854 328 974 336 854 b 475 968 447 854 475 897 l 535 968 b 411 792 535 858 485 792 "}}}
